<svg width="36" height="36" viewBox="0 0 36 36" fill="none" xmlns="http://www.w3.org/2000/svg">
<path fill-rule="evenodd" clip-rule="evenodd" d="M10.0969 6.60193L13.8862 7.27891L17.3266 5.44867L20.3681 7.83048H24.2323L25.8278 11.3655L29.2432 13.1457L29.0189 17.0318L31.2127 20.2159L29.1934 23.5504L29.667 27.4114L26.3264 29.4172L24.9553 33.0777L21.0911 33.3535L18.1742 35.9608L14.6591 34.3813L10.8946 35.3591L8.50137 32.3255L4.73683 31.4229L4.03885 27.587L1.14689 25.0296L2.29372 21.294L0.922607 17.6586L3.66492 14.9007L4.13852 11.0396L7.82823 9.83615L10.0969 6.60193Z" fill="#2A2941"/>
<path fill-rule="evenodd" clip-rule="evenodd" d="M12.0661 11.4156C13.2877 10.9394 14.5591 10.7137 15.8555 10.7388C17.1519 10.7638 18.4233 11.0647 19.6199 11.5912C20.8166 12.1177 21.8637 12.8949 22.7611 13.8477C23.6586 14.8003 24.3567 15.9286 24.8055 17.132C25.8775 19.5389 25.9522 22.2968 25.0298 24.7789C24.1074 27.261 22.2376 29.2667 19.8693 30.3698C18.6477 30.8462 17.3763 31.0719 16.0799 31.0468C14.7835 31.0218 13.512 30.7209 12.3154 30.1944C11.1187 29.6679 10.0717 28.8907 9.17424 27.963C8.27673 27.0103 7.57866 25.9071 7.1299 24.6786C6.0579 22.2718 5.98317 19.5138 6.90553 17.0318C7.80304 14.5496 9.67278 12.5189 12.0661 11.4156Z" fill="#2A2941"/>
<path fill-rule="evenodd" clip-rule="evenodd" d="M30.0409 12.2431L0 25.0296L2.64255 31.4479L32.7084 18.6614L30.0409 12.2431Z" fill="#2A2941"/>
<path d="M5.95873 28.7903L4.71223 29.3169C4.6374 29.3671 4.56258 29.3671 4.48785 29.3921C4.41302 29.3921 4.3382 29.3921 4.26347 29.342C4.18865 29.3168 4.13876 29.2667 4.08898 29.1915C4.03909 29.1163 4.01415 29.0662 3.98921 28.9909L2.6181 25.7316C2.56822 25.5812 2.56822 25.4308 2.6181 25.2803C2.64294 25.2051 2.69283 25.155 2.76765 25.1049C2.81754 25.0547 2.89226 25.0296 2.96709 25.0045L4.3382 24.4279C4.51279 24.3527 4.68729 24.2774 4.86178 24.2524C5.01133 24.2273 5.16088 24.2273 5.31054 24.2524C5.43515 24.2774 5.55986 24.3277 5.65952 24.3778C5.75929 24.4279 5.8839 24.5282 5.95873 24.6034C6.05839 24.7037 6.10828 24.829 6.15816 24.9544C6.25783 25.155 6.28277 25.3807 6.23289 25.6062C6.1831 25.8319 6.08334 26.0325 5.93378 26.183C6.1831 26.1327 6.45727 26.183 6.68164 26.3083C6.90602 26.4337 7.08051 26.6342 7.18028 26.8849C7.27995 27.1106 7.32983 27.3613 7.27995 27.612C7.25511 27.8377 7.1304 28.0633 6.98085 28.2388C6.85614 28.3642 6.73153 28.4644 6.60692 28.5397L5.95873 28.7903ZM5.1111 26.8849L4.23853 27.261L4.76201 28.5397L5.65952 28.1636C6.23289 27.9379 6.40748 27.5869 6.25783 27.1607C6.23289 27.0604 6.1831 26.9853 6.10828 26.91C6.03345 26.8348 5.93378 26.7847 5.83402 26.7847C5.5847 26.7345 5.33548 26.7847 5.1111 26.8849ZM3.54045 25.506L3.98921 26.6342L4.76201 26.3083C4.93661 26.2582 5.08616 26.1579 5.21077 26.0576C5.31053 25.9573 5.36042 25.8319 5.38526 25.7066C5.4102 25.6062 5.4102 25.506 5.38526 25.4057C5.36042 25.3054 5.31054 25.2302 5.23571 25.1801C5.16088 25.13 5.08616 25.0797 4.98639 25.0797C4.73707 25.1049 4.48785 25.155 4.26347 25.2803L3.54045 25.506Z" fill="#2A2941"/>
<path d="M10.1465 24.8291L9.84725 24.9544L10.4207 26.3334C10.4705 26.4838 10.4705 26.6343 10.4207 26.7846C10.3958 26.8349 10.3708 26.9101 10.3209 26.9351C10.2711 26.9852 10.2212 27.0103 10.1714 27.0354C10.1215 27.0604 10.0467 27.0856 9.9969 27.0856C9.94702 27.0856 9.87219 27.0604 9.82231 27.0354C9.6977 26.9602 9.59793 26.8349 9.54815 26.6844L8.17694 23.3498C8.12706 23.1995 8.12706 23.049 8.17694 22.8986C8.20188 22.8233 8.25176 22.7732 8.32649 22.7231C8.37637 22.673 8.4512 22.6479 8.52603 22.6228L9.89713 22.0461C10.0467 21.9709 10.2212 21.9208 10.3708 21.8707C10.4954 21.8456 10.645 21.8456 10.7946 21.8707C10.9442 21.8707 11.0937 21.9208 11.2434 21.9709C11.393 22.0461 11.5176 22.1464 11.6173 22.2467C11.717 22.3721 11.8168 22.5225 11.8667 22.673C11.9663 22.9487 11.9663 23.2746 11.8667 23.5504C11.7419 23.8513 11.5176 24.1271 11.2434 24.3026C11.4428 24.3277 11.6423 24.4028 11.8168 24.5032C12.0162 24.6034 12.2156 24.7288 12.3901 24.8542C12.5646 24.9544 12.7143 25.1049 12.8389 25.2302C12.9137 25.3055 12.9884 25.4057 13.0633 25.4809C13.0882 25.5562 13.0882 25.6063 13.0633 25.6815C13.0633 25.7568 13.0134 25.8069 12.9884 25.8821C12.9387 25.9573 12.8638 26.0074 12.789 26.0326C12.7143 26.0576 12.6145 26.0576 12.5398 26.0326C12.465 26.0074 12.3652 25.9824 12.3154 25.9322C12.2156 25.857 12.091 25.7819 11.9913 25.7066L11.4179 25.2554C11.2434 25.1299 11.0688 25.0046 10.8943 24.9043C10.7697 24.8291 10.645 24.804 10.5204 24.804C10.3708 24.804 10.2461 24.8542 10.1215 24.9043L10.1465 24.8291ZM9.87219 22.8233L9.09939 23.1493L9.59793 24.3527L10.3459 24.0268C10.5204 23.9516 10.6699 23.8763 10.8196 23.751C10.9442 23.6758 11.019 23.5504 11.0688 23.4251C11.1187 23.2997 11.1187 23.1493 11.0688 22.9989C11.019 22.8986 10.9442 22.7983 10.8445 22.7231C10.7448 22.6479 10.6202 22.6228 10.5204 22.6228C10.296 22.6479 10.0467 22.698 9.84725 22.7983H9.87219V22.8233Z" fill="#2A2941"/>
<path d="M17.7999 23.1743L17.3761 22.723L15.7057 23.4501V24.0768C15.7307 24.2524 15.7307 24.4279 15.7057 24.6034C15.6808 24.6536 15.6559 24.7037 15.6309 24.7287C15.581 24.7789 15.5562 24.8039 15.5063 24.8039C15.4564 24.829 15.4065 24.829 15.3318 24.829C15.2819 24.829 15.2071 24.829 15.1572 24.8039C15.1074 24.7789 15.0575 24.7538 15.0077 24.7287C14.9578 24.6786 14.9328 24.6536 14.908 24.6034C14.8831 24.5282 14.8831 24.478 14.908 24.4028C14.908 24.3276 14.908 24.2273 14.908 24.102L14.8082 20.8426C14.8082 20.7424 14.8082 20.642 14.8082 20.4916C14.8082 20.3914 14.8082 20.266 14.8082 20.1657C14.8332 20.0654 14.8581 19.9902 14.9328 19.915C14.9827 19.8147 15.0825 19.7645 15.1822 19.7144C15.2819 19.6894 15.4065 19.6894 15.5063 19.7144C15.606 19.7144 15.6808 19.7645 15.7556 19.8147L15.98 19.9902L16.2292 20.291L18.4481 22.6227C18.5727 22.748 18.6724 22.8735 18.7721 23.049C18.797 23.0991 18.797 23.1492 18.797 23.1994C18.797 23.2495 18.797 23.2997 18.7721 23.3498C18.7472 23.4 18.7223 23.4501 18.6724 23.5002C18.6225 23.5504 18.5727 23.5755 18.5228 23.6006H18.3233C18.2736 23.6256 18.2237 23.6256 18.1738 23.6006C18.099 23.5504 18.0492 23.5002 17.9744 23.4501L17.7999 23.1743ZM15.6559 22.6729L16.9024 22.1463L15.5312 20.617L15.6559 22.6729Z" fill="#2A2941"/>
<path d="M20.4178 18.0846L23.0854 19.9399L22.0384 17.3827C21.9885 17.2322 21.9885 17.0818 22.0384 16.9564C22.0633 16.9063 22.0883 16.8562 22.1131 16.806C22.163 16.7559 22.1879 16.7308 22.2628 16.7057C22.3126 16.6807 22.3874 16.6807 22.4372 16.6807C22.4871 16.6807 22.5619 16.6807 22.6117 16.7057C22.7364 16.7809 22.8112 16.9063 22.8611 17.0316L24.2322 20.4414C24.3818 20.8175 24.307 21.0682 24.0078 21.1936H23.7835C23.7087 21.2186 23.6339 21.2186 23.584 21.1936L23.3597 21.0933L23.1353 20.9428L20.5176 19.0875L21.5647 21.6198C21.6146 21.7451 21.6146 21.8956 21.5647 22.046C21.5397 22.0961 21.5148 22.1463 21.465 22.1964C21.4151 22.2466 21.3652 22.2716 21.3154 22.2967C21.2655 22.3218 21.1907 22.3218 21.1409 22.3218C21.091 22.3218 21.0163 22.2967 20.9664 22.2716C20.8417 22.1964 20.7669 22.071 20.717 21.9457L19.3459 18.6112C19.2961 18.4858 19.2711 18.3855 19.2711 18.2602C19.2711 18.1599 19.2961 18.0596 19.3459 17.9593C19.3957 17.859 19.4706 17.8089 19.5703 17.7587C19.645 17.7337 19.7199 17.7337 19.7698 17.7587C19.8195 17.7337 19.8944 17.7337 19.9442 17.7587C20.019 17.7838 20.0689 17.8339 20.1437 17.859L20.4178 18.0846Z" fill="#2A2941"/>
<path d="M25.4789 15.402L26.5508 14.9508C26.8001 14.8505 27.0494 14.7753 27.2987 14.7252C27.5231 14.7001 27.7724 14.7252 27.9968 14.8003C28.3209 14.9258 28.5951 15.1263 28.8444 15.402C29.0937 15.6779 29.2683 15.9537 29.3679 16.3047C29.4677 16.5303 29.5424 16.7811 29.5923 17.0318C29.6172 17.2574 29.6172 17.483 29.5923 17.6836C29.5674 17.9093 29.5175 18.1099 29.4427 18.3103C29.3679 18.4608 29.2931 18.5862 29.1934 18.7115C29.0937 18.8369 28.969 18.9372 28.8195 19.0375L28.3209 19.2882L27.2489 19.7646C27.1242 19.8147 26.9995 19.8397 26.8749 19.8397C26.7752 19.8147 26.7004 19.7646 26.6505 19.6894C26.5757 19.589 26.5259 19.4888 26.4761 19.3634L25.1048 16.1793C25.0551 16.0289 25.0551 15.8784 25.1048 15.728C25.1547 15.6528 25.2046 15.5776 25.2793 15.5274C25.3292 15.4523 25.404 15.402 25.4789 15.402ZM26.1021 15.9537L27.2987 18.8871L27.922 18.6113L28.246 18.4608L28.4704 18.3103C28.5452 18.2352 28.5951 18.16 28.645 18.0848C28.7197 17.8591 28.7696 17.5833 28.7447 17.3326C28.7197 17.0819 28.645 16.8312 28.5452 16.6055C28.4206 16.2796 28.2212 15.9537 27.9719 15.728C27.7974 15.5776 27.573 15.5024 27.3486 15.5274C27.0993 15.5525 26.8749 15.6277 26.6505 15.728L26.1021 15.9537Z" fill="#2A2941"/>
<path fill-rule="evenodd" clip-rule="evenodd" d="M12.1661 3.54321L15.8309 4.16997L19.1466 2.41492L22.0883 4.69648H25.8279L27.3735 8.08117L30.6893 9.786L30.4649 13.4966L32.584 16.5554L30.6394 19.7645L31.0882 23.4501L27.8722 25.4057L26.501 28.9157L22.7615 29.1665L20.0191 31.6736L16.6286 30.1944L12.9888 31.122L10.6952 28.1886L7.05552 27.3362L6.38238 23.6757L3.64007 21.2438L4.76186 17.6585L3.39075 14.1736L6.0333 11.516L6.50699 7.80539L10.072 6.65212L12.1661 3.54321Z" fill="#CCE4FF"/>
<path fill-rule="evenodd" clip-rule="evenodd" d="M12.3902 2.33973L11.5924 2.18936L9.24899 5.57396L5.31006 6.82756L4.81142 10.9644L1.84473 13.9229L3.3156 17.7589L2.0691 21.6449L5.16051 24.4028L5.90837 28.4394L9.92212 29.3921L12.465 32.6013L16.4788 31.5733L20.2432 33.228L23.3346 30.4702L27.448 30.1944L28.9189 26.3333L32.459 24.1772L31.9604 20.1156L34.1044 16.5805L31.7859 13.0955L32.0352 8.95865L28.3954 7.07829L26.7002 3.34262H22.5866L19.2959 0.960815L15.6561 2.91637L12.3902 2.33973ZM12.1659 3.61841L15.8306 4.24516L19.1463 2.49021L22.0881 4.77167H25.8276L27.3732 8.15636L30.689 9.86129L30.4646 13.5719L32.5837 16.6306L30.6391 19.8397L31.0879 23.5253L27.8718 25.4809L26.5007 28.9909L22.7611 29.2417L20.0188 31.7489L16.6283 30.2696L12.9886 31.1973L10.6949 28.2638L7.0552 27.3613L6.38207 23.7008L3.63975 21.2689L4.76164 17.6836L3.39043 14.1986L6.03308 11.5661L6.50667 7.85551L10.0717 6.70225L12.1659 3.61841Z" fill="#2A2941"/>
<path fill-rule="evenodd" clip-rule="evenodd" d="M14.0853 8.13133C15.8554 7.27892 17.8249 6.97797 19.7693 7.25385C21.7139 7.52964 23.5089 8.40711 24.9549 9.73591C26.4008 11.0647 27.4229 12.7947 27.8717 14.7252C28.3204 16.6306 28.1957 18.6614 27.4978 20.4917C26.7997 22.3219 25.5781 23.9265 23.9825 25.0547C22.3871 26.1829 20.4674 26.8097 18.5228 26.8599C16.5783 26.91 14.6338 26.3334 12.9883 25.2553C11.343 24.1772 10.0715 22.6228 9.29872 20.8176C8.2766 18.4859 8.20177 15.8784 9.09928 13.4966C9.99679 11.1148 11.7917 9.18434 14.0853 8.13133Z" fill="white"/>
<path fill-rule="evenodd" clip-rule="evenodd" d="M13.5871 6.95289C11.518 7.70505 9.69799 9.08407 8.42655 10.8892C7.13017 12.6943 6.40725 14.8505 6.33242 17.0568C6.2576 19.2882 6.856 21.4695 8.05262 23.3499C9.22429 25.2302 10.9445 26.7094 12.9639 27.612C14.9832 28.5146 17.2269 28.7653 19.3958 28.3642C21.5648 27.963 23.5841 26.91 25.1547 25.3555C26.7254 23.8011 27.7973 21.7954 28.246 19.6141C28.6948 17.4329 28.4704 15.1765 27.6228 13.1206C26.5757 10.4379 24.5065 8.28168 21.8888 7.12842C19.2213 5.97516 16.2546 5.89988 13.5871 6.95289ZM14.0857 8.13131C15.8558 7.2789 17.8253 6.97805 19.7697 7.25383C21.7143 7.52962 23.5093 8.40709 24.9553 9.73589C26.4012 11.0647 27.3984 12.8197 27.8721 14.7252C28.3458 16.6306 28.1962 18.6614 27.4982 20.4917C26.8001 22.3219 25.5785 23.9265 23.983 25.0547C22.3875 26.1829 20.4678 26.8097 18.5232 26.8599C16.5538 26.8849 14.6342 26.3334 12.9888 25.2553C11.3434 24.1772 10.0719 22.6227 9.29912 20.8176C8.277 18.4859 8.20217 15.8784 9.09968 13.4966C9.99719 11.1148 11.7921 9.20939 14.0857 8.13131Z" fill="#2A2941"/>
<path fill-rule="evenodd" clip-rule="evenodd" d="M31.487 8.93359L2.41846 21.1685L4.98618 27.3112L34.0299 15.0761L31.487 8.93359Z" fill="#1A2431"/>
<path fill-rule="evenodd" clip-rule="evenodd" d="M35.7001 15.7782L32.16 7.25372L0.748047 20.4665L4.36283 28.9909L35.7001 15.7782ZM31.4869 8.88337L2.41836 21.1184L4.98618 27.2609L34.0298 15.026L31.4869 8.88337Z" fill="#2A2941"/>
<path d="M8.17677 24.779L6.95522 25.2803C6.88039 25.3055 6.80566 25.3306 6.73084 25.3306C6.65611 25.3306 6.58129 25.3055 6.50646 25.2803C6.40679 25.2803 6.30703 25.1049 6.2323 24.9294L4.9857 21.8455C4.93592 21.6952 4.93592 21.5447 4.9857 21.3943C4.9857 21.2689 5.13535 21.1937 5.30985 21.0935L6.60623 20.5669C6.78072 20.4917 6.93028 20.4415 7.10477 20.3914C7.25442 20.3664 7.40397 20.3664 7.55353 20.3914C7.67824 20.4165 7.7779 20.4666 7.87767 20.5167C7.97734 20.567 8.07711 20.6421 8.17677 20.7424C8.2516 20.8427 8.32643 20.943 8.37621 21.0683C8.45104 21.2689 8.50092 21.4695 8.45104 21.6951C8.40115 21.8957 8.30148 22.0962 8.15183 22.2467C8.40115 22.1966 8.65047 22.2467 8.87485 22.372C9.09923 22.4974 9.27372 22.698 9.34855 22.9237C9.44821 23.1493 9.47316 23.4 9.44821 23.6256C9.39843 23.8513 9.29866 24.077 9.14911 24.2273C9.04934 24.3277 8.92473 24.4279 8.77518 24.5032C8.57565 24.6035 8.40115 24.7037 8.17677 24.779ZM7.35409 22.9488L6.50646 23.2997L7.0051 24.5032L7.87767 24.1521C8.40115 23.9265 8.60059 23.6006 8.45104 23.1995C8.42609 23.0991 8.37621 23.0239 8.30148 22.9488C8.22666 22.8735 8.15183 22.8484 8.05216 22.8233C7.80284 22.7983 7.57847 22.8484 7.35409 22.9488ZM5.83333 21.5697L6.28208 22.6478L7.03004 22.347C7.1796 22.2718 7.32915 22.1966 7.4788 22.0962C7.52858 22.0461 7.55353 21.996 7.60341 21.9459C7.62835 21.8957 7.65329 21.8205 7.65329 21.7703C7.67823 21.6701 7.67823 21.5697 7.65329 21.4695C7.55353 21.2438 7.42891 21.1436 7.27936 21.1436C7.03004 21.1436 6.80567 21.2188 6.58129 21.319L5.83333 21.5697Z" fill="white"/>
<path d="M12.2161 20.993L11.9419 21.0934L12.4903 22.4723C12.5153 22.5475 12.5402 22.6227 12.5402 22.6979C12.5402 22.7731 12.5153 22.8483 12.4903 22.9236C12.4654 22.9737 12.4404 23.0239 12.3906 23.074C12.3408 23.1241 12.2909 23.1492 12.241 23.1743C12.1911 23.1994 12.1413 23.2245 12.0665 23.2245C12.0166 23.2245 11.9419 23.1994 11.892 23.1743C11.7673 23.099 11.6676 22.9737 11.6178 22.8233L10.2466 19.6392C10.1968 19.4888 10.1968 19.3383 10.2466 19.1878C10.3214 19.0625 10.4461 18.9623 10.5707 18.9121L11.9419 18.3605C12.0914 18.2853 12.241 18.2352 12.4155 18.1851C12.5402 18.16 12.6898 18.16 12.8144 18.1851C12.964 18.1851 13.1136 18.2352 13.2382 18.2853C13.3629 18.3354 13.4875 18.4358 13.6122 18.536C13.7119 18.6613 13.7867 18.7867 13.8614 18.9121C13.9612 19.1878 13.9612 19.4888 13.8614 19.7646C13.7867 19.7394 13.7119 19.7144 13.6372 19.7144C13.5623 19.7144 13.4875 19.7395 13.4128 19.7896C13.3379 19.8398 13.2881 19.8899 13.2631 19.9651C13.2133 20.0404 13.2132 20.1155 13.2132 20.1907C13.2132 20.266 13.2382 20.3412 13.2631 20.4164C13.313 20.4916 13.3629 20.5418 13.4128 20.5919C13.4626 20.6421 13.5623 20.6671 13.6372 20.6671C13.7119 20.6671 13.7867 20.6671 13.8614 20.617C14.0609 20.7172 14.2355 20.8426 14.4349 20.968C14.5844 21.0683 14.734 21.1936 14.8587 21.3189C14.9334 21.3942 15.0083 21.4694 15.0581 21.5697C15.0831 21.6199 15.0831 21.6951 15.0581 21.7452C15.0332 21.8204 15.0083 21.8957 14.9584 21.9458C14.9085 21.9959 14.8587 22.046 14.7839 22.0711C14.7091 22.0962 14.6094 22.0962 14.5346 22.0711C14.4598 22.046 14.385 22.021 14.3102 21.9708L14.0111 21.7452L13.4376 21.3189C13.2881 21.1936 13.1136 21.0683 12.9391 20.968C12.8144 20.9178 12.6898 20.8677 12.5651 20.8677C12.4404 20.8677 12.2909 20.8928 12.1911 20.9429L12.2161 20.993ZM11.9667 19.0375L11.2189 19.3634L11.6926 20.5166L12.4155 20.1907C12.59 20.1406 12.7396 20.0404 12.8892 19.94C12.989 19.8648 13.0637 19.7646 13.1136 19.6392C13.1635 19.5139 13.1635 19.3634 13.1136 19.2381C13.0637 19.1377 13.0138 19.0375 12.9141 18.9873C12.8144 18.9371 12.7147 18.887 12.59 18.9121C12.3657 18.9121 12.1662 18.9623 11.9667 19.0375Z" fill="white"/>
<path d="M19.6198 19.4136L19.196 18.9624L17.5756 19.6393V20.2661C17.6005 20.4415 17.6005 20.592 17.5756 20.7674C17.5756 20.8678 17.4758 20.943 17.3761 20.9931C17.3262 21.0182 17.2764 21.0182 17.2265 21.0182C17.1767 21.0182 17.1268 21.0182 17.0769 20.9931C17.027 20.968 16.9773 20.943 16.9274 20.9179C16.8775 20.8929 16.8525 20.8427 16.8276 20.7926C16.8028 20.7173 16.8028 20.6672 16.8276 20.592C16.8276 20.4917 16.8276 20.3914 16.8276 20.2912L16.7279 17.1823V16.8563C16.703 16.756 16.703 16.6307 16.7279 16.5303C16.7529 16.4301 16.7778 16.3549 16.8276 16.2796C16.9024 16.2044 16.9773 16.1292 17.0769 16.1042C17.1767 16.0791 17.2764 16.0791 17.4011 16.1042C17.5007 16.1042 17.5756 16.1543 17.6503 16.2044C17.7251 16.2546 17.7999 16.3048 17.8498 16.38L18.099 16.6307L20.2431 18.862C20.3678 18.9874 20.4674 19.1127 20.5423 19.2632C20.5672 19.3133 20.5672 19.3635 20.5672 19.4136C20.5672 19.4638 20.5672 19.5139 20.5423 19.5641C20.5173 19.6142 20.4924 19.6643 20.4425 19.7144C20.3927 19.7647 20.3428 19.7897 20.2929 19.8148C20.2431 19.8398 20.1683 19.8398 20.1184 19.8148C20.0686 19.8148 20.0187 19.8148 19.9689 19.8148L19.7943 19.6643L19.6198 19.4136ZM17.5506 18.9373L18.7472 18.4359L17.3761 16.9817L17.5506 18.9373Z" fill="white"/>
<path d="M22.1879 14.5245L24.7557 16.3297L23.7336 13.8726C23.6837 13.7473 23.6837 13.5968 23.7336 13.4715C23.7585 13.4214 23.7835 13.3712 23.8083 13.3211C23.8582 13.2709 23.8832 13.2459 23.933 13.2208C23.9829 13.1957 24.0327 13.1957 24.1075 13.1957C24.1574 13.1957 24.2321 13.1957 24.282 13.2208C24.4067 13.296 24.4815 13.4214 24.5313 13.5467L25.9025 16.806C26.0521 17.1571 25.9773 17.4078 25.703 17.5331C25.6283 17.5582 25.5535 17.5582 25.4786 17.5331C25.4039 17.5582 25.3291 17.5582 25.2792 17.5331C25.2045 17.508 25.1297 17.483 25.0798 17.4328L24.8803 17.2824L22.2128 15.5274L23.235 17.9594C23.2848 18.0847 23.2848 18.2351 23.235 18.3604C23.21 18.4107 23.1851 18.4608 23.1601 18.5109C23.1104 18.561 23.0854 18.5861 23.0355 18.6112C22.9856 18.6362 22.9359 18.6613 22.861 18.6613C22.8112 18.6613 22.7363 18.6362 22.6865 18.6112C22.5618 18.536 22.4871 18.4357 22.4372 18.2853L21.0411 15.0761C20.9913 14.9758 20.9663 14.8504 20.9414 14.7502C20.9414 14.6498 20.9663 14.5496 21.0162 14.4744C21.066 14.3991 21.1658 14.3239 21.2406 14.2738H21.44C21.4898 14.2488 21.5647 14.2488 21.6145 14.2738C21.6893 14.2989 21.7391 14.349 21.814 14.3741L22.1879 14.5245Z" fill="white"/>
<path d="M27.074 11.9924L28.121 11.5411C28.3703 11.4408 28.5947 11.3657 28.8689 11.3154C29.0933 11.2904 29.3176 11.3154 29.5171 11.3907C29.8412 11.516 30.1155 11.6916 30.3647 11.9172C30.614 12.1679 30.7885 12.4437 30.8883 12.7696C30.988 12.9953 31.0628 13.221 31.1127 13.4717C31.1376 13.6722 31.1376 13.8978 31.1127 14.0984C31.0877 14.299 31.0378 14.4996 30.9631 14.6751C30.8883 14.8255 30.8135 14.9508 30.7138 15.0512C30.614 15.1765 30.4894 15.2768 30.3647 15.352L29.8911 15.6028L28.844 16.054C28.7443 16.1042 28.6197 16.1293 28.495 16.1293C28.4451 16.1293 28.3953 16.1042 28.3703 16.0791C28.3205 16.054 28.2955 16.0289 28.2706 15.9788C28.1959 15.8785 28.146 15.7782 28.0961 15.6779L26.8246 12.6192C26.7748 12.4688 26.7748 12.3183 26.8246 12.1679C26.8496 12.0927 26.8995 12.0425 26.9493 11.9924C26.9991 11.9423 27.074 11.9172 27.1488 11.8922L27.074 11.9924ZM27.6473 12.544L28.8191 15.3019L29.4174 15.0512L29.7415 14.9007C29.8163 14.8757 29.8911 14.8255 29.9658 14.7502C30.0407 14.6751 30.0905 14.5999 30.1155 14.5247C30.1902 14.299 30.2401 14.0734 30.2152 13.8226C30.1902 13.5719 30.1155 13.3463 30.0157 13.1457C29.8911 12.8198 29.7165 12.544 29.4673 12.2933C29.2927 12.1429 29.0933 12.0927 28.8689 12.0927C28.6445 12.1177 28.4202 12.193 28.1959 12.2682L27.6723 12.4939V12.544H27.6473Z" fill="white"/>
</svg>
