<svg width="860" height="555" viewBox="0 0 860 555" fill="none" xmlns="http://www.w3.org/2000/svg">
<path d="M126.104 87.8087C126.104 87.8087 121.772 76.2415 111.645 74.0696C101.518 71.8977 97.5398 78.0473 95.3801 83.172C93.2204 88.2967 86.7048 84.258 81.275 83.5259C75.8453 82.7938 72.9657 88.2235 71.8797 92.2013C70.7938 96.179 63.9242 90.3954 57.7746 94.0193C51.6249 97.6432 50.5512 102.329 49.0992 103.415C47.6472 104.501 43.6816 102.695 41.5097 105.587L39.3378 108.478H152.496C152.496 108.478 156.157 100.157 149.238 94.0193C142.32 87.8819 130.448 97.204 126.104 87.8087Z" stroke="#263238" stroke-miterlimit="10" stroke-linecap="round"/>
<path d="M58.0187 132.918C58.0187 132.918 55.0292 124.938 48.0621 123.438C41.0949 121.937 38.3007 126.171 36.8487 129.66C35.3967 133.15 30.8577 130.405 27.0874 129.917C23.3171 129.429 21.3526 133.15 20.6083 135.895C19.864 138.641 15.1298 134.675 10.847 137.116C6.56417 139.556 5.85648 142.85 4.86814 143.595C3.8798 144.339 1.12222 143.094 -0.366381 145.083L-1.86719 147.084H76.2114C76.8948 145.392 77.046 143.531 76.6449 141.75C76.2438 139.969 75.3094 138.352 73.9663 137.116C69.1954 132.918 61.0081 139.397 58.0187 132.918Z" stroke="#263238" stroke-miterlimit="10" stroke-linecap="round"/>
<path d="M-15.8938 384.03H27.2879V258.609H65.3206V200.017H137.286V316.177H155.784V90.8727H234.936V189.731H284.28V104.404H368.581V296.642H483.716V181.775H558.927V297.679H605.025V311.04H633.809V221.406H653.332V311.04H666.705V216.465H688.29V306.928H715.023V154.785H763.33V254.497H791.089V105.442H858.942V406.64" stroke="#003574" stroke-miterlimit="10" stroke-linecap="round"/>
<path d="M46.8105 279.169H38.5866V289.455H46.8105V279.169Z" stroke="#003574" stroke-miterlimit="10" stroke-linecap="round"/>
<path d="M60.1836 279.169H51.9597V289.455H60.1836V279.169Z" stroke="#003574" stroke-miterlimit="10" stroke-linecap="round"/>
<path d="M73.5444 279.169H65.3205V289.455H73.5444V279.169Z" stroke="#003574" stroke-miterlimit="10" stroke-linecap="round"/>
<path d="M86.9052 279.169H78.6813V289.455H86.9052V279.169Z" stroke="#003574" stroke-miterlimit="10" stroke-linecap="round"/>
<path d="M100.278 279.169H92.0543V289.455H100.278V279.169Z" stroke="#003574" stroke-miterlimit="10" stroke-linecap="round"/>
<path d="M113.639 279.169H105.415V289.455H113.639V279.169Z" stroke="#003574" stroke-miterlimit="10" stroke-linecap="round"/>
<path d="M176.344 203.104H168.12V213.39H176.344V203.104Z" stroke="#003574" stroke-miterlimit="10" stroke-linecap="round"/>
<path d="M189.704 203.104H181.48V213.39H189.704V203.104Z" stroke="#003574" stroke-miterlimit="10" stroke-linecap="round"/>
<path d="M203.077 203.104H194.854V213.39H203.077V203.104Z" stroke="#003574" stroke-miterlimit="10" stroke-linecap="round"/>
<path d="M216.438 203.104H208.214V213.39H216.438V203.104Z" stroke="#003574" stroke-miterlimit="10" stroke-linecap="round"/>
<path d="M176.344 184.594H168.12V194.88H176.344V184.594Z" stroke="#003574" stroke-miterlimit="10" stroke-linecap="round"/>
<path d="M189.704 184.594H181.48V194.88H189.704V184.594Z" stroke="#003574" stroke-miterlimit="10" stroke-linecap="round"/>
<path d="M203.077 184.594H194.854V194.88H203.077V184.594Z" stroke="#003574" stroke-miterlimit="10" stroke-linecap="round"/>
<path d="M216.438 184.594H208.214V194.88H216.438V184.594Z" stroke="#003574" stroke-miterlimit="10" stroke-linecap="round"/>
<path d="M176.344 166.084H168.12V176.37H176.344V166.084Z" stroke="#003574" stroke-miterlimit="10" stroke-linecap="round"/>
<path d="M189.704 166.084H181.48V176.37H189.704V166.084Z" stroke="#003574" stroke-miterlimit="10" stroke-linecap="round"/>
<path d="M203.077 166.084H194.854V176.37H203.077V166.084Z" stroke="#003574" stroke-miterlimit="10" stroke-linecap="round"/>
<path d="M216.438 166.084H208.214V176.37H216.438V166.084Z" stroke="#003574" stroke-miterlimit="10" stroke-linecap="round"/>
<path d="M176.344 147.586H168.12V157.872H176.344V147.586Z" stroke="#003574" stroke-miterlimit="10" stroke-linecap="round"/>
<path d="M189.704 147.586H181.48V157.872H189.704V147.586Z" stroke="#003574" stroke-miterlimit="10" stroke-linecap="round"/>
<path d="M203.077 147.586H194.854V157.872H203.077V147.586Z" stroke="#003574" stroke-miterlimit="10" stroke-linecap="round"/>
<path d="M216.438 147.586H208.214V157.872H216.438V147.586Z" stroke="#003574" stroke-miterlimit="10" stroke-linecap="round"/>
<path d="M176.344 129.076H168.12V139.362H176.344V129.076Z" stroke="#003574" stroke-miterlimit="10" stroke-linecap="round"/>
<path d="M189.704 129.076H181.48V139.362H189.704V129.076Z" stroke="#003574" stroke-miterlimit="10" stroke-linecap="round"/>
<path d="M203.077 129.076H194.854V139.362H203.077V129.076Z" stroke="#003574" stroke-miterlimit="10" stroke-linecap="round"/>
<path d="M216.438 129.076H208.214V139.362H216.438V129.076Z" stroke="#003574" stroke-miterlimit="10" stroke-linecap="round"/>
<path d="M229.799 203.104H221.575V213.39H229.799V203.104Z" stroke="#003574" stroke-miterlimit="10" stroke-linecap="round"/>
<path d="M243.16 203.104H234.936V213.39H243.16V203.104Z" stroke="#003574" stroke-miterlimit="10" stroke-linecap="round"/>
<path d="M176.344 223.664H168.12V233.95H176.344V223.664Z" stroke="#003574" stroke-miterlimit="10" stroke-linecap="round"/>
<path d="M189.704 223.664H181.48V233.95H189.704V223.664Z" stroke="#003574" stroke-miterlimit="10" stroke-linecap="round"/>
<path d="M203.077 223.664H194.854V233.95H203.077V223.664Z" stroke="#003574" stroke-miterlimit="10" stroke-linecap="round"/>
<path d="M216.438 223.664H208.214V233.95H216.438V223.664Z" stroke="#003574" stroke-miterlimit="10" stroke-linecap="round"/>
<path d="M229.799 223.664H221.575V233.95H229.799V223.664Z" stroke="#003574" stroke-miterlimit="10" stroke-linecap="round"/>
<path d="M243.16 223.664H234.936V233.95H243.16V223.664Z" stroke="#003574" stroke-miterlimit="10" stroke-linecap="round"/>
<path d="M46.8105 300.754H38.5866V311.04H46.8105V300.754Z" stroke="#003574" stroke-miterlimit="10" stroke-linecap="round"/>
<path d="M60.1836 300.754H51.9597V311.04H60.1836V300.754Z" stroke="#003574" stroke-miterlimit="10" stroke-linecap="round"/>
<path d="M73.5444 300.754H65.3205V311.04H73.5444V300.754Z" stroke="#003574" stroke-miterlimit="10" stroke-linecap="round"/>
<path d="M86.9052 300.754H78.6813V311.04H86.9052V300.754Z" stroke="#003574" stroke-miterlimit="10" stroke-linecap="round"/>
<path d="M100.278 300.754H92.0543V311.04H100.278V300.754Z" stroke="#003574" stroke-miterlimit="10" stroke-linecap="round"/>
<path d="M113.639 300.754H105.415V311.04H113.639V300.754Z" stroke="#003574" stroke-miterlimit="10" stroke-linecap="round"/>
<path d="M46.8105 322.351H38.5866V332.637H46.8105V322.351Z" stroke="#003574" stroke-miterlimit="10" stroke-linecap="round"/>
<path d="M60.1836 322.351H51.9597V332.637H60.1836V322.351Z" stroke="#003574" stroke-miterlimit="10" stroke-linecap="round"/>
<path d="M73.5444 322.351H65.3205V332.637H73.5444V322.351Z" stroke="#003574" stroke-miterlimit="10" stroke-linecap="round"/>
<path d="M86.9052 322.351H78.6813V332.637H86.9052V322.351Z" stroke="#003574" stroke-miterlimit="10" stroke-linecap="round"/>
<path d="M100.278 322.351H92.0543V332.637H100.278V322.351Z" stroke="#003574" stroke-miterlimit="10" stroke-linecap="round"/>
<path d="M113.639 322.351H105.415V332.637H113.639V322.351Z" stroke="#003574" stroke-miterlimit="10" stroke-linecap="round"/>
<path d="M46.8105 343.936H38.5866V354.222H46.8105V343.936Z" stroke="#003574" stroke-miterlimit="10" stroke-linecap="round"/>
<path d="M60.1836 343.936H51.9597V354.222H60.1836V343.936Z" stroke="#003574" stroke-miterlimit="10" stroke-linecap="round"/>
<path d="M73.5444 343.936H65.3205V354.222H73.5444V343.936Z" stroke="#003574" stroke-miterlimit="10" stroke-linecap="round"/>
<path d="M86.9052 343.936H78.6813V354.222H86.9052V343.936Z" stroke="#003574" stroke-miterlimit="10" stroke-linecap="round"/>
<path d="M100.278 343.936H92.0543V354.222H100.278V343.936Z" stroke="#003574" stroke-miterlimit="10" stroke-linecap="round"/>
<path d="M113.639 343.936H105.415V354.222H113.639V343.936Z" stroke="#003574" stroke-miterlimit="10" stroke-linecap="round"/>
<path d="M46.8105 365.52H38.5866V375.806H46.8105V365.52Z" stroke="#003574" stroke-miterlimit="10" stroke-linecap="round"/>
<path d="M60.1836 365.52H51.9597V375.806H60.1836V365.52Z" stroke="#003574" stroke-miterlimit="10" stroke-linecap="round"/>
<path d="M73.5444 365.52H65.3205V375.806H73.5444V365.52Z" stroke="#003574" stroke-miterlimit="10" stroke-linecap="round"/>
<path d="M86.9052 365.52H78.6813V375.806H86.9052V365.52Z" stroke="#003574" stroke-miterlimit="10" stroke-linecap="round"/>
<path d="M100.278 365.52H92.0543V375.806H100.278V365.52Z" stroke="#003574" stroke-miterlimit="10" stroke-linecap="round"/>
<path d="M113.639 365.52H105.415V375.806H113.639V365.52Z" stroke="#003574" stroke-miterlimit="10" stroke-linecap="round"/>
<path d="M825.009 127.026H816.785V137.312H825.009V127.026Z" stroke="#003574" stroke-miterlimit="10" stroke-linecap="round"/>
<path d="M838.382 127.026H830.158V137.312H838.382V127.026Z" stroke="#003574" stroke-miterlimit="10" stroke-linecap="round"/>
<path d="M851.743 127.026H843.519V137.312H851.743V127.026Z" stroke="#003574" stroke-miterlimit="10" stroke-linecap="round"/>
<path d="M825.009 152.723H816.785V163.009H825.009V152.723Z" stroke="#003574" stroke-miterlimit="10" stroke-linecap="round"/>
<path d="M838.382 152.723H830.158V163.009H838.382V152.723Z" stroke="#003574" stroke-miterlimit="10" stroke-linecap="round"/>
<path d="M851.743 152.723H843.519V163.009H851.743V152.723Z" stroke="#003574" stroke-miterlimit="10" stroke-linecap="round"/>
<path d="M825.009 178.432H816.785V188.718H825.009V178.432Z" stroke="#003574" stroke-miterlimit="10" stroke-linecap="round"/>
<path d="M838.382 178.432H830.158V188.718H838.382V178.432Z" stroke="#003574" stroke-miterlimit="10" stroke-linecap="round"/>
<path d="M851.743 178.432H843.519V188.718H851.743V178.432Z" stroke="#003574" stroke-miterlimit="10" stroke-linecap="round"/>
<path d="M825.009 204.129H816.785V214.415H825.009V204.129Z" stroke="#003574" stroke-miterlimit="10" stroke-linecap="round"/>
<path d="M838.382 204.129H830.158V214.415H838.382V204.129Z" stroke="#003574" stroke-miterlimit="10" stroke-linecap="round"/>
<path d="M851.743 204.129H843.519V214.415H851.743V204.129Z" stroke="#003574" stroke-miterlimit="10" stroke-linecap="round"/>
<path d="M825.009 229.825H816.785V240.111H825.009V229.825Z" stroke="#003574" stroke-miterlimit="10" stroke-linecap="round"/>
<path d="M838.382 229.825H830.158V240.111H838.382V229.825Z" stroke="#003574" stroke-miterlimit="10" stroke-linecap="round"/>
<path d="M851.743 229.825H843.519V240.111H851.743V229.825Z" stroke="#003574" stroke-miterlimit="10" stroke-linecap="round"/>
<path d="M825.009 255.522H816.785V265.808H825.009V255.522Z" stroke="#003574" stroke-miterlimit="10" stroke-linecap="round"/>
<path d="M838.382 255.522H830.158V265.808H838.382V255.522Z" stroke="#003574" stroke-miterlimit="10" stroke-linecap="round"/>
<path d="M851.743 255.522H843.519V265.808H851.743V255.522Z" stroke="#003574" stroke-miterlimit="10" stroke-linecap="round"/>
<path d="M825.009 281.231H816.785V291.517H825.009V281.231Z" stroke="#003574" stroke-miterlimit="10" stroke-linecap="round"/>
<path d="M838.382 281.231H830.158V291.517H838.382V281.231Z" stroke="#003574" stroke-miterlimit="10" stroke-linecap="round"/>
<path d="M851.743 281.231H843.519V291.517H851.743V281.231Z" stroke="#003574" stroke-miterlimit="10" stroke-linecap="round"/>
<path d="M825.009 306.928H816.785V317.214H825.009V306.928Z" stroke="#003574" stroke-miterlimit="10" stroke-linecap="round"/>
<path d="M838.382 306.928H830.158V317.214H838.382V306.928Z" stroke="#003574" stroke-miterlimit="10" stroke-linecap="round"/>
<path d="M851.743 306.928H843.519V317.214H851.743V306.928Z" stroke="#003574" stroke-miterlimit="10" stroke-linecap="round"/>
<path d="M825.009 332.625H816.785V342.911H825.009V332.625Z" stroke="#003574" stroke-miterlimit="10" stroke-linecap="round"/>
<path d="M838.382 332.625H830.158V342.911H838.382V332.625Z" stroke="#003574" stroke-miterlimit="10" stroke-linecap="round"/>
<path d="M737.523 178.432H729.299V188.718H737.523V178.432Z" stroke="#003574" stroke-miterlimit="10" stroke-linecap="round"/>
<path d="M750.884 178.432H742.66V188.718H750.884V178.432Z" stroke="#003574" stroke-miterlimit="10" stroke-linecap="round"/>
<path d="M737.523 204.129H729.299V214.415H737.523V204.129Z" stroke="#003574" stroke-miterlimit="10" stroke-linecap="round"/>
<path d="M750.884 204.129H742.66V214.415H750.884V204.129Z" stroke="#003574" stroke-miterlimit="10" stroke-linecap="round"/>
<path d="M737.523 229.825H729.299V240.111H737.523V229.825Z" stroke="#003574" stroke-miterlimit="10" stroke-linecap="round"/>
<path d="M750.884 229.825H742.66V240.111H750.884V229.825Z" stroke="#003574" stroke-miterlimit="10" stroke-linecap="round"/>
<path d="M737.523 255.522H729.299V265.808H737.523V255.522Z" stroke="#003574" stroke-miterlimit="10" stroke-linecap="round"/>
<path d="M750.884 255.522H742.66V265.808H750.884V255.522Z" stroke="#003574" stroke-miterlimit="10" stroke-linecap="round"/>
<path d="M737.523 281.231H729.299V291.517H737.523V281.231Z" stroke="#003574" stroke-miterlimit="10" stroke-linecap="round"/>
<path d="M750.884 281.231H742.66V291.517H750.884V281.231Z" stroke="#003574" stroke-miterlimit="10" stroke-linecap="round"/>
<path d="M737.523 306.928H729.299V317.214H737.523V306.928Z" stroke="#003574" stroke-miterlimit="10" stroke-linecap="round"/>
<path d="M750.884 306.928H742.66V317.214H750.884V306.928Z" stroke="#003574" stroke-miterlimit="10" stroke-linecap="round"/>
<path d="M737.523 332.625H729.299V342.911H737.523V332.625Z" stroke="#003574" stroke-miterlimit="10" stroke-linecap="round"/>
<path d="M750.884 332.625H742.66V342.911H750.884V332.625Z" stroke="#003574" stroke-miterlimit="10" stroke-linecap="round"/>
<path d="M501.982 204.129H493.758V214.415H501.982V204.129Z" stroke="#003574" stroke-miterlimit="10" stroke-linecap="round"/>
<path d="M515.355 204.129H507.131V214.415H515.355V204.129Z" stroke="#003574" stroke-miterlimit="10" stroke-linecap="round"/>
<path d="M501.982 229.825H493.758V240.111H501.982V229.825Z" stroke="#003574" stroke-miterlimit="10" stroke-linecap="round"/>
<path d="M515.355 229.825H507.131V240.111H515.355V229.825Z" stroke="#003574" stroke-miterlimit="10" stroke-linecap="round"/>
<path d="M501.982 255.522H493.758V265.808H501.982V255.522Z" stroke="#003574" stroke-miterlimit="10" stroke-linecap="round"/>
<path d="M515.355 255.522H507.131V265.808H515.355V255.522Z" stroke="#003574" stroke-miterlimit="10" stroke-linecap="round"/>
<path d="M501.982 281.231H493.758V291.517H501.982V281.231Z" stroke="#003574" stroke-miterlimit="10" stroke-linecap="round"/>
<path d="M515.355 281.231H507.131V291.517H515.355V281.231Z" stroke="#003574" stroke-miterlimit="10" stroke-linecap="round"/>
<path d="M501.982 306.928H493.758V317.214H501.982V306.928Z" stroke="#003574" stroke-miterlimit="10" stroke-linecap="round"/>
<path d="M515.355 306.928H507.131V317.214H515.355V306.928Z" stroke="#003574" stroke-miterlimit="10" stroke-linecap="round"/>
<path d="M501.982 332.625H493.758V342.911H501.982V332.625Z" stroke="#003574" stroke-miterlimit="10" stroke-linecap="round"/>
<path d="M515.355 332.625H507.131V342.911H515.355V332.625Z" stroke="#003574" stroke-miterlimit="10" stroke-linecap="round"/>
<path d="M532.254 204.129H524.03V214.415H532.254V204.129Z" stroke="#003574" stroke-miterlimit="10" stroke-linecap="round"/>
<path d="M545.615 204.129H537.391V214.415H545.615V204.129Z" stroke="#003574" stroke-miterlimit="10" stroke-linecap="round"/>
<path d="M532.254 229.825H524.03V240.111H532.254V229.825Z" stroke="#003574" stroke-miterlimit="10" stroke-linecap="round"/>
<path d="M545.615 229.825H537.391V240.111H545.615V229.825Z" stroke="#003574" stroke-miterlimit="10" stroke-linecap="round"/>
<path d="M532.254 255.522H524.03V265.808H532.254V255.522Z" stroke="#003574" stroke-miterlimit="10" stroke-linecap="round"/>
<path d="M545.615 255.522H537.391V265.808H545.615V255.522Z" stroke="#003574" stroke-miterlimit="10" stroke-linecap="round"/>
<path d="M532.254 281.231H524.03V291.517H532.254V281.231Z" stroke="#003574" stroke-miterlimit="10" stroke-linecap="round"/>
<path d="M545.615 281.231H537.391V291.517H545.615V281.231Z" stroke="#003574" stroke-miterlimit="10" stroke-linecap="round"/>
<path d="M532.254 306.928H524.03V317.214H532.254V306.928Z" stroke="#003574" stroke-miterlimit="10" stroke-linecap="round"/>
<path d="M545.615 306.928H537.391V317.214H545.615V306.928Z" stroke="#003574" stroke-miterlimit="10" stroke-linecap="round"/>
<path d="M532.254 332.625H524.03V342.911H532.254V332.625Z" stroke="#003574" stroke-miterlimit="10" stroke-linecap="round"/>
<path d="M545.615 332.625H537.391V342.911H545.615V332.625Z" stroke="#003574" stroke-miterlimit="10" stroke-linecap="round"/>
<path d="M322.178 127.026H313.954V137.312H322.178V127.026Z" stroke="#003574" stroke-miterlimit="10" stroke-linecap="round"/>
<path d="M335.539 127.026H327.315V137.312H335.539V127.026Z" stroke="#003574" stroke-miterlimit="10" stroke-linecap="round"/>
<path d="M322.178 152.723H313.954V163.009H322.178V152.723Z" stroke="#003574" stroke-miterlimit="10" stroke-linecap="round"/>
<path d="M335.539 152.723H327.315V163.009H335.539V152.723Z" stroke="#003574" stroke-miterlimit="10" stroke-linecap="round"/>
<path d="M322.178 178.432H313.954V188.718H322.178V178.432Z" stroke="#003574" stroke-miterlimit="10" stroke-linecap="round"/>
<path d="M335.539 178.432H327.315V188.718H335.539V178.432Z" stroke="#003574" stroke-miterlimit="10" stroke-linecap="round"/>
<path d="M322.178 204.129H313.954V214.415H322.178V204.129Z" stroke="#003574" stroke-miterlimit="10" stroke-linecap="round"/>
<path d="M335.539 204.129H327.315V214.415H335.539V204.129Z" stroke="#003574" stroke-miterlimit="10" stroke-linecap="round"/>
<path d="M322.178 229.825H313.954V240.111H322.178V229.825Z" stroke="#003574" stroke-miterlimit="10" stroke-linecap="round"/>
<path d="M335.539 229.825H327.315V240.111H335.539V229.825Z" stroke="#003574" stroke-miterlimit="10" stroke-linecap="round"/>
<path d="M322.178 255.522H313.954V265.808H322.178V255.522Z" stroke="#003574" stroke-miterlimit="10" stroke-linecap="round"/>
<path d="M335.539 255.522H327.315V265.808H335.539V255.522Z" stroke="#003574" stroke-miterlimit="10" stroke-linecap="round"/>
<path d="M322.178 281.231H313.954V291.517H322.178V281.231Z" stroke="#003574" stroke-miterlimit="10" stroke-linecap="round"/>
<path d="M335.539 281.231H327.315V291.517H335.539V281.231Z" stroke="#003574" stroke-miterlimit="10" stroke-linecap="round"/>
<path d="M322.178 306.928H313.954V317.214H322.178V306.928Z" stroke="#003574" stroke-miterlimit="10" stroke-linecap="round"/>
<path d="M335.539 306.928H327.315V317.214H335.539V306.928Z" stroke="#003574" stroke-miterlimit="10" stroke-linecap="round"/>
<path d="M322.178 332.625H313.954V342.911H322.178V332.625Z" stroke="#003574" stroke-miterlimit="10" stroke-linecap="round"/>
<path d="M335.539 332.625H327.315V342.911H335.539V332.625Z" stroke="#003574" stroke-miterlimit="10" stroke-linecap="round"/>
<path d="M851.743 332.625H843.519V342.911H851.743V332.625Z" stroke="#003574" stroke-miterlimit="10" stroke-linecap="round"/>
<path d="M851.426 528.675H-32" stroke="#263238" stroke-miterlimit="10" stroke-linecap="round"/>
<path d="M785.206 108.337H320.762V528.795H785.206V108.337Z" fill="#183253" stroke="#0067E0" stroke-miterlimit="10" stroke-linecap="round"/>
<path d="M373.436 109.216H352.169V527.746H373.436V109.216Z" fill="#CCE4FF" stroke="#0067E0" stroke-miterlimit="10" stroke-linecap="round"/>
<path d="M393.691 109.216H372.424V527.746H393.691V109.216Z" fill="#2066B9" stroke="#0067E0" stroke-miterlimit="10" stroke-linecap="round"/>
<path d="M413.934 109.216H392.666V527.746H413.934V109.216Z" fill="#CCE4FF" stroke="#0067E0" stroke-miterlimit="10" stroke-linecap="round"/>
<path d="M434.189 109.216H412.921V527.746H434.189V109.216Z" fill="#2066B9" stroke="#0067E0" stroke-miterlimit="10" stroke-linecap="round"/>
<path d="M454.431 109.216H433.164V527.746H454.431V109.216Z" fill="#CCE4FF" stroke="#0067E0" stroke-miterlimit="10" stroke-linecap="round"/>
<path d="M474.686 109.216H453.418V527.746H474.686V109.216Z" fill="#2066B9" stroke="#0067E0" stroke-miterlimit="10" stroke-linecap="round"/>
<path d="M494.941 109.216H473.673V527.746H494.941V109.216Z" fill="#CCE4FF" stroke="#0067E0" stroke-miterlimit="10" stroke-linecap="round"/>
<path d="M515.183 109.216H493.916V527.746H515.183V109.216Z" fill="#2066B9" stroke="#0067E0" stroke-miterlimit="10" stroke-linecap="round"/>
<path d="M535.438 109.216H514.171V527.746H535.438V109.216Z" fill="#CCE4FF" stroke="#0067E0" stroke-miterlimit="10" stroke-linecap="round"/>
<path d="M555.693 109.216H534.425V527.746H555.693V109.216Z" fill="#2066B9" stroke="#0067E0" stroke-miterlimit="10" stroke-linecap="round"/>
<path d="M575.935 109.216H554.668V527.746H575.935V109.216Z" fill="#CCE4FF" stroke="#0067E0" stroke-miterlimit="10" stroke-linecap="round"/>
<path d="M596.19 109.216H574.923V527.746H596.19V109.216Z" fill="#2066B9" stroke="#0067E0" stroke-miterlimit="10" stroke-linecap="round"/>
<path d="M616.433 109.216H595.165V527.746H616.433V109.216Z" fill="#CCE4FF" stroke="#0067E0" stroke-miterlimit="10" stroke-linecap="round"/>
<path d="M636.688 109.216H615.42V527.746H636.688V109.216Z" fill="#2066B9" stroke="#0067E0" stroke-miterlimit="10" stroke-linecap="round"/>
<path d="M656.942 109.216H635.675V527.746H656.942V109.216Z" fill="#CCE4FF" stroke="#0067E0" stroke-miterlimit="10" stroke-linecap="round"/>
<path d="M677.185 109.216H655.917V527.746H677.185V109.216Z" fill="#2066B9" stroke="#0067E0" stroke-miterlimit="10" stroke-linecap="round"/>
<path d="M697.44 109.216H676.172V527.746H697.44V109.216Z" fill="#CCE4FF" stroke="#0067E0" stroke-miterlimit="10" stroke-linecap="round"/>
<path d="M717.682 109.216H696.415V527.746H717.682V109.216Z" fill="#2066B9" stroke="#0067E0" stroke-miterlimit="10" stroke-linecap="round"/>
<path d="M737.937 109.216H716.67V527.746H737.937V109.216Z" fill="#C9C9C9" stroke="#0067E0" stroke-miterlimit="10" stroke-linecap="round"/>
<path d="M372.607 145.186C372.607 145.186 376.06 208.794 372.997 252.915L372.607 145.186Z" fill="#263238"/>
<path d="M412.897 158.73C412.897 158.73 420.218 224.326 412.518 260.102L412.897 158.73Z" fill="#263238"/>
<path d="M393.447 289.727V401.544C393.447 401.544 401.622 350.126 393.447 289.727Z" fill="#263238"/>
<path d="M453.382 128.861V231.599C453.382 231.599 461.545 166.686 453.382 128.861Z" fill="#263238"/>
<path d="M433.224 240.054V356.397C433.224 356.397 439.752 269.412 433.224 240.054Z" fill="#263238"/>
<path d="M473.539 135.913V298.769C473.539 298.769 484.435 227.914 473.539 135.913Z" fill="#263238"/>
<path d="M474.625 513.543V342.231C474.625 342.231 481.714 449.679 474.625 513.543Z" fill="#263238"/>
<path d="M554.717 419.846V248.522C554.717 248.522 561.806 355.983 554.717 419.846Z" fill="#263238"/>
<path d="M534.01 369.6V198.288C534.01 198.288 541.1 305.748 534.01 369.6Z" fill="#263238"/>
<path d="M575.423 309.214V137.89C575.423 137.89 582.512 245.362 575.423 309.214Z" fill="#263238"/>
<path d="M595.58 484.759V313.435C595.58 313.435 602.669 420.896 595.58 484.759Z" fill="#263238"/>
<path d="M616.286 405.729V234.381C616.286 234.381 623.376 341.865 616.286 405.729Z" fill="#263238"/>
<path d="M655.515 462.174V290.862C655.515 290.862 662.604 398.31 655.515 462.174Z" fill="#263238"/>
<path d="M635.907 291.729V120.393C635.907 120.393 642.984 227.841 635.907 291.729Z" fill="#263238"/>
<path d="M676.221 345.892V174.592C676.221 174.592 683.298 282.04 676.221 345.892Z" fill="#263238"/>
<path d="M716.535 489.835V318.572C716.535 318.572 723.625 425.947 716.535 489.835Z" fill="#263238"/>
<path d="M696.403 512.982V341.67C696.403 341.67 703.467 449.13 696.403 512.982Z" fill="#263238"/>
<path d="M696.403 280.418V109.106C696.403 109.106 703.467 216.554 696.403 280.418Z" fill="#263238"/>
<path d="M717.145 332.348V161.036C717.145 161.036 724.161 268.545 717.145 332.348Z" fill="#263238"/>
<path d="M514.952 523.146V351.822C514.952 351.822 522.029 459.282 514.952 523.146Z" fill="#263238"/>
<path d="M372.192 455.963V284.652C372.192 284.652 379.281 392.1 372.192 455.963Z" fill="#263238"/>
<path d="M413.604 516.361V345.05C413.604 345.05 420.645 452.498 413.604 516.361Z" fill="#263238"/>
<path d="M514.402 124.907V338.839C514.402 338.839 522.028 212.125 514.402 124.907Z" fill="#263238"/>
<path d="M330.828 108.337H275.31V528.795H330.828V108.337Z" fill="white" stroke="#0067E0" stroke-miterlimit="10" stroke-linecap="round"/>
<path d="M812.965 108.337H757.448V528.795H812.965V108.337Z" fill="white" stroke="#0067E0" stroke-miterlimit="10" stroke-linecap="round"/>
<path d="M822.251 48H265V112.937H822.251V48Z" fill="#183253" stroke="#0067E0" stroke-miterlimit="10" stroke-linecap="round"/>
<path d="M544.773 153.144C606.144 153.144 655.894 121.962 655.894 83.4971C655.894 45.0321 606.144 13.8499 544.773 13.8499C483.403 13.8499 433.653 45.0321 433.653 83.4971C433.653 121.962 483.403 153.144 544.773 153.144Z" fill="#2066B9" stroke="#003574" stroke-miterlimit="10" stroke-linecap="round"/>
<path d="M544.773 146.653C600.429 146.653 645.547 118.377 645.547 83.4971C645.547 48.6171 600.429 20.3412 544.773 20.3412C489.118 20.3412 444 48.6171 444 83.4971C444 118.377 489.118 146.653 544.773 146.653Z" fill="#75AFF4" stroke="#003574" stroke-miterlimit="10" stroke-linecap="round"/>
<path d="M544.773 140.772C595.24 140.772 636.152 115.129 636.152 83.4971C636.152 51.8652 595.24 26.2225 544.773 26.2225C494.306 26.2225 453.395 51.8652 453.395 83.4971C453.395 115.129 494.306 140.772 544.773 140.772Z" fill="white" stroke="#003574" stroke-miterlimit="10" stroke-linecap="round"/>
<path d="M503.007 76.6032C498.37 76.6032 494.71 75.7247 492.026 73.9798C489.348 72.2629 487.34 69.6784 486.34 66.6588C485.202 63.1578 484.654 59.4922 484.717 55.8115V33.336C484.638 29.5505 485.187 25.7781 486.34 22.1715C487.331 19.1725 489.343 16.6163 492.026 14.9481C494.734 13.2521 498.395 12.398 503.007 12.398C507.619 12.398 511.011 13.1423 513.561 14.6431C516.046 16.0598 517.958 18.2996 518.967 20.9757C520.074 24.0199 520.612 27.242 520.553 30.4809V35.7276H508.217V29.8586C508.218 28.5049 508.141 27.1523 507.985 25.8076C507.88 24.6692 507.433 23.5892 506.704 22.7084C506.228 22.2606 505.662 21.92 505.043 21.7095C504.424 21.499 503.767 21.4236 503.117 21.4882C502.456 21.4321 501.79 21.5114 501.161 21.7212C500.532 21.931 499.952 22.2669 499.456 22.7084C498.648 23.6024 498.133 24.7222 497.98 25.9174C497.765 27.3634 497.663 28.8239 497.675 30.2856V58.7155C497.657 60.2596 497.8 61.8013 498.102 63.3156C498.272 64.4792 498.826 65.5527 499.676 66.366C500.656 67.1251 501.88 67.4985 503.117 67.4153C503.756 67.4789 504.401 67.4027 505.008 67.192C505.615 66.9814 506.169 66.6412 506.631 66.1952C507.372 65.2815 507.826 64.1693 507.936 62.9983C508.126 61.5869 508.22 60.1641 508.217 58.7399V52.6391H520.577V57.8248C520.633 61.124 520.108 64.4073 519.028 67.5251C518.046 70.2768 516.168 72.6188 513.696 74.1751C511.15 75.7938 507.587 76.6032 503.007 76.6032Z" fill="#263238" stroke="#003574" stroke-miterlimit="10" stroke-linecap="round"/>
<path d="M525.3 75.7491L537.428 13.1667H551.533L563.588 75.7491H551.765L549.52 61.9978H539.637L537.196 75.7491H525.3ZM540.796 54.2009H548.288L544.505 28.9312L540.796 54.2009Z" fill="#263238" stroke="#003574" stroke-miterlimit="10" stroke-linecap="round"/>
<path d="M569.457 75.7491V13.1667H585.685C589.355 13.1019 593.012 13.5957 596.533 14.6309C599.368 15.4621 601.826 17.2519 603.488 19.6946C605.115 22.1349 605.928 25.4822 605.928 29.7365C605.956 32.0353 605.735 34.3304 605.269 36.5817C604.881 38.454 604.09 40.2193 602.951 41.7552C601.724 43.3114 600.113 44.5223 598.278 45.2693L606.929 75.7735H593.873L586.686 47.4168H582.208V75.7491H569.457ZM582.208 39.8273H585.869C587.554 39.915 589.234 39.5706 590.749 38.8268C591.934 38.1511 592.825 37.0597 593.251 35.7642C593.79 34.1363 594.042 32.4269 593.995 30.7127C594.138 28.3993 593.586 26.0959 592.409 24.0994C591.347 22.5863 589.383 21.8176 586.491 21.8176H582.171L582.208 39.8273Z" fill="#263238" stroke="#003574" stroke-miterlimit="10" stroke-linecap="round"/>
<path d="M466.536 144.03L458.422 81.4473H469.245L473.577 119.687L479.055 81.5205H487.596L493.356 119.565L497.675 81.3985H508.339L500.31 143.981H489.488L483.387 104.35L477.591 143.981L466.536 144.03Z" fill="#263238" stroke="#003574" stroke-miterlimit="10" stroke-linecap="round"/>
<path d="M510.426 144.03L522.554 81.4473H536.696L548.751 144.03H536.928L534.683 130.278H524.799L522.359 144.03H510.426ZM525.958 122.469H533.45L529.668 97.2118L525.958 122.469Z" fill="#263238" stroke="#003574" stroke-miterlimit="10" stroke-linecap="round"/>
<path d="M570.848 144.884C567.5 145.002 564.175 144.272 561.185 142.761C558.59 141.318 556.541 139.063 555.352 136.343C553.902 132.86 553.132 129.133 553.083 125.361L564.064 123.506C564.11 125.68 564.38 127.843 564.87 129.961C565.161 131.411 565.86 132.749 566.883 133.817C567.33 134.241 567.857 134.572 568.433 134.792C569.009 135.012 569.622 135.116 570.238 135.098C570.888 135.175 571.546 135.071 572.14 134.798C572.735 134.524 573.242 134.092 573.606 133.548C574.211 132.464 574.518 131.239 574.497 129.998C574.579 127.651 573.913 125.339 572.593 123.397C571.151 121.413 569.48 119.607 567.615 118.016L561.124 112.379C558.872 110.501 556.954 108.257 555.45 105.741C553.898 102.956 553.134 99.8004 553.241 96.614C553.241 91.4648 554.75 87.5115 557.768 84.7539C560.786 81.9963 564.918 80.6216 570.165 80.6297C572.825 80.5291 575.471 81.0558 577.889 82.1672C579.787 83.1055 581.4 84.5334 582.562 86.3035C583.669 88.027 584.455 89.937 584.88 91.9407C585.314 93.9495 585.587 95.9895 585.698 98.0415L574.802 99.6644C574.719 97.9854 574.552 96.3117 574.302 94.6495C574.144 93.4119 573.655 92.2398 572.886 91.2574C572.488 90.8324 572 90.5021 571.457 90.291C570.914 90.0798 570.331 89.9931 569.75 90.0372C569.099 89.993 568.449 90.1235 567.865 90.4153C567.282 90.707 566.787 91.1494 566.431 91.6967C565.717 92.7835 565.34 94.0568 565.345 95.3572C565.263 97.2854 565.792 99.1904 566.858 100.799C568.059 102.436 569.448 103.926 570.995 105.241L577.328 110.805C579.941 113.058 582.218 115.676 584.087 118.577C586.057 121.809 587.04 125.544 586.918 129.327C586.956 132.109 586.262 134.853 584.905 137.282C583.598 139.626 581.657 141.555 579.304 142.846C576.71 144.247 573.796 144.949 570.848 144.884Z" fill="#263238" stroke="#003574" stroke-miterlimit="10" stroke-linecap="round"/>
<path d="M592.787 144.03V81.4473H605.538V107.181H616.592V81.4473H629.343V144.03H616.592V116.295H605.538V144.03H592.787Z" fill="#263238" stroke="#003574" stroke-miterlimit="10" stroke-linecap="round"/>
<path d="M506.509 73.9798C501.872 73.9798 498.2 73.1135 495.527 71.3565C492.851 69.6411 490.847 67.0556 489.854 64.0355C488.71 60.5316 488.162 56.861 488.231 53.176V30.7127C488.133 26.9168 488.669 23.1312 489.817 19.5115C490.807 16.5154 492.814 13.96 495.491 12.2881C498.2 10.588 501.86 9.73799 506.472 9.73799C510.95 9.73799 514.464 10.4945 517.014 11.9831C519.503 13.395 521.416 15.6364 522.42 18.3158C523.532 21.3587 524.07 24.5816 524.006 27.8209V33.0798H511.682V27.2352C511.683 25.8815 511.606 24.5289 511.451 23.1842C511.363 22.0561 510.938 20.9804 510.23 20.0972C509.756 19.6474 509.189 19.3055 508.57 19.0949C507.951 18.8843 507.294 18.81 506.643 18.877C505.982 18.821 505.317 18.9003 504.687 19.11C504.058 19.3198 503.478 19.6557 502.983 20.0972C502.174 20.9892 501.662 22.1107 501.518 23.3063C501.299 24.7478 501.193 26.2042 501.201 27.6623V56.1166C501.183 57.6566 501.326 59.1942 501.628 60.7044C501.825 61.8595 502.395 62.9181 503.251 63.7182C504.231 64.4774 505.455 64.8507 506.692 64.7676C507.331 64.8279 507.975 64.7502 508.582 64.5396C509.188 64.3291 509.742 63.9907 510.206 63.5474C510.951 62.6303 511.409 61.5142 511.524 60.3384C511.703 58.9301 511.793 57.5118 511.792 56.0922V50.0157H524.079V55.2014C524.139 58.497 523.615 61.7772 522.53 64.8896C521.548 67.6413 519.67 69.9832 517.197 71.5395C514.651 73.1745 511.089 73.988 506.509 73.9798Z" fill="#75AFF4" stroke="#003574" stroke-miterlimit="10" stroke-linecap="round"/>
<path d="M528.752 73.1989L540.881 10.6165H555.023L567.078 73.1989H555.254L553.022 59.4476H543.126L540.686 73.1989H528.752ZM544.285 51.6385H551.777L547.995 26.3689L544.285 51.6385Z" fill="#75AFF4" stroke="#003574" stroke-miterlimit="10" stroke-linecap="round"/>
<path d="M572.947 73.1989V10.5555H589.175C592.846 10.4799 596.508 10.9613 600.035 11.9831C602.899 12.8013 605.383 14.6029 607.051 17.0712C608.674 19.5115 609.491 22.8426 609.491 27.1254C609.519 29.4202 609.298 31.7112 608.832 33.9583C608.446 35.8313 607.655 37.5971 606.514 39.1318C605.293 40.695 603.681 41.9074 601.841 42.6459L610.492 73.1501H597.436L590.249 44.7934H585.698V73.1989H572.947ZM585.698 37.204H589.358C591.044 37.2916 592.724 36.9472 594.239 36.2034C595.426 35.533 596.321 34.446 596.753 33.153C597.282 31.5187 597.529 29.8065 597.485 28.0893C597.634 25.7793 597.081 23.4781 595.898 21.4882C594.841 19.9671 592.872 19.2065 589.993 19.2065H585.698V37.204Z" fill="#75AFF4" stroke="#003574" stroke-miterlimit="10" stroke-linecap="round"/>
<path d="M470.038 141.406L461.924 78.8239H472.735L477.066 117.125L482.594 78.9093H491.135L496.857 116.991L501.189 78.8239H511.878L503.849 141.406H493.026L486.925 101.775L481.13 141.406H470.038Z" fill="#75AFF4" stroke="#003574" stroke-miterlimit="10" stroke-linecap="round"/>
<path d="M513.915 141.406L526.056 78.8239H540.185L552.241 141.406H540.417L538.184 127.655H528.289L525.849 141.406H513.915ZM529.448 119.858H536.94L533.157 94.5884L529.448 119.858Z" fill="#75AFF4" stroke="#003574" stroke-miterlimit="10" stroke-linecap="round"/>
<path d="M574.338 142.26C570.993 142.378 567.673 141.647 564.687 140.137C562.086 138.702 560.035 136.445 558.854 133.719C557.4 130.238 556.625 126.51 556.573 122.738L567.554 120.883C567.605 123.056 567.875 125.219 568.359 127.338C568.654 128.791 569.352 130.131 570.373 131.206C571.293 132.036 572.502 132.473 573.74 132.426C574.388 132.503 575.045 132.399 575.637 132.126C576.23 131.852 576.735 131.42 577.096 130.876C577.701 129.792 578.008 128.567 577.986 127.326C578.068 124.981 577.406 122.67 576.095 120.724C574.645 118.748 572.97 116.946 571.105 115.356L564.601 109.804C562.347 107.929 560.429 105.685 558.927 103.166C557.382 100.383 556.619 97.2335 556.719 94.0516C556.719 88.9025 558.228 84.9492 561.246 82.1916C564.264 79.434 568.396 78.0633 573.643 78.0796C576.321 77.9603 578.989 78.4788 581.427 79.5926C583.329 80.5307 584.946 81.9584 586.113 83.729C587.216 85.4575 587.997 87.3715 588.419 89.3784C588.86 91.3858 589.133 93.4265 589.236 95.4792L578.34 97.102C578.264 95.4186 578.097 93.7404 577.84 92.0749C577.692 90.8355 577.211 89.6592 576.449 88.6707C576.053 88.2459 575.567 87.9157 575.026 87.7045C574.486 87.4932 573.904 87.4064 573.325 87.4505C572.667 87.3876 572.004 87.5041 571.407 87.7877C570.81 88.0713 570.301 88.5114 569.933 89.0611C569.223 90.149 568.849 91.4224 568.86 92.7216C568.777 94.6481 569.302 96.5517 570.36 98.1636C571.561 99.8043 572.949 101.299 574.497 102.617L580.829 108.169C583.443 110.423 585.72 113.04 587.589 115.941C589.559 119.181 590.538 122.926 590.408 126.716C590.446 129.496 589.756 132.239 588.407 134.671C587.1 137.015 585.159 138.944 582.806 140.235C580.206 141.63 577.288 142.328 574.338 142.26Z" fill="#75AFF4" stroke="#003574" stroke-miterlimit="10" stroke-linecap="round"/>
<path d="M596.289 141.406V78.8239H609.027V104.557H620.082V78.8239H632.833V141.406H620.082V113.672H609.027V141.406H596.289Z" fill="#75AFF4" stroke="#003574" stroke-miterlimit="10" stroke-linecap="round"/>
<path d="M158.566 496.048C158.566 496.048 150.183 502.149 152.062 504.858C153.941 507.566 165.252 514.277 168.754 518.28C172.256 522.282 179.736 526.345 187.057 527.687C194.378 529.029 203.2 530.127 202.663 525.003C202.126 519.878 193.243 518.28 190.827 515.315C188.411 512.35 184.824 504.553 184.824 504.553L162.568 491.363L158.566 496.048Z" fill="white" stroke="#263238" stroke-miterlimit="10" stroke-linecap="round"/>
<path d="M251.665 347.737C251.665 347.737 247.162 420.617 245.198 430.464C243.233 440.311 184.873 504.589 184.873 504.589C184.873 504.589 173.061 505.236 169.12 503.271C165.437 501.138 161.925 498.723 158.615 496.048C158.615 496.048 167.156 484.237 169.779 482.272C172.403 480.308 178.967 477.026 180.932 475.708C182.896 474.39 196.025 448.144 196.025 448.144L202.968 352.129L251.665 347.737Z" fill="#263238" stroke="#263238" stroke-miterlimit="10" stroke-linecap="round"/>
<path d="M229.885 506.053L235.803 516.01C236.608 517.352 252.214 524.881 252.214 526.503C252.214 528.126 250.066 530.542 248.724 531.079C247.382 531.616 227.981 531.884 222.076 531.079C216.17 530.274 211.851 528.114 207.543 527.04C203.236 525.967 200.222 527.309 200.003 522.465C199.783 517.621 202.053 508.189 202.053 508.189C202.053 508.189 204.31 508.469 211.814 506.053C219.318 503.638 229.885 506.053 229.885 506.053Z" fill="white" stroke="#263238" stroke-miterlimit="10" stroke-linecap="round"/>
<path d="M187.069 352.959C187.069 352.959 193.511 431.404 196.83 437.321C200.149 443.239 204.054 498.33 204.054 498.33C204.054 498.33 197.806 504.431 201.089 507.688C204.371 510.946 201.345 511.874 201.345 511.874C201.345 511.874 211.277 509.494 214.559 508.213C217.842 506.932 230.91 507.237 230.91 507.237C230.91 507.237 234.9 499.684 235.558 494.437C236.217 489.191 232.276 472.121 232.276 470.156C232.276 468.192 234.9 377.594 234.9 377.594L250.957 358.071L187.069 352.959Z" fill="#263238" stroke="#263238" stroke-miterlimit="10" stroke-linecap="round"/>
<path d="M223.674 210.09L222.893 217.093C215.606 218.591 208.171 219.242 200.735 219.033C188.667 218.643 187.081 223.914 187.081 223.914C187.081 223.914 152.075 273.734 153.636 277.601C155.198 281.469 168.034 285.191 168.034 285.191L189.448 266.51L187.106 352.935C187.106 352.935 193.731 361.11 213.193 361.891C232.654 362.672 248.578 359.56 250.957 357.998C253.336 356.436 257.192 282.47 257.192 282.47L270.931 282.323C270.931 282.323 268.491 248.988 266.917 240.032C265.343 231.076 259.913 226.806 250.957 223.682C242.001 220.559 238.889 217.069 238.889 217.069L231.495 207.308C228.635 207.241 225.85 208.232 223.674 210.09Z" fill="white" stroke="#263238" stroke-miterlimit="10" stroke-linecap="round"/>
<path d="M265.159 333.975C274.658 323.43 275.365 307.667 275.365 307.667L272.354 283.046L258.613 282.917L258.91 305.188C257.296 309.633 256.687 314.381 257.127 319.089C257.542 322.338 257.511 325.629 257.033 328.869L256.935 328.874C256.935 328.874 253.563 336.506 253.278 337.816C252.993 339.126 260.094 341.708 262.056 342.081C264.019 342.454 266.687 342.313 266.707 340.614C266.727 338.914 268.536 338.464 266.867 336.94C266.398 336.586 266.005 336.141 265.711 335.632C265.417 335.122 265.23 334.559 265.159 333.975Z" fill="white" stroke="#263238" stroke-miterlimit="10" stroke-linecap="round"/>
<path d="M213.156 361.915C232.679 362.696 248.541 359.585 250.92 358.023C253.3 356.461 257.155 282.494 257.155 282.494L274.677 283.422C274.677 283.422 268.442 249.013 266.88 240.057C265.318 231.101 259.876 226.83 250.92 223.707C241.964 220.583 238.853 217.093 238.853 217.093L231.459 207.332C228.617 207.261 225.848 208.233 223.674 210.065L222.893 217.069C215.607 218.575 208.172 219.234 200.735 219.033C188.667 218.643 187.081 223.914 187.081 223.914C187.081 223.914 169.474 241.338 161.689 256.078L181.786 273.233L189.46 266.535L187.118 352.959C187.118 352.959 193.694 361.159 213.156 361.915Z" fill="white" stroke="#263238" stroke-miterlimit="10" stroke-linecap="round"/>
<path d="M260.485 304.017C260.485 304.017 267.462 300.545 272.501 304.348" stroke="#263238" stroke-miterlimit="10" stroke-linecap="round"/>
<path d="M260.999 333.827C260.417 333.293 259.705 332.921 258.934 332.748C258.164 332.574 257.361 332.606 256.606 332.838" stroke="#263238" stroke-miterlimit="10" stroke-linecap="round"/>
<path d="M258.381 326.097C261.554 324.184 267.103 324.956 269.493 327.188C271.135 328.897 272.079 331.158 272.141 333.527C272.202 335.897 271.377 338.204 269.825 339.996C267.453 342.645 263.964 343.663 260.704 341.758C257.445 339.853 255.311 339.457 255.069 336.253C254.871 333.489 255.344 330.717 256.446 328.174C256.86 327.298 257.537 326.572 258.381 326.097Z" fill="#2066B9" stroke="#263238" stroke-miterlimit="10" stroke-linecap="round"/>
<path d="M202.48 252.222L189.412 266.535L202.48 260.263" stroke="#263238" stroke-miterlimit="10" stroke-linecap="round"/>
<path d="M256.692 278.407L257.156 254.784" stroke="#263238" stroke-miterlimit="10" stroke-linecap="round"/>
<path d="M256.728 258.359C256.728 261.154 253.678 263.411 249.908 263.411C246.137 263.411 243.099 261.154 243.099 258.359C243.099 255.565 246.15 253.308 249.908 253.308C253.666 253.308 256.728 255.577 256.728 258.359Z" fill="#398CED" stroke="#263238" stroke-miterlimit="10" stroke-linecap="round"/>
<path d="M253.41 258.359C253.41 259.787 251.836 260.946 249.908 260.946C247.98 260.946 246.418 259.726 246.418 258.359C246.418 256.993 247.98 255.773 249.908 255.773C251.836 255.773 253.41 256.932 253.41 258.359Z" fill="white" stroke="#263238" stroke-miterlimit="10" stroke-linecap="round"/>
<path d="M311.052 383.274L384.193 388.1L385.993 505.388L308.875 387.322L311.052 383.274Z" fill="white" stroke="#263238" stroke-miterlimit="10" stroke-linecap="round"/>
<path d="M345.317 427.106L348.079 430.525" stroke="#263238" stroke-miterlimit="10" stroke-linecap="round"/>
<path d="M316.264 391.268L342.026 423.054" stroke="#263238" stroke-miterlimit="10" stroke-linecap="round"/>
<path d="M322.539 389.42L338.643 391.956" stroke="#263238" stroke-miterlimit="10" stroke-linecap="round"/>
<path d="M358.347 407.187L362.635 409.595" stroke="#263238" stroke-miterlimit="10" stroke-linecap="round"/>
<path d="M328.629 396.439L352.24 410.766" stroke="#263238" stroke-miterlimit="10" stroke-linecap="round"/>
<path d="M304.464 379.161L311.293 385.489" stroke="#263238" stroke-width="5" stroke-miterlimit="10" stroke-linecap="round"/>
<path d="M230.797 310.793L304.464 379.161" stroke="#263238" stroke-width="3" stroke-miterlimit="10" stroke-linecap="round"/>
<path d="M193.975 309.655C193.975 309.655 176.393 309.07 174.636 330.166C172.879 351.263 195.647 496.109 151.526 529.615C111.565 559.936 72.3733 554.982 47.1524 543.293C26.5926 533.751 90.1877 527.516 119.374 535.13C140.507 540.645 97.9846 553.311 55.7912 553.433C7.30172 553.542 -18.0656 536.35 -30.3649 535.13" stroke="#263238" stroke-width="3" stroke-miterlimit="10" stroke-linecap="round"/>
<path d="M206.054 310.74L217.224 307.044L227.36 315.215C227.86 315.619 228.495 315.82 229.136 315.776C229.778 315.732 230.38 315.447 230.82 314.979L236.024 309.498C236.263 309.254 236.45 308.964 236.575 308.646C236.7 308.329 236.759 307.989 236.751 307.648C236.742 307.307 236.664 306.971 236.523 306.66C236.382 306.349 236.18 306.07 235.929 305.838C232.337 302.416 224.02 295.162 216.861 293.517C207.42 291.419 198.805 298.087 198.805 298.087L206.054 310.74Z" fill="#263238" stroke="#263238" stroke-miterlimit="10" stroke-linecap="round"/>
<path d="M165.674 270.166L197.428 293.485C197.428 293.485 203.312 294.894 205.301 296.784C207.291 298.673 215.272 304.702 212.966 307.106C210.661 309.509 213.397 308.645 210.697 309.496C207.997 310.347 206.057 310.837 206.057 310.837C206.057 310.837 199.516 313.729 195.615 313.44C191.714 313.15 185.249 304.371 185.198 302.42C185.148 300.468 152.774 283.403 151.542 281.091C150.311 278.78 160.846 263.334 160.846 263.334" fill="white"/>
<path d="M165.674 270.166L197.428 293.485C197.428 293.485 203.312 294.894 205.301 296.784C207.291 298.673 215.272 304.702 212.966 307.106C210.661 309.509 213.397 308.645 210.697 309.496C207.997 310.347 206.057 310.837 206.057 310.837C206.057 310.837 199.516 313.729 195.615 313.44C191.714 313.15 185.249 304.371 185.198 302.42C185.148 300.468 152.774 283.403 151.542 281.091C150.311 278.78 160.846 263.334 160.846 263.334" stroke="#263238" stroke-miterlimit="10" stroke-linecap="round"/>
<path d="M186.399 281.468L173.28 297.066L185.196 302.322C185.196 302.322 187.797 308.48 190.659 311.53C193.521 314.58 193.536 315.617 196.304 315.545C199.073 315.474 208.421 312.106 208.421 312.106C208.421 312.106 209.146 312.759 213.246 309.906C217.346 307.053 215.215 305.339 213.41 302.578C211.605 299.818 202.771 293.834 200.311 292.165C197.851 290.496 196.763 289.486 195.708 288.818C194.653 288.15 186.399 281.468 186.399 281.468Z" fill="#2066B9" stroke="#263238" stroke-miterlimit="10" stroke-linecap="round"/>
<path d="M250.92 223.707C241.964 220.595 238.853 217.093 238.853 217.093L231.459 207.332C228.617 207.261 225.848 208.233 223.674 210.065L222.893 217.069C222.893 217.069 222.063 217.252 220.648 217.508C222.466 221.401 229.348 237.031 239.634 237.311C246.955 237.543 251.543 230.479 254.032 224.878C253.044 224.5 251.982 224.085 250.92 223.707Z" fill="white" stroke="#263238" stroke-miterlimit="10" stroke-linecap="round"/>
<path d="M259.876 207.747L256.375 218.265L252.092 217.044C252.092 217.044 250.872 226.391 248.59 227.55C246.308 228.709 243.917 229.112 239.243 225.61C234.57 222.108 229.897 217.825 229.897 213.933C229.897 210.041 232.24 195.631 234.57 192.519C236.901 189.408 259.876 207.747 259.876 207.747Z" fill="white" stroke="#263238" stroke-miterlimit="10" stroke-linecap="round"/>
<path d="M251.884 209.126C251.689 210.273 251.018 211.127 250.371 211.017C249.725 210.907 249.359 209.882 249.554 208.735C249.749 207.588 250.42 206.722 251.067 206.832C251.714 206.941 252.08 207.966 251.884 209.126Z" fill="#263238"/>
<path d="M243.526 196.851C243.526 196.851 241.964 201.524 237.682 201.914C233.399 202.305 230.678 196.46 230.678 196.46L229.897 213.982L223.674 210.09C223.674 210.09 224.833 195.289 226.395 191.006C227.957 186.723 234.18 184.783 234.18 184.783C234.18 184.783 240.805 192.177 243.526 196.851Z" fill="#263238" stroke="#263238" stroke-miterlimit="10" stroke-linecap="round"/>
<path d="M231.459 207.417C224.833 206.197 226.395 197.656 230.678 196.521C234.961 195.387 233.399 202.354 233.399 202.354" fill="white"/>
<path d="M231.459 207.417C224.833 206.197 226.395 197.656 230.678 196.521C234.961 195.387 233.399 202.354 233.399 202.354" stroke="#263238" stroke-miterlimit="10" stroke-linecap="round"/>
<path d="M226.358 191.006L246.211 201.524C249.537 202.961 253.106 203.751 256.728 203.854C259.623 203.915 262.508 203.503 265.27 202.634L267.978 190.921C268.221 189.862 268.237 188.763 268.027 187.698C267.817 186.632 267.385 185.622 266.758 184.734C263.993 180.699 260.608 177.124 256.728 174.143C249.334 168.701 238.096 172.521 231.874 176.022C225.651 179.524 226.358 191.006 226.358 191.006Z" fill="#2066B9" stroke="#263238" stroke-miterlimit="10" stroke-linecap="round"/>
<path d="M265.209 192.556C264.708 195.301 261.304 196.973 257.607 196.302C253.91 195.631 251.311 192.849 251.811 190.103C252.311 187.358 255.716 185.686 259.413 186.357C263.11 187.028 265.709 189.81 265.209 192.556Z" fill="#398CED" stroke="#263238" stroke-miterlimit="10" stroke-linecap="round"/>
<path d="M261.939 191.958C261.682 193.361 259.937 194.227 258.046 193.873C256.155 193.52 254.813 192.116 255.069 190.701C255.325 189.286 257.07 188.432 258.974 188.785C260.877 189.139 262.207 190.555 261.939 191.958Z" fill="white" stroke="#263238" stroke-miterlimit="10" stroke-linecap="round"/>
<path d="M243.136 200.353C247.743 199.385 252.45 198.976 257.155 199.132C264.159 199.523 270.37 205.746 270.37 205.746C270.37 205.746 276.471 211.92 276.056 213.067C275.641 214.214 266.88 212.359 261.048 211.969C255.215 211.578 243.136 200.353 243.136 200.353Z" fill="#2066B9" stroke="#263238" stroke-miterlimit="10" stroke-linecap="round"/>
<path d="M244.502 215.336C244.876 216.558 245.586 217.651 246.55 218.49C247.514 219.329 248.694 219.881 249.956 220.083" stroke="#263238" stroke-miterlimit="10" stroke-linecap="round"/>
<path d="M242.745 228.148L241.891 234.944L248.59 227.599L242.745 228.148Z" fill="#263238"/>
<path d="M255.811 335.233C255.811 335.233 252.297 340.927 254.458 342.811C255.931 344.091 260.652 346.312 263.539 347.531C264.209 347.826 264.958 347.89 265.669 347.715C266.38 347.54 267.012 347.135 267.469 346.562C268.422 345.507 269.192 344.299 269.744 342.988C270.094 341.429 266.32 338.048 266.32 338.048L264.798 338.674C264.798 338.674 258.837 332.823 257.683 333.048C256.529 333.274 255.811 335.233 255.811 335.233Z" fill="#2066B9" stroke="#263238" stroke-miterlimit="10" stroke-linecap="round"/>
<path d="M266.551 335.198C266.551 335.198 264.045 338.339 265.103 339.13C266.161 339.92 269.567 343.225 270.173 342.586C270.779 341.948 272.934 340.806 271.65 339.277C270.365 337.748 268.268 335.007 266.551 335.198Z" fill="#2066B9" stroke="#263238" stroke-miterlimit="10" stroke-linecap="round"/>
<path d="M681.591 414.846V484.395H410.055V414.846H359.003V516.364C359 518.239 359.366 520.095 360.082 521.828C360.797 523.561 361.848 525.135 363.173 526.461C364.498 527.787 366.071 528.839 367.803 529.556C369.535 530.273 371.392 530.641 373.267 530.64H395.791C399.572 530.64 403.198 529.139 405.873 526.466C408.547 523.794 410.051 520.169 410.055 516.388V511.703H434.787L446.367 504.382H644.229L658.969 512.801H681.591V516.461C681.594 520.242 683.098 523.867 685.773 526.54C688.448 529.212 692.074 530.713 695.855 530.713H718.379C720.251 530.715 722.106 530.347 723.837 529.632C725.567 528.916 727.14 527.867 728.464 526.543C729.789 525.22 730.84 523.648 731.557 521.918C732.274 520.188 732.643 518.334 732.643 516.461V414.846H681.591Z" fill="#263238" stroke="#263238" stroke-miterlimit="10" stroke-linecap="round"/>
<path d="M722.113 364.88C720.014 360.658 703.176 343.295 703.176 343.295C703.176 343.295 671.146 282.214 665.814 272.257C655.687 253.369 638.97 256.468 638.97 256.468L545.298 251.734L544.773 251.88L544.249 251.734L450.576 256.468C450.576 256.468 433.421 254.711 423.733 272.257C418.266 282.14 386.371 343.295 386.371 343.295C386.371 343.295 369.533 360.658 367.422 364.88C365.311 369.102 356.916 384.866 356.916 388.002C356.916 390.821 359.003 438.676 368.374 474.402C369.434 478.343 371.439 481.965 374.216 484.954C376.993 487.944 380.458 490.211 384.309 491.558C386.17 492.307 388.099 492.875 390.068 493.254H458.483L475.846 463.262C482.499 457.748 490.889 454.766 499.53 454.843H590.042C598.682 454.766 607.072 457.748 613.725 463.262L631.088 493.254H699.503C701.469 492.876 703.394 492.308 705.25 491.558C709.104 490.213 712.572 487.948 715.351 484.958C718.131 481.968 720.137 478.344 721.198 474.402C730.568 438.676 732.655 390.821 732.655 388.002C732.643 384.866 724.187 369.09 722.113 364.88Z" fill="#75AFF4" stroke="#263238" stroke-miterlimit="10" stroke-linecap="round"/>
<path d="M458.471 493.278L454.81 501.697H633.711L631.076 493.278L613.713 463.287C613.713 463.287 606.868 455.392 590.029 454.867C573.191 454.343 499.517 454.867 499.517 454.867C490.853 454.644 482.413 457.644 475.834 463.287L458.471 493.278Z" fill="#263238" stroke="#263238" stroke-miterlimit="10" stroke-linecap="round"/>
<path d="M473.723 393.298C473.723 393.298 487.938 418.555 492.148 422.765C496.357 426.974 501.091 426.974 506.887 427.499C512.683 428.024 592.128 427.499 592.128 427.499C592.128 427.499 598.449 426.45 601.609 421.715C604.769 416.981 615.287 393.298 615.287 393.298H473.723Z" fill="#263238" stroke="#263238" stroke-miterlimit="10" stroke-linecap="round"/>
<path d="M487.828 396.726C487.828 396.726 499.2 416.945 502.58 420.324C505.96 423.704 509.742 423.692 514.379 424.119C519.016 424.546 582.647 424.119 582.647 424.119C582.647 424.119 587.711 423.277 590.237 419.483C592.763 415.688 601.218 396.726 601.218 396.726H487.828Z" fill="#263238" stroke="#263238" stroke-miterlimit="10" stroke-linecap="round"/>
<path d="M603.879 484.395L600.73 475.696C599.755 473.015 597.966 470.707 595.614 469.092C593.263 467.478 590.466 466.638 587.614 466.691L502.141 467.557C499.204 467.617 496.365 468.621 494.045 470.421C491.724 472.221 490.045 474.721 489.256 477.55L487.133 484.395H603.879Z" fill="#263238" stroke="#263238" stroke-miterlimit="10" stroke-linecap="round"/>
<path d="M485.815 488.544L483.204 496.963H608.442L605.403 488.544H485.815Z" fill="#263238" stroke="#263238" stroke-miterlimit="10" stroke-linecap="round"/>
<path d="M703.176 343.295C703.176 343.295 705.799 322.772 710.497 322.772C715.194 322.772 736.279 328.568 736.803 332.777C737.328 336.987 732.594 341.721 728.384 342.771C724.175 343.82 715.231 344.882 715.231 344.882L713.205 352.776L703.176 343.295Z" fill="#75AFF4" stroke="#263238" stroke-miterlimit="10" stroke-linecap="round"/>
<path d="M386.371 343.295C386.371 343.295 383.736 322.772 379.05 322.772C374.365 322.772 353.268 328.568 352.743 332.777C352.219 336.987 356.953 341.721 361.163 342.771C365.372 343.82 374.316 344.882 374.316 344.882L376.415 352.776L386.371 343.295Z" fill="#70A7E8" stroke="#263238" stroke-miterlimit="10" stroke-linecap="round"/>
<path d="M400.574 331.191C400.574 331.191 605.818 323.297 687.387 331.191L651.599 265.985C651.599 265.985 558.976 254.406 438.472 266.51C438.472 266.461 413.74 305.409 400.574 331.191Z" fill="white" stroke="#263238" stroke-miterlimit="10" stroke-linecap="round"/>
<path d="M447.416 390.662C447.416 390.662 456.885 400.655 460.045 419.08C460.045 419.08 415.314 416.969 397.951 410.136C380.588 403.303 378.428 402.815 377.952 399.606C377.476 396.397 379.001 373.824 385.847 370.139C392.692 366.454 400.049 367.503 406.894 372.762C413.74 378.021 422.159 385.928 426.893 387.502C431.627 389.076 447.416 390.662 447.416 390.662Z" fill="white" stroke="#263238" stroke-miterlimit="10" stroke-linecap="round"/>
<path d="M413.151 400.912C417.969 396.095 417.969 388.284 413.151 383.467C408.334 378.649 400.523 378.649 395.706 383.467C390.888 388.284 390.888 396.095 395.706 400.912C400.523 405.73 408.334 405.73 413.151 400.912Z" fill="white" stroke="#263238" stroke-miterlimit="10" stroke-linecap="round"/>
<path d="M438.79 407.61C438.79 408.745 438.453 409.854 437.822 410.798C437.192 411.741 436.295 412.476 435.247 412.91C434.198 413.343 433.044 413.456 431.932 413.234C430.819 413.012 429.797 412.464 428.995 411.661C428.194 410.858 427.649 409.835 427.429 408.722C427.209 407.608 427.324 406.455 427.76 405.407C428.196 404.36 428.933 403.465 429.878 402.836C430.822 402.207 431.932 401.873 433.067 401.876C433.82 401.876 434.565 402.024 435.26 402.312C435.955 402.601 436.586 403.023 437.118 403.556C437.649 404.089 438.071 404.721 438.358 405.417C438.644 406.112 438.791 406.858 438.79 407.61Z" fill="white" stroke="#263238" stroke-miterlimit="10" stroke-linecap="round"/>
<path d="M643.656 390.662C643.656 390.662 634.175 400.655 631.015 419.08C631.015 419.08 675.746 416.969 693.122 410.136C710.497 403.303 712.644 402.815 713.12 399.606C713.596 396.397 712.059 373.824 705.226 370.139C698.393 366.454 691.011 367.503 684.166 372.762C677.32 378.021 668.913 385.928 664.179 387.502C659.445 389.076 643.656 390.662 643.656 390.662Z" fill="white" stroke="#263238" stroke-miterlimit="10" stroke-linecap="round"/>
<path d="M692.272 404.212C698.901 402.64 703 395.992 701.428 389.363C699.856 382.734 693.208 378.634 686.579 380.206C679.95 381.778 675.85 388.426 677.422 395.055C678.994 401.685 685.643 405.784 692.272 404.212Z" fill="white" stroke="#263238" stroke-miterlimit="10" stroke-linecap="round"/>
<path d="M655.077 407.61C655.077 408.745 655.413 409.854 656.044 410.798C656.675 411.741 657.571 412.476 658.62 412.91C659.668 413.343 660.822 413.456 661.935 413.234C663.047 413.012 664.069 412.464 664.871 411.661C665.672 410.858 666.218 409.835 666.437 408.722C666.657 407.608 666.542 406.455 666.106 405.407C665.67 404.36 664.933 403.465 663.989 402.836C663.044 402.207 661.934 401.873 660.799 401.876C660.047 401.876 659.302 402.024 658.606 402.312C657.911 402.601 657.28 403.023 656.748 403.556C656.217 404.089 655.796 404.721 655.509 405.417C655.222 406.112 655.075 406.858 655.077 407.61Z" fill="white" stroke="#263238" stroke-miterlimit="10" stroke-linecap="round"/>
<path d="M700.015 437.492C700.015 437.492 651.074 446.973 648.964 448.547C646.853 450.121 642.655 459.077 642.655 459.077L652.648 456.441C652.648 456.441 675.832 457.491 683.702 453.806C691.572 450.121 700.015 437.492 700.015 437.492Z" fill="#263238" stroke="#263238" stroke-miterlimit="10" stroke-linecap="round"/>
<path d="M393.216 437.492C393.216 437.492 442.157 446.973 444.256 448.547C446.355 450.121 450.577 459.077 450.577 459.077L440.571 456.441C440.571 456.441 417.388 457.491 409.53 453.806C401.672 450.121 393.216 437.492 393.216 437.492Z" fill="#263238" stroke="#263238" stroke-miterlimit="10" stroke-linecap="round"/>
<path d="M638.677 398.764L625.61 394.408H615.287" stroke="#263238" stroke-miterlimit="10" stroke-linecap="round"/>
<path d="M453.212 398.142L461.924 393.164L473.723 393.286" stroke="#263238" stroke-miterlimit="10" stroke-linecap="round"/>
<path d="M675.722 339.903C677.052 339.147 678.394 338.427 679.748 337.768" stroke="#263238" stroke-miterlimit="10" stroke-linecap="round"/>
<path d="M617.788 414.614C626.024 396.507 644.852 360.512 671.158 342.746" stroke="#263238" stroke-miterlimit="10" stroke-linecap="round"/>
<path d="M613.152 425.522C613.152 425.522 613.798 423.802 615.055 420.813" stroke="#263238" stroke-miterlimit="10" stroke-linecap="round"/>
<path d="M418.303 342.746C416.115 341.412 413.854 340.168 411.519 339.012" stroke="#263238" stroke-miterlimit="10" stroke-linecap="round"/>
<path d="M471.014 415.005C465.621 398.898 451.577 365.576 422.94 345.748" stroke="#263238" stroke-miterlimit="10" stroke-linecap="round"/>
<path d="M473.747 424.278C473.747 424.278 473.369 422.606 472.527 419.702" stroke="#263238" stroke-miterlimit="10" stroke-linecap="round"/>
<path d="M396.584 368.26C396.584 368.26 390.983 354.57 390.983 346.48Z" fill="white"/>
<path d="M396.584 368.26C396.584 368.26 390.983 354.57 390.983 346.48" stroke="#263238" stroke-miterlimit="10" stroke-linecap="round"/>
<path d="M695.928 367.638C697.439 361.912 698.479 356.072 699.039 350.177Z" fill="white"/>
<path d="M695.928 367.638C697.439 361.912 698.479 356.072 699.039 350.177" stroke="#263238" stroke-miterlimit="10" stroke-linecap="round"/>
<path d="M715.231 426.145L711.497 474.634L642.436 477.794C642.436 477.794 630.612 463.482 629.99 457.259C629.368 451.036 638.08 441.702 640.569 441.08C643.058 440.457 686.618 431.745 686.618 431.745" stroke="#263238" stroke-miterlimit="10" stroke-linecap="round"/>
<path d="M377.257 426.145L380.99 474.634L450.076 477.746C450.076 477.746 461.9 463.433 462.522 457.21C463.144 450.987 454.432 441.653 451.943 441.031C449.454 440.408 405.882 431.696 405.882 431.696" stroke="#263238" stroke-miterlimit="10" stroke-linecap="round"/>
<path d="M492.745 405.085L543.529 409.148C545.685 409.319 547.852 409.319 550.008 409.148L596.813 405.487" stroke="#263238" stroke-miterlimit="10" stroke-linecap="round"/>
<path d="M496.089 410.331L543.529 414.126C545.685 414.303 547.852 414.303 550.008 414.126L595.154 410.624" stroke="#263238" stroke-miterlimit="10" stroke-linecap="round"/>
<path d="M499.493 415.651L543.529 419.178C545.685 419.342 547.851 419.342 550.008 419.178L592.897 415.846" stroke="#263238" stroke-miterlimit="10" stroke-linecap="round"/>
<path d="M528.594 299.101C505.057 312.938 440.742 325.261 407.492 330.947C443.927 329.654 614.726 324.163 687.387 331.191L655.345 272.757C608.759 269.646 552.741 284.898 528.594 299.101Z" fill="#787878"/>
<path d="M400.574 331.191C400.574 331.191 605.818 323.297 687.387 331.191L651.599 265.985C651.599 265.985 558.976 254.406 438.472 266.51C438.472 266.461 413.74 305.409 400.574 331.191Z" stroke="#263238" stroke-miterlimit="10" stroke-linecap="round"/>
<path d="M464.608 339.293C464.608 339.293 465.829 342.893 475.419 351.91C485.01 360.927 492.843 348.31 503.068 342.893C513.293 337.475 501.262 332.68 537.916 359.121C574.57 385.562 590.786 390.967 605.208 375.337C619.631 359.707 640.056 336.291 649.671 341.697C659.286 347.102 665.302 357.315 673.709 357.315C682.116 357.315 692.938 340.489 692.938 340.489" stroke="white" stroke-miterlimit="10" stroke-linecap="round"/>
<path d="M464.608 342.295C464.608 342.295 465.829 345.955 475.419 354.911C485.01 363.867 492.843 351.312 503.068 345.906C513.293 340.501 501.262 335.681 537.916 362.122C574.57 388.564 590.786 393.969 605.208 378.351C619.631 362.733 640.056 339.305 649.671 344.698C659.286 350.092 665.302 360.317 673.709 360.317C682.116 360.317 692.938 343.503 692.938 343.503" stroke="#263238" stroke-miterlimit="10" stroke-linecap="round"/>
<path d="M384.663 355.802C384.663 355.802 365.641 373.921 366.092 388.417C366.543 402.913 379.685 405.182 381.954 415.602C384.224 426.023 406.87 432.819 429.065 426.926C451.26 421.032 460.789 426.926 467.573 439.127C474.358 451.329 485.681 452.293 494.795 447.79" stroke="#263238" stroke-miterlimit="10" stroke-linecap="round"/>
<path d="M386.932 353.532C386.932 353.532 367.898 371.664 368.361 386.16C368.825 400.655 381.942 402.913 384.224 413.333C386.505 423.753 409.127 430.549 431.347 424.607C453.566 418.665 463.071 424.607 469.855 436.809C476.639 449.011 487.975 449.938 497.028 445.411" stroke="white" stroke-miterlimit="10" stroke-linecap="round"/>
<path d="M718.525 377.997C718.525 377.997 714.45 409.721 702.224 415.602C689.998 421.484 639.702 426.023 627.928 434.173C616.153 442.324 615.726 459.992 615.726 459.992" stroke="white" stroke-miterlimit="10" stroke-linecap="round"/>
<path d="M718.525 380.681C718.525 380.681 714.425 412.406 702.224 418.323C690.022 424.241 639.702 428.731 627.928 436.894C616.153 445.057 615.726 462.713 615.726 462.713" stroke="#263238" stroke-miterlimit="10" stroke-linecap="round"/>
<path d="M555.462 262.862C555.462 262.862 562.661 261.642 566.895 273.014C571.129 284.386 578.743 311.961 591.445 312.376C604.147 312.791 606.258 287.826 613.408 277.675C620.558 267.523 634.151 269.634 642.179 276.454" stroke="white" stroke-miterlimit="10" stroke-linecap="round"/>
<path d="M555.035 265.4C555.035 265.4 562.234 264.18 566.468 275.552C570.702 286.924 578.316 314.499 591.018 314.914C603.72 315.329 605.831 290.389 613.03 280.213C620.229 270.036 633.772 272.172 641.813 278.992" stroke="#263238" stroke-miterlimit="10" stroke-linecap="round"/>
<path d="M399.268 352.483C399.268 352.483 404.808 356.363 412.019 365.234C419.23 374.105 421.988 369.663 425.319 363.013C428.65 356.363 436.398 370.773 443.048 380.754C449.698 390.735 451.37 392.395 452.48 386.855" stroke="white" stroke-miterlimit="10" stroke-linecap="round"/>
<path d="M399.049 354.667C399.049 354.667 404.588 358.547 411.8 367.406C419.011 376.264 421.768 371.847 425.099 365.197C428.43 358.547 436.179 372.958 442.841 382.926C449.503 392.895 451.15 394.567 452.26 389.027" stroke="#263238" stroke-miterlimit="10" stroke-linecap="round"/>
</svg>
