<svg width="549" height="325" viewBox="0 0 549 325" fill="none" xmlns="http://www.w3.org/2000/svg">
<path d="M6.61101 23.5671L0.5 0.432866H5.50719L9.1546 17.01H9.28258L13.5219 0.432866H17.7292L22.0005 17.01H22.1125L25.7599 0.432866H30.7671L24.6401 23.5671H19.9529L15.6815 8.0481H15.5696L11.2983 23.5671H6.61101Z" fill="#183253"/>
<path d="M29.376 23.5671L37.4387 0.432866H41.678V4.95391H40.2062L34.4631 23.5671H29.376ZM33.7113 17.9559L34.8951 14.3327H45.6453L46.8291 17.9559H33.7113ZM46.0933 23.5671L40.3502 4.95391V0.432866H43.1177L51.1644 23.5671H46.0933Z" fill="#183253"/>
<path d="M53.1488 23.5671V0.432866H57.98V19.5752H68.1063V23.5671H53.1488Z" fill="#183253"/>
<path d="M75.2098 16.7535L75.1778 10.982H75.5778L84.0564 0.432866H89.4155L80.9049 10.9018L79.6091 11.3507L75.2098 16.7535ZM70.6026 23.5671V0.432866H75.4338V23.5671H70.6026ZM84.2324 23.5671L76.9056 12.7455L80.393 9.57114L90.0234 23.5671H84.2324Z" fill="#183253"/>
<path d="M108.214 24C105.931 24 103.958 23.5137 102.295 22.5411C100.631 21.5685 99.3459 20.1844 98.4394 18.3888C97.5328 16.5932 97.0796 14.4663 97.0796 12.008V11.976C97.0796 9.5177 97.5328 7.39613 98.4394 5.61122C99.3565 3.81563 100.647 2.43153 102.311 1.45892C103.974 0.486306 105.942 0 108.214 0C110.496 0 112.469 0.486306 114.133 1.45892C115.797 2.43153 117.076 3.81563 117.972 5.61122C118.879 7.39613 119.332 9.5177 119.332 11.976V12.008C119.332 14.4663 118.879 16.5932 117.972 18.3888C117.076 20.1844 115.797 21.5685 114.133 22.5411C112.48 23.5137 110.507 24 108.214 24ZM108.214 19.8958C109.494 19.8958 110.592 19.5751 111.509 18.9339C112.437 18.2819 113.152 17.3681 113.653 16.1924C114.154 15.006 114.405 13.6112 114.405 12.008V11.976C114.405 10.3621 114.149 8.96727 113.637 7.79158C113.136 6.6159 112.421 5.70741 111.493 5.06613C110.565 4.42485 109.472 4.10421 108.214 4.10421C106.955 4.10421 105.862 4.42485 104.934 5.06613C104.006 5.69673 103.287 6.59987 102.775 7.77555C102.263 8.95124 102.007 10.3514 102.007 11.976V12.008C102.007 13.6219 102.257 15.022 102.759 16.2084C103.271 17.3841 103.99 18.2926 104.918 18.9339C105.846 19.5751 106.945 19.8958 108.214 19.8958Z" fill="#183253"/>
<path d="M131.731 24C129.768 24 128.062 23.6473 126.611 22.9419C125.161 22.2258 124.041 21.2265 123.252 19.9439C122.463 18.6506 122.068 17.1436 122.068 15.4228V0.432866H126.899V14.99C126.899 15.9947 127.086 16.8657 127.459 17.6032C127.843 18.33 128.392 18.8965 129.107 19.3026C129.832 19.6981 130.712 19.8958 131.747 19.8958C132.781 19.8958 133.656 19.6981 134.37 19.3026C135.095 18.8965 135.645 18.33 136.018 17.6032C136.391 16.8657 136.578 15.9947 136.578 14.99V0.432866H141.409V15.4228C141.409 17.1329 141.014 18.6346 140.225 19.9279C139.436 21.2104 138.316 22.2098 136.866 22.9259C135.426 23.6419 133.714 24 131.731 24Z" fill="#183253"/>
<path d="M150.464 23.5671V4.42485H143.745V0.432866H162.014V4.42485H155.295V23.5671H150.464Z" fill="#183253"/>
<path d="M175.373 23.5671L169.262 0.432866H174.27L177.917 17.01H178.045L182.284 0.432866H186.492L190.763 17.01H190.875L194.522 0.432866H199.53L193.403 23.5671H188.715L184.444 8.0481H184.332L180.061 23.5671H175.373Z" fill="#183253"/>
<path d="M201.77 23.5671V0.432866H206.601V23.5671H201.77Z" fill="#183253"/>
<path d="M215.64 23.5671V4.42485H208.921V0.432866H227.19V4.42485H220.471V23.5671H215.64Z" fill="#183253"/>
<path d="M229.511 23.5671V0.432866H234.342V9.82766H244.74V0.432866H249.571V23.5671H244.74V13.8196H234.342V23.5671H229.511Z" fill="#183253"/>
<path d="M257.747 23.5671L265.81 0.432866H270.049V4.95391H268.578L262.835 23.5671H257.747ZM262.083 17.9559L263.266 14.3327H274.017L275.201 17.9559H262.083ZM274.465 23.5671L268.722 4.95391V0.432866H271.489L279.536 23.5671H274.465Z" fill="#183253"/>
<path d="M287.712 23.5671V0.432866H291.903L304.333 18.2445L300.398 15.4228H302.493V0.432866H307.277V23.5671H303.117L290.671 5.67535L294.591 8.48096H292.495V23.5671H287.712Z" fill="#183253"/>
<path d="M310.797 23.5671V0.432866H326.09V4.42485H315.628V9.98798H325.498V13.7555H315.628V19.5752H326.09V23.5671H310.797Z" fill="#183253"/>
<path d="M334.058 23.5671L327.947 0.432866H332.954L336.601 17.01H336.729L340.968 0.432866H345.176L349.447 17.01H349.559L353.206 0.432866H358.214L352.087 23.5671H347.399L343.128 8.0481H343.016L338.745 23.5671H334.058Z" fill="#183253"/>
<path d="M376.82 24C374.58 24 372.639 23.519 370.997 22.5571C369.354 21.5845 368.085 20.2057 367.189 18.4208C366.304 16.6253 365.862 14.4823 365.862 11.992V11.976C365.862 9.48564 366.304 7.34803 367.189 5.56313C368.085 3.77822 369.354 2.40481 370.997 1.44289C372.639 0.480962 374.58 0 376.82 0C378.686 0 380.345 0.363393 381.795 1.09018C383.256 1.81697 384.429 2.8163 385.315 4.08818C386.21 5.34937 386.733 6.7976 386.882 8.43287L386.898 8.59319H382.195L382.131 8.35271C381.96 7.49766 381.635 6.75484 381.155 6.12425C380.686 5.48297 380.083 4.98597 379.348 4.63327C378.622 4.28056 377.78 4.10421 376.82 4.10421C375.593 4.10421 374.527 4.42485 373.62 5.06613C372.725 5.69673 372.031 6.59987 371.541 7.77555C371.05 8.94055 370.805 10.3407 370.805 11.976V11.992C370.805 13.6166 371.05 15.022 371.541 16.2084C372.031 17.3948 372.73 18.3086 373.636 18.9499C374.543 19.5805 375.609 19.8958 376.836 19.8958C377.764 19.8958 378.59 19.7248 379.316 19.3828C380.041 19.0407 380.649 18.5491 381.139 17.9078C381.63 17.2665 381.976 16.497 382.179 15.5992L382.211 15.4549H386.914L386.898 15.6152C386.749 17.2505 386.226 18.6987 385.331 19.9599C384.435 21.2211 383.256 22.2098 381.795 22.9259C380.345 23.6419 378.686 24 376.82 24Z" fill="#183253"/>
<path d="M387.187 23.5671L395.25 0.432866H399.489V4.95391H398.017L392.274 23.5671H387.187ZM391.522 17.9559L392.706 14.3327H403.456L404.64 17.9559H391.522ZM403.904 23.5671L398.161 4.95391V0.432866H400.929L408.975 23.5671H403.904Z" fill="#183253"/>
<path d="M410.96 23.5671V0.432866H420.494C422.233 0.432866 423.715 0.732131 424.941 1.33066C426.179 1.9185 427.122 2.76286 427.773 3.86373C428.434 4.9646 428.765 6.28991 428.765 7.83968V7.87174C428.765 9.37876 428.392 10.7255 427.645 11.9118C426.898 13.0982 425.88 13.9426 424.589 14.4449L429.453 23.5671H423.966L419.678 15.1824C419.636 15.1824 419.593 15.1824 419.55 15.1824C419.518 15.1824 419.481 15.1824 419.438 15.1824H415.791V23.5671H410.96ZM415.791 11.5271H419.982C421.177 11.5271 422.115 11.2064 422.798 10.5651C423.48 9.91316 423.822 9.02071 423.822 7.88778V7.85571C423.822 6.74416 423.47 5.86239 422.766 5.21042C422.062 4.54776 421.113 4.21643 419.918 4.21643H415.791V11.5271Z" fill="#183253"/>
<path d="M432.797 15.8236L432.413 0.432866H437.26L436.876 15.8236H432.797ZM434.828 23.8076C434.071 23.8076 433.437 23.5671 432.925 23.0862C432.423 22.5945 432.173 21.9853 432.173 21.2585C432.173 20.5317 432.423 19.9279 432.925 19.4469C433.437 18.9659 434.071 18.7255 434.828 18.7255C435.586 18.7255 436.22 18.9659 436.732 19.4469C437.244 19.9279 437.5 20.5317 437.5 21.2585C437.5 21.9853 437.244 22.5945 436.732 23.0862C436.22 23.5671 435.586 23.8076 434.828 23.8076Z" fill="#183253"/>
<path d="M0.5 45.3389H14.6874L21.2457 117.37H21.5134L28.4733 45.3389H44.5345L51.4944 117.37H51.762L58.3204 45.3389H71.0355L61.5326 139.06H43.1961L36.5039 75.8651H36.2362L29.544 139.06H10.0029L0.5 45.3389Z" fill="#183253"/>
<path d="M85.3526 45.3389H105.295L120.553 139.06H105.831L103.154 120.45V120.717H86.4233L83.7464 139.06H70.0944L85.3526 45.3389ZM101.414 107.998L94.8554 61.6731H94.5878L88.1633 107.998H101.414Z" fill="#183253"/>
<path d="M143.767 140.399C136.629 140.399 131.23 138.39 127.572 134.374C123.913 130.268 122.084 124.422 122.084 116.835V111.479H136.004V117.906C136.004 123.975 138.547 127.01 143.633 127.01C146.131 127.01 148.005 126.296 149.254 124.868C150.593 123.35 151.262 120.94 151.262 117.638C151.262 113.711 150.37 110.274 148.585 107.329C146.801 104.294 143.499 100.679 138.681 96.4838C132.613 91.1283 128.375 86.3083 125.966 82.024C123.556 77.6503 122.352 72.7411 122.352 67.2964C122.352 59.8879 124.226 54.1754 127.973 50.1588C131.721 46.0529 137.164 44 144.302 44C151.351 44 156.66 46.0529 160.23 50.1588C163.888 54.1754 165.717 59.9772 165.717 67.5641V71.4469H151.797V66.6269C151.797 63.4136 151.173 61.0929 149.924 59.6648C148.674 58.1474 146.845 57.3887 144.436 57.3887C139.528 57.3887 137.075 60.3789 137.075 66.3592C137.075 69.751 137.967 72.9196 139.752 75.8651C141.625 78.8107 144.971 82.381 149.79 86.5761C155.947 91.9316 160.185 96.7962 162.505 101.17C164.825 105.543 165.985 110.676 165.985 116.567C165.985 124.243 164.066 130.134 160.23 134.24C156.482 138.346 150.994 140.399 143.767 140.399Z" fill="#183253"/>
<path d="M171.75 45.3389H186.472V83.4967H202.266V45.3389H216.989V139.06H202.266V96.8854H186.472V139.06H171.75V45.3389Z" fill="#183253"/>
<path d="M257.554 99.1615L239.752 45.3389H255.412L265.45 79.7479H265.718L275.756 45.3389H290.078L272.276 99.1615V139.06H257.554V99.1615Z" fill="#183253"/>
<path d="M312.962 140.399C305.734 140.399 300.202 138.346 296.365 134.24C292.528 130.134 290.61 124.332 290.61 116.835V67.5641C290.61 60.0665 292.528 54.2647 296.365 50.1588C300.202 46.0529 305.734 44 312.962 44C320.189 44 325.721 46.0529 329.558 50.1588C333.395 54.2647 335.314 60.0665 335.314 67.5641V116.835C335.314 124.332 333.395 130.134 329.558 134.24C325.721 138.346 320.189 140.399 312.962 140.399ZM312.962 127.01C318.048 127.01 320.591 123.931 320.591 117.772V66.6269C320.591 60.4681 318.048 57.3887 312.962 57.3887C307.876 57.3887 305.333 60.4681 305.333 66.6269V117.772C305.333 123.931 307.876 127.01 312.962 127.01Z" fill="#183253"/>
<path d="M364.008 140.399C356.87 140.399 351.427 138.39 347.679 134.374C343.932 130.268 342.058 124.422 342.058 116.835V45.3389H356.781V117.906C356.781 121.119 357.405 123.44 358.655 124.868C359.993 126.296 361.867 127.01 364.276 127.01C366.685 127.01 368.514 126.296 369.764 124.868C371.102 123.44 371.771 121.119 371.771 117.906V45.3389H385.959V116.835C385.959 124.422 384.085 130.268 380.337 134.374C376.59 138.39 371.147 140.399 364.008 140.399Z" fill="#183253"/>
<path d="M393.768 45.3389H415.584C423.169 45.3389 428.701 47.124 432.181 50.6944C435.661 54.1754 437.401 59.5755 437.401 66.8947V72.6519C437.401 82.381 434.188 88.5398 427.764 91.1283V91.3961C431.333 92.4672 433.831 94.654 435.259 97.9565C436.776 101.259 437.534 105.677 437.534 111.211V127.679C437.534 130.357 437.624 132.544 437.802 134.24C437.98 135.847 438.427 137.453 439.14 139.06H424.15C423.615 137.543 423.258 136.114 423.079 134.776C422.901 133.437 422.812 131.027 422.812 127.546V110.408C422.812 106.124 422.098 103.134 420.67 101.438C419.332 99.7417 416.967 98.8937 413.576 98.8937H408.49V139.06H393.768V45.3389ZM413.844 85.505C416.789 85.505 418.975 84.7463 420.402 83.2289C421.919 81.7116 422.678 79.1677 422.678 75.5974V68.3675C422.678 64.9757 422.053 62.5211 420.804 61.0037C419.644 59.4863 417.77 58.7276 415.183 58.7276H408.49V85.505H413.844Z" fill="#183253"/>
<path d="M25.261 254C18.0335 254 12.5013 251.947 8.66445 247.841C4.8276 243.735 2.90918 237.934 2.90918 230.436V181.165C2.90918 173.668 4.8276 167.866 8.66445 163.76C12.5013 159.654 18.0335 157.601 25.261 157.601C32.4886 157.601 38.0208 159.654 41.8576 163.76C45.6945 167.866 47.6129 173.668 47.6129 181.165V230.436C47.6129 237.934 45.6945 243.735 41.8576 247.841C38.0208 251.947 32.4886 254 25.261 254ZM25.261 240.611C30.3471 240.611 32.8901 237.532 32.8901 231.373V180.228C32.8901 174.069 30.3471 170.99 25.261 170.99C20.175 170.99 17.632 174.069 17.632 180.228V231.373C17.632 237.532 20.175 240.611 25.261 240.611Z" fill="#183253"/>
<path d="M54.8927 158.94H69.6155V239.272H93.8412V252.661H54.8927V158.94Z" fill="#183253"/>
<path d="M98.2245 158.94H120.71C128.027 158.94 133.515 160.904 137.173 164.831C140.831 168.758 142.661 174.516 142.661 182.103V229.499C142.661 237.086 140.831 242.843 137.173 246.77C133.515 250.697 128.027 252.661 120.71 252.661H98.2245V158.94ZM120.443 239.272C122.852 239.272 124.681 238.558 125.93 237.13C127.269 235.702 127.938 233.381 127.938 230.168V181.433C127.938 178.22 127.269 175.899 125.93 174.471C124.681 173.043 122.852 172.329 120.443 172.329H112.947V239.272H120.443Z" fill="#183253"/>
<path d="M189.426 254C182.377 254 176.979 251.992 173.231 247.975C169.573 243.958 167.744 238.291 167.744 230.971V180.63C167.744 173.311 169.573 167.643 173.231 163.626C176.979 159.61 182.377 157.601 189.426 157.601C196.475 157.601 201.829 159.61 205.487 163.626C209.235 167.643 211.109 173.311 211.109 180.63V190.537H197.189V179.693C197.189 173.891 194.735 170.99 189.828 170.99C184.92 170.99 182.466 173.891 182.466 179.693V232.043C182.466 237.755 184.92 240.611 189.828 240.611C194.735 240.611 197.189 237.755 197.189 232.043V217.717H211.109V230.971C211.109 238.291 209.235 243.958 205.487 247.975C201.829 251.992 196.475 254 189.426 254Z" fill="#183253"/>
<path d="M228.617 158.94H248.56L263.818 252.661H249.095L246.419 234.051V234.319H229.688L227.011 252.661H213.359L228.617 158.94ZM244.679 221.599L238.12 175.274H237.853L231.428 221.599H244.679Z" fill="#183253"/>
<path d="M268.284 158.94H290.101C297.685 158.94 303.217 160.725 306.697 164.296C310.177 167.777 311.917 173.177 311.917 180.496V186.253C311.917 195.982 308.705 202.141 302.28 204.73V204.997C305.849 206.068 308.348 208.255 309.776 211.558C311.292 214.86 312.051 219.279 312.051 224.813V241.281C312.051 243.958 312.14 246.145 312.319 247.841C312.497 249.448 312.943 251.054 313.657 252.661H298.667C298.131 251.144 297.774 249.716 297.596 248.377C297.417 247.038 297.328 244.628 297.328 241.147V224.009C297.328 219.725 296.614 216.735 295.187 215.039C293.848 213.343 291.484 212.495 288.093 212.495H283.007V252.661H268.284V158.94ZM288.361 199.106C291.305 199.106 293.491 198.348 294.919 196.83C296.436 195.313 297.194 192.769 297.194 189.199V181.969C297.194 178.577 296.57 176.122 295.32 174.605C294.161 173.088 292.287 172.329 289.699 172.329H283.007V199.106H288.361Z" fill="#183253"/>
<path d="M349.725 158.94H369.667L384.926 252.661H370.203L367.526 234.051V234.319H350.795L348.119 252.661H334.467L349.725 158.94ZM365.786 221.599L359.228 175.274H358.96L352.535 221.599H365.786Z" fill="#183253"/>
<path d="M384.082 158.94H398.269L404.827 230.971H405.095L412.055 158.94H428.116L435.076 230.971H435.344L441.902 158.94H454.617L445.114 252.661H426.778L420.086 189.466H419.818L413.126 252.661H393.585L384.082 158.94Z" fill="#183253"/>
<path d="M468.934 158.94H488.877L504.135 252.661H489.412L486.735 234.051V234.319H470.005L467.328 252.661H453.676L468.934 158.94ZM484.995 221.599L478.437 175.274H478.169L471.745 221.599H484.995Z" fill="#183253"/>
<path d="M515.976 212.763L498.175 158.94H513.835L523.873 193.349H524.14L534.179 158.94H548.5L530.699 212.763V252.661H515.976V212.763Z" fill="#183253"/>
<path d="M6.24478 292.04V276.301H0.5V274.835H13.619V276.301H7.86236V292.04H6.24478Z" fill="#183253"/>
<path d="M14.3807 292.04V279.21H15.9507V281.333H16.0934C16.3472 280.602 16.7714 280.029 17.3661 279.616C17.9687 279.203 18.6982 278.996 19.5546 278.996C19.7925 278.996 20.0145 279.008 20.2206 279.032C20.4268 279.055 20.6052 279.087 20.7559 279.127V280.665C20.5339 280.609 20.3118 280.57 20.0898 280.546C19.8757 280.514 19.6458 280.498 19.4 280.498C18.7339 280.498 18.1392 280.649 17.6159 280.951C17.1005 281.253 16.6921 281.671 16.3908 282.203C16.0974 282.736 15.9507 283.348 15.9507 284.039V292.04H14.3807Z" fill="#183253"/>
<path d="M26.2157 292.255C25.391 292.255 24.6576 292.104 24.0153 291.802C23.373 291.492 22.8655 291.054 22.4929 290.49C22.1281 289.926 21.9457 289.266 21.9457 288.511V288.487C21.9457 287.74 22.1242 287.1 22.481 286.567C22.8378 286.035 23.3572 285.617 24.0391 285.315C24.7289 285.005 25.5655 284.818 26.5487 284.755L31.3301 284.445V285.721L26.7628 286.031C25.6765 286.102 24.8677 286.345 24.3364 286.758C23.8052 287.163 23.5395 287.728 23.5395 288.451V288.475C23.5395 289.214 23.8171 289.802 24.3721 290.24C24.9351 290.669 25.6487 290.883 26.513 290.883C27.2822 290.883 27.968 290.724 28.5707 290.406C29.1812 290.081 29.661 289.647 30.0098 289.107C30.3667 288.558 30.5451 287.942 30.5451 287.259V283.288C30.5451 282.35 30.2675 281.635 29.7125 281.142C29.1654 280.649 28.3724 280.403 27.3337 280.403C26.4615 280.403 25.736 280.578 25.1571 280.927C24.5783 281.269 24.2016 281.758 24.0272 282.394V282.43H22.4572V282.37C22.5682 281.687 22.8457 281.094 23.2898 280.594C23.7338 280.085 24.3047 279.691 25.0025 279.413C25.7003 279.135 26.4932 278.996 27.3813 278.996C28.3804 278.996 29.2328 279.167 29.9385 279.509C30.6442 279.842 31.1834 280.331 31.5561 280.975C31.9287 281.611 32.1151 282.378 32.1151 283.276V292.04H30.5451V289.822H30.4023C30.1486 290.331 29.8156 290.768 29.4033 291.134C28.9909 291.492 28.5152 291.77 27.976 291.968C27.4368 292.159 26.85 292.255 26.2157 292.255Z" fill="#183253"/>
<path d="M35.5053 292.04V279.21H37.0753V281.464H37.2181C37.559 280.693 38.0705 280.089 38.7524 279.652C39.4422 279.214 40.2827 278.996 41.2739 278.996C42.7012 278.996 43.8073 279.409 44.5923 280.236C45.3773 281.055 45.7698 282.211 45.7698 283.706V292.04H44.1998V284.087C44.1998 282.871 43.9223 281.953 43.3672 281.333C42.8122 280.713 41.9796 280.403 40.8695 280.403C40.1162 280.403 39.4541 280.57 38.8832 280.904C38.3202 281.237 37.8762 281.706 37.5511 282.311C37.2339 282.907 37.0753 283.61 37.0753 284.421V292.04H35.5053Z" fill="#183253"/>
<path d="M53.43 292.255C52.5023 292.255 51.6776 292.115 50.9561 291.837C50.2424 291.551 49.6675 291.15 49.2314 290.633C48.7953 290.116 48.5336 289.508 48.4464 288.809V288.797H50.0521V288.809C50.2186 289.453 50.5992 289.969 51.1939 290.359C51.7886 290.74 52.5498 290.931 53.4776 290.931C54.1119 290.931 54.6749 290.832 55.1665 290.633C55.6581 290.434 56.0467 290.164 56.3321 289.822C56.6176 289.472 56.7603 289.075 56.7603 288.63V288.606C56.7603 288.05 56.5502 287.597 56.1299 287.247C55.7176 286.897 55.0436 286.615 54.1079 286.4L52.3357 285.971C51.5428 285.788 50.8886 285.55 50.3732 285.256C49.8578 284.962 49.4733 284.6 49.2195 284.171C48.9658 283.733 48.8389 283.217 48.8389 282.621V282.609C48.8389 281.917 49.0451 281.301 49.4574 280.761C49.8697 280.212 50.4248 279.783 51.1226 279.473C51.8203 279.155 52.5974 278.996 53.4538 278.996C54.3101 278.996 55.0714 279.135 55.7374 279.413C56.4114 279.691 56.9546 280.081 57.3669 280.582C57.7871 281.082 58.0488 281.671 58.1519 282.346V282.358H56.6057V282.346C56.4709 281.742 56.122 281.257 55.559 280.892C55.004 280.518 54.2983 280.331 53.4419 280.331C52.8868 280.331 52.3794 280.427 51.9195 280.617C51.4675 280.808 51.1067 281.071 50.8371 281.404C50.5754 281.73 50.4446 282.112 50.4446 282.549V282.573C50.4446 282.915 50.5318 283.217 50.7063 283.479C50.8886 283.733 51.1622 283.956 51.527 284.147C51.8917 284.33 52.3595 284.489 52.9304 284.624L54.6908 285.053C55.9357 285.347 56.8594 285.764 57.462 286.305C58.0647 286.837 58.366 287.565 58.366 288.487V288.511C58.366 289.242 58.1479 289.89 57.7118 290.454C57.2757 291.019 56.685 291.46 55.9396 291.778C55.2022 292.096 54.3657 292.255 53.43 292.255Z" fill="#183253"/>
<path d="M62.006 292.04V280.534H59.8889V279.21H62.006V277.565C62.006 276.762 62.1368 276.099 62.3985 275.574C62.6602 275.049 63.0447 274.656 63.5522 274.393C64.0676 274.131 64.694 274 65.4315 274C65.6614 274 65.8795 274.008 66.0856 274.024C66.2918 274.04 66.49 274.064 66.6803 274.095V275.371C66.5535 275.347 66.4068 275.331 66.2402 275.323C66.0737 275.316 65.8993 275.312 65.7169 275.312C64.9874 275.312 64.4482 275.506 64.0993 275.896C63.7505 276.285 63.576 276.854 63.576 277.601V279.21H66.5614V280.534H63.576V292.04H62.006Z" fill="#183253"/>
<path d="M73.6863 292.255C72.4969 292.255 71.4661 291.988 70.5939 291.456C69.7296 290.915 69.0596 290.152 68.5838 289.166C68.1081 288.173 67.8702 286.996 67.8702 285.637V285.613C67.8702 284.254 68.1081 283.082 68.5838 282.096C69.0596 281.102 69.7296 280.339 70.5939 279.807C71.4661 279.266 72.4969 278.996 73.6863 278.996C74.8757 278.996 75.9026 279.266 76.7669 279.807C77.6391 280.339 78.3131 281.102 78.7888 282.096C79.2646 283.082 79.5025 284.254 79.5025 285.613V285.637C79.5025 286.996 79.2646 288.173 78.7888 289.166C78.3131 290.152 77.6391 290.915 76.7669 291.456C75.9026 291.988 74.8757 292.255 73.6863 292.255ZM73.6863 290.86C74.5665 290.86 75.3198 290.649 75.9462 290.228C76.5726 289.806 77.0523 289.206 77.3854 288.427C77.7263 287.648 77.8968 286.718 77.8968 285.637V285.613C77.8968 284.532 77.7263 283.602 77.3854 282.823C77.0523 282.044 76.5726 281.448 75.9462 281.035C75.3198 280.613 74.5665 280.403 73.6863 280.403C72.8062 280.403 72.0529 280.613 71.4265 281.035C70.8001 281.448 70.3164 282.044 69.9754 282.823C69.6424 283.602 69.4759 284.532 69.4759 285.613V285.637C69.4759 286.718 69.6424 287.648 69.9754 288.427C70.3164 289.206 70.8001 289.806 71.4265 290.228C72.0529 290.649 72.8062 290.86 73.6863 290.86Z" fill="#183253"/>
<path d="M82.3218 292.04V279.21H83.8918V281.333H84.0346C84.2883 280.602 84.7125 280.029 85.3072 279.616C85.9098 279.203 86.6393 278.996 87.4957 278.996C87.7336 278.996 87.9556 279.008 88.1618 279.032C88.3679 279.055 88.5463 279.087 88.697 279.127V280.665C88.475 280.609 88.2529 280.57 88.0309 280.546C87.8168 280.514 87.5869 280.498 87.3411 280.498C86.675 280.498 86.0803 280.649 85.557 280.951C85.0416 281.253 84.6332 281.671 84.3319 282.203C84.0385 282.736 83.8918 283.348 83.8918 284.039V292.04H82.3218Z" fill="#183253"/>
<path d="M91.0168 292.04V279.21H92.5868V281.488H92.7295C93.007 280.717 93.459 280.109 94.0854 279.664C94.7198 279.218 95.4731 278.996 96.3453 278.996C96.9479 278.996 97.4871 279.103 97.9629 279.318C98.4465 279.524 98.8589 279.819 99.1998 280.2C99.5408 280.582 99.8025 281.031 99.9848 281.547H100.116C100.338 281.031 100.643 280.582 101.031 280.2C101.428 279.819 101.888 279.524 102.411 279.318C102.935 279.103 103.501 278.996 104.112 278.996C104.968 278.996 105.698 279.167 106.301 279.509C106.903 279.842 107.363 280.327 107.68 280.963C108.005 281.591 108.168 282.358 108.168 283.264V292.04H106.598V283.634C106.598 282.927 106.487 282.334 106.265 281.857C106.043 281.381 105.714 281.019 105.278 280.772C104.842 280.526 104.302 280.403 103.66 280.403C103.002 280.403 102.427 280.558 101.935 280.868C101.444 281.17 101.059 281.587 100.782 282.12C100.504 282.644 100.365 283.241 100.365 283.908V292.04H98.8073V283.455C98.8073 282.843 98.6844 282.307 98.4386 281.846C98.2007 281.385 97.8598 281.031 97.4157 280.784C96.9717 280.53 96.4563 280.403 95.8695 280.403C95.251 280.403 94.692 280.57 94.1925 280.904C93.7009 281.237 93.3084 281.691 93.015 282.263C92.7295 282.835 92.5868 283.475 92.5868 284.183V292.04H91.0168Z" fill="#183253"/>
<path d="M122.572 292.04V284.6L116.423 274.835H118.279L123.31 282.954H123.453L128.496 274.835H130.339L124.19 284.6V292.04H122.572Z" fill="#183253"/>
<path d="M135.93 292.255C134.74 292.255 133.71 291.988 132.837 291.456C131.973 290.915 131.303 290.152 130.827 289.166C130.352 288.173 130.114 286.996 130.114 285.637V285.613C130.114 284.254 130.352 283.082 130.827 282.096C131.303 281.102 131.973 280.339 132.837 279.807C133.71 279.266 134.74 278.996 135.93 278.996C137.119 278.996 138.146 279.266 139.01 279.807C139.883 280.339 140.557 281.102 141.032 282.096C141.508 283.082 141.746 284.254 141.746 285.613V285.637C141.746 286.996 141.508 288.173 141.032 289.166C140.557 290.152 139.883 290.915 139.01 291.456C138.146 291.988 137.119 292.255 135.93 292.255ZM135.93 290.86C136.81 290.86 137.563 290.649 138.19 290.228C138.816 289.806 139.296 289.206 139.629 288.427C139.97 287.648 140.14 286.718 140.14 285.637V285.613C140.14 284.532 139.97 283.602 139.629 282.823C139.296 282.044 138.816 281.448 138.19 281.035C137.563 280.613 136.81 280.403 135.93 280.403C135.05 280.403 134.296 280.613 133.67 281.035C133.044 281.448 132.56 282.044 132.219 282.823C131.886 283.602 131.719 284.532 131.719 285.613V285.637C131.719 286.718 131.886 287.648 132.219 288.427C132.56 289.206 133.044 289.806 133.67 290.228C134.296 290.649 135.05 290.86 135.93 290.86Z" fill="#183253"/>
<path d="M148.966 292.255C148.007 292.255 147.19 292.068 146.516 291.694C145.85 291.321 145.342 290.78 144.993 290.073C144.645 289.365 144.47 288.523 144.47 287.545V279.21H146.028V287.163C146.028 288.356 146.306 289.27 146.861 289.906C147.416 290.542 148.24 290.86 149.335 290.86C149.929 290.86 150.461 290.764 150.929 290.573C151.404 290.383 151.809 290.112 152.142 289.763C152.475 289.405 152.725 288.98 152.891 288.487C153.065 287.994 153.153 287.442 153.153 286.829V279.21H154.723V292.04H153.153V289.798H153.01C152.804 290.315 152.51 290.756 152.13 291.122C151.749 291.488 151.289 291.77 150.75 291.968C150.219 292.159 149.624 292.255 148.966 292.255Z" fill="#183253"/>
<path d="M158.184 292.04V279.21H159.754V281.333H159.897C160.151 280.602 160.575 280.029 161.17 279.616C161.772 279.203 162.502 278.996 163.358 278.996C163.596 278.996 163.818 279.008 164.024 279.032C164.23 279.055 164.409 279.087 164.559 279.127V280.665C164.337 280.609 164.115 280.57 163.893 280.546C163.679 280.514 163.449 280.498 163.204 280.498C162.537 280.498 161.943 280.649 161.419 280.951C160.904 281.253 160.496 281.671 160.194 282.203C159.901 282.736 159.754 283.348 159.754 284.039V292.04H158.184Z" fill="#183253"/>
<path d="M178.024 292.04L171.602 274.835H173.302L178.75 289.918H178.893L184.34 274.835H186.053L179.63 292.04H178.024Z" fill="#183253"/>
<path d="M192.191 292.255C190.993 292.255 189.958 291.988 189.086 291.456C188.222 290.915 187.556 290.152 187.088 289.166C186.62 288.173 186.386 287.008 186.386 285.673V285.649C186.386 284.314 186.62 283.149 187.088 282.156C187.556 281.154 188.214 280.379 189.062 279.831C189.919 279.274 190.918 278.996 192.06 278.996C193.209 278.996 194.197 279.266 195.021 279.807C195.854 280.339 196.492 281.086 196.936 282.048C197.38 283.002 197.602 284.111 197.602 285.375V286.031H187.195V284.755H196.817L196.044 285.911V285.315C196.044 284.242 195.874 283.344 195.533 282.621C195.2 281.889 194.732 281.337 194.129 280.963C193.535 280.59 192.841 280.403 192.048 280.403C191.263 280.403 190.565 280.598 189.954 280.987C189.344 281.369 188.864 281.925 188.515 282.656C188.166 283.388 187.992 284.274 187.992 285.315V285.911C187.992 286.937 188.162 287.819 188.503 288.558C188.852 289.29 189.344 289.854 189.978 290.251C190.613 290.649 191.362 290.848 192.226 290.848C192.845 290.848 193.396 290.76 193.879 290.585C194.371 290.41 194.779 290.176 195.105 289.882C195.43 289.588 195.66 289.274 195.794 288.94L195.842 288.845H197.412L197.388 288.952C197.261 289.389 197.051 289.806 196.758 290.204C196.464 290.601 196.096 290.955 195.652 291.265C195.216 291.567 194.704 291.809 194.117 291.992C193.539 292.167 192.896 292.255 192.191 292.255Z" fill="#183253"/>
<path d="M200.552 292.04V274.119H202.122V281.476H202.265C202.606 280.697 203.118 280.089 203.8 279.652C204.489 279.214 205.33 278.996 206.321 278.996C207.273 278.996 208.081 279.183 208.747 279.556C209.421 279.93 209.933 280.47 210.282 281.178C210.639 281.877 210.817 282.724 210.817 283.718V292.04H209.247V284.111C209.247 282.879 208.969 281.953 208.414 281.333C207.859 280.713 207.027 280.403 205.917 280.403C205.163 280.403 204.501 280.57 203.93 280.904C203.367 281.237 202.923 281.706 202.598 282.311C202.281 282.907 202.122 283.61 202.122 284.421V292.04H200.552Z" fill="#183253"/>
<path d="M214.279 292.04V279.21H215.837V292.04H214.279ZM215.064 276.564C214.754 276.564 214.485 276.452 214.255 276.23C214.025 275.999 213.91 275.729 213.91 275.419C213.91 275.101 214.025 274.831 214.255 274.608C214.485 274.378 214.754 274.262 215.064 274.262C215.381 274.262 215.65 274.378 215.872 274.608C216.102 274.831 216.217 275.101 216.217 275.419C216.217 275.729 216.102 275.999 215.872 276.23C215.65 276.452 215.381 276.564 215.064 276.564Z" fill="#183253"/>
<path d="M224.532 292.255C223.358 292.255 222.339 291.984 221.475 291.444C220.611 290.895 219.941 290.124 219.465 289.131C218.989 288.129 218.751 286.953 218.751 285.601V285.578C218.751 284.234 218.985 283.074 219.453 282.096C219.929 281.11 220.599 280.347 221.463 279.807C222.327 279.266 223.346 278.996 224.52 278.996C225.495 278.996 226.351 279.171 227.089 279.52C227.826 279.87 228.421 280.343 228.873 280.939C229.333 281.536 229.626 282.207 229.753 282.954V283.002H228.207L228.195 282.966C228.005 282.235 227.588 281.627 226.946 281.142C226.312 280.649 225.503 280.403 224.52 280.403C223.671 280.403 222.934 280.613 222.307 281.035C221.681 281.456 221.197 282.056 220.856 282.835C220.523 283.606 220.357 284.52 220.357 285.578V285.601C220.357 286.667 220.527 287.593 220.868 288.38C221.209 289.166 221.693 289.779 222.319 290.216C222.946 290.645 223.679 290.86 224.52 290.86C225.471 290.86 226.26 290.645 226.887 290.216C227.521 289.779 227.949 289.17 228.171 288.391L228.195 288.344L229.753 288.332L229.729 288.427C229.563 289.174 229.257 289.838 228.813 290.418C228.369 290.999 227.787 291.452 227.065 291.778C226.351 292.096 225.507 292.255 224.532 292.255Z" fill="#183253"/>
<path d="M232.584 292.04V274.119H234.154V292.04H232.584Z" fill="#183253"/>
<path d="M242.921 292.255C241.723 292.255 240.689 291.988 239.816 291.456C238.952 290.915 238.286 290.152 237.818 289.166C237.35 288.173 237.116 287.008 237.116 285.673V285.649C237.116 284.314 237.35 283.149 237.818 282.156C238.286 281.154 238.944 280.379 239.793 279.831C240.649 279.274 241.648 278.996 242.79 278.996C243.94 278.996 244.927 279.266 245.751 279.807C246.584 280.339 247.222 281.086 247.666 282.048C248.11 283.002 248.332 284.111 248.332 285.375V286.031H237.925V284.755H247.547L246.774 285.911V285.315C246.774 284.242 246.604 283.344 246.263 282.621C245.93 281.889 245.462 281.337 244.859 280.963C244.265 280.59 243.571 280.403 242.778 280.403C241.993 280.403 241.295 280.598 240.685 280.987C240.074 281.369 239.594 281.925 239.245 282.656C238.897 283.388 238.722 284.274 238.722 285.315V285.911C238.722 286.937 238.893 287.819 239.234 288.558C239.582 289.29 240.074 289.854 240.708 290.251C241.343 290.649 242.092 290.848 242.956 290.848C243.575 290.848 244.126 290.76 244.61 290.585C245.101 290.41 245.51 290.176 245.835 289.882C246.16 289.588 246.39 289.274 246.525 288.94L246.572 288.845H248.142L248.118 288.952C247.991 289.389 247.781 289.806 247.488 290.204C247.195 290.601 246.826 290.955 246.382 291.265C245.946 291.567 245.434 291.809 244.847 291.992C244.269 292.167 243.626 292.255 242.921 292.255Z" fill="#183253"/>
<path d="M252.674 292.147C252.333 292.147 252.04 292.024 251.794 291.778C251.548 291.531 251.425 291.237 251.425 290.895C251.425 290.546 251.548 290.251 251.794 290.013C252.04 289.767 252.333 289.643 252.674 289.643C253.023 289.643 253.316 289.767 253.554 290.013C253.8 290.251 253.923 290.546 253.923 290.895C253.923 291.237 253.8 291.531 253.554 291.778C253.316 292.024 253.023 292.147 252.674 292.147ZM252.674 282.358C252.333 282.358 252.04 282.235 251.794 281.989C251.548 281.742 251.425 281.448 251.425 281.106C251.425 280.757 251.548 280.462 251.794 280.224C252.04 279.978 252.333 279.854 252.674 279.854C253.023 279.854 253.316 279.978 253.554 280.224C253.8 280.462 253.923 280.757 253.923 281.106C253.923 281.448 253.8 281.742 253.554 281.989C253.316 282.235 253.023 282.358 252.674 282.358Z" fill="#183253"/>
<path d="M270.79 292.386C269.632 292.386 268.585 292.175 267.65 291.754C266.714 291.333 265.913 290.728 265.247 289.941C264.581 289.155 264.066 288.213 263.701 287.116C263.344 286.011 263.166 284.775 263.166 283.407V283.384C263.166 281.579 263.479 280.013 264.105 278.686C264.74 277.35 265.628 276.317 266.769 275.586C267.919 274.855 269.259 274.489 270.79 274.489C272.011 274.489 273.105 274.703 274.072 275.133C275.04 275.562 275.841 276.17 276.475 276.957C277.117 277.744 277.553 278.674 277.783 279.747L277.807 279.866H276.178L276.142 279.747C275.785 278.531 275.143 277.601 274.215 276.957C273.287 276.305 272.145 275.979 270.79 275.979C269.576 275.979 268.522 276.285 267.626 276.897C266.738 277.501 266.048 278.356 265.556 279.461C265.065 280.566 264.819 281.873 264.819 283.384V283.407C264.819 284.552 264.958 285.585 265.235 286.508C265.513 287.43 265.913 288.217 266.436 288.868C266.96 289.52 267.59 290.021 268.328 290.371C269.065 290.72 269.89 290.895 270.801 290.895C271.912 290.895 272.883 290.661 273.715 290.192C274.548 289.715 275.19 289.055 275.642 288.213C276.102 287.37 276.332 286.392 276.332 285.279V284.898H271.016V283.467H277.95V285.136C277.95 286.217 277.779 287.203 277.438 288.093C277.105 288.984 276.626 289.751 275.999 290.395C275.373 291.038 274.619 291.531 273.739 291.873C272.859 292.215 271.876 292.386 270.79 292.386Z" fill="#183253"/>
<path d="M281.114 292.04V279.21H282.672V292.04H281.114ZM281.899 276.564C281.59 276.564 281.32 276.452 281.09 276.23C280.86 275.999 280.745 275.729 280.745 275.419C280.745 275.101 280.86 274.831 281.09 274.608C281.32 274.378 281.59 274.262 281.899 274.262C282.216 274.262 282.486 274.378 282.708 274.608C282.938 274.831 283.053 275.101 283.053 275.419C283.053 275.729 282.938 275.999 282.708 276.23C282.486 276.452 282.216 276.564 281.899 276.564Z" fill="#183253"/>
<path d="M289.797 292.04L285.016 279.21H286.681L290.558 290.347H290.701L294.567 279.21H296.232L291.45 292.04H289.797Z" fill="#183253"/>
<path d="M303.226 292.255C302.029 292.255 300.994 291.988 300.121 291.456C299.257 290.915 298.591 290.152 298.123 289.166C297.655 288.173 297.422 287.008 297.422 285.673V285.649C297.422 284.314 297.655 283.149 298.123 282.156C298.591 281.154 299.249 280.379 300.098 279.831C300.954 279.274 301.953 278.996 303.095 278.996C304.245 278.996 305.232 279.266 306.057 279.807C306.889 280.339 307.527 281.086 307.971 282.048C308.416 283.002 308.638 284.111 308.638 285.375V286.031H298.23V284.755H307.853L307.079 285.911V285.315C307.079 284.242 306.909 283.344 306.568 282.621C306.235 281.889 305.767 281.337 305.165 280.963C304.57 280.59 303.876 280.403 303.083 280.403C302.298 280.403 301.6 280.598 300.99 280.987C300.379 281.369 299.899 281.925 299.551 282.656C299.202 283.388 299.027 284.274 299.027 285.315V285.911C299.027 286.937 299.198 287.819 299.539 288.558C299.888 289.29 300.379 289.854 301.014 290.251C301.648 290.649 302.397 290.848 303.262 290.848C303.88 290.848 304.431 290.76 304.915 290.585C305.406 290.41 305.815 290.176 306.14 289.882C306.465 289.588 306.695 289.274 306.83 288.94L306.877 288.845H308.447L308.423 288.952C308.297 289.389 308.086 289.806 307.793 290.204C307.5 290.601 307.131 290.955 306.687 291.265C306.251 291.567 305.739 291.809 305.153 291.992C304.574 292.167 303.932 292.255 303.226 292.255Z" fill="#183253"/>
<path d="M322.507 292.04V284.6L316.358 274.835H318.213L323.244 282.954H323.387L328.43 274.835H330.274L324.124 284.6V292.04H322.507Z" fill="#183253"/>
<path d="M335.864 292.255C334.675 292.255 333.644 291.988 332.772 291.456C331.908 290.915 331.238 290.152 330.762 289.166C330.286 288.173 330.048 286.996 330.048 285.637V285.613C330.048 284.254 330.286 283.082 330.762 282.096C331.238 281.102 331.908 280.339 332.772 279.807C333.644 279.266 334.675 278.996 335.864 278.996C337.054 278.996 338.08 279.266 338.945 279.807C339.817 280.339 340.491 281.102 340.967 282.096C341.443 283.082 341.68 284.254 341.68 285.613V285.637C341.68 286.996 341.443 288.173 340.967 289.166C340.491 290.152 339.817 290.915 338.945 291.456C338.08 291.988 337.054 292.255 335.864 292.255ZM335.864 290.86C336.744 290.86 337.498 290.649 338.124 290.228C338.75 289.806 339.23 289.206 339.563 288.427C339.904 287.648 340.075 286.718 340.075 285.637V285.613C340.075 284.532 339.904 283.602 339.563 282.823C339.23 282.044 338.75 281.448 338.124 281.035C337.498 280.613 336.744 280.403 335.864 280.403C334.984 280.403 334.231 280.613 333.604 281.035C332.978 281.448 332.494 282.044 332.153 282.823C331.82 283.602 331.654 284.532 331.654 285.613V285.637C331.654 286.718 331.82 287.648 332.153 288.427C332.494 289.206 332.978 289.806 333.604 290.228C334.231 290.649 334.984 290.86 335.864 290.86Z" fill="#183253"/>
<path d="M348.9 292.255C347.941 292.255 347.124 292.068 346.45 291.694C345.784 291.321 345.277 290.78 344.928 290.073C344.579 289.365 344.405 288.523 344.405 287.545V279.21H345.963V287.163C345.963 288.356 346.24 289.27 346.795 289.906C347.35 290.542 348.175 290.86 349.269 290.86C349.864 290.86 350.395 290.764 350.863 290.573C351.339 290.383 351.743 290.112 352.076 289.763C352.409 289.405 352.659 288.98 352.826 288.487C353 287.994 353.087 287.442 353.087 286.829V279.21H354.657V292.04H353.087V289.798H352.944C352.738 290.315 352.445 290.756 352.064 291.122C351.684 291.488 351.224 291.77 350.685 291.968C350.153 292.159 349.559 292.255 348.9 292.255Z" fill="#183253"/>
<path d="M358.119 292.04V279.21H359.689V281.333H359.832C360.085 280.602 360.509 280.029 361.104 279.616C361.707 279.203 362.436 278.996 363.293 278.996C363.531 278.996 363.753 279.008 363.959 279.032C364.165 279.055 364.343 279.087 364.494 279.127V280.665C364.272 280.609 364.05 280.57 363.828 280.546C363.614 280.514 363.384 280.498 363.138 280.498C362.472 280.498 361.877 280.649 361.354 280.951C360.839 281.253 360.43 281.671 360.129 282.203C359.835 282.736 359.689 283.348 359.689 284.039V292.04H358.119Z" fill="#183253"/>
<path d="M379.933 292.386C378.324 292.386 376.94 292.024 375.782 291.301C374.625 290.569 373.733 289.536 373.106 288.201C372.48 286.857 372.167 285.272 372.167 283.443V283.419C372.167 281.583 372.48 279.997 373.106 278.662C373.74 277.327 374.636 276.297 375.794 275.574C376.96 274.851 378.339 274.489 379.933 274.489C381.535 274.489 382.915 274.851 384.072 275.574C385.238 276.297 386.134 277.331 386.76 278.674C387.395 280.009 387.712 281.591 387.712 283.419V283.443C387.712 285.272 387.399 286.853 386.772 288.189C386.146 289.524 385.25 290.558 384.084 291.289C382.927 292.02 381.543 292.386 379.933 292.386ZM379.933 290.895C381.194 290.895 382.28 290.589 383.192 289.977C384.104 289.357 384.81 288.491 385.309 287.378C385.809 286.257 386.059 284.946 386.059 283.443V283.419C386.059 281.901 385.809 280.586 385.309 279.473C384.81 278.36 384.104 277.501 383.192 276.897C382.28 276.285 381.194 275.979 379.933 275.979C378.688 275.979 377.606 276.285 376.686 276.897C375.774 277.501 375.069 278.36 374.569 279.473C374.07 280.586 373.82 281.901 373.82 283.419V283.443C373.82 284.946 374.066 286.257 374.557 287.378C375.049 288.491 375.751 289.357 376.662 289.977C377.582 290.589 378.672 290.895 379.933 290.895Z" fill="#183253"/>
<path d="M390.817 292.04V274.119H392.387V292.04H390.817Z" fill="#183253"/>
<path d="M400.761 292.255C399.69 292.255 398.746 291.98 397.93 291.432C397.113 290.875 396.479 290.1 396.027 289.107C395.575 288.113 395.349 286.957 395.349 285.637V285.613C395.349 284.294 395.575 283.137 396.027 282.144C396.479 281.15 397.109 280.379 397.918 279.831C398.735 279.274 399.682 278.996 400.761 278.996C401.411 278.996 402.017 279.111 402.58 279.342C403.143 279.564 403.639 279.878 404.067 280.284C404.503 280.689 404.836 281.174 405.066 281.738H405.209V274.119H406.779V292.04H405.209V289.465H405.066C404.82 290.045 404.483 290.542 404.055 290.955C403.635 291.368 403.143 291.69 402.58 291.921C402.025 292.143 401.419 292.255 400.761 292.255ZM401.094 290.86C401.926 290.86 402.656 290.645 403.282 290.216C403.908 289.779 404.392 289.17 404.733 288.391C405.074 287.605 405.245 286.686 405.245 285.637V285.613C405.245 284.556 405.07 283.638 404.721 282.859C404.38 282.08 403.897 281.476 403.27 281.047C402.652 280.617 401.926 280.403 401.094 280.403C400.253 280.403 399.52 280.617 398.893 281.047C398.275 281.476 397.795 282.08 397.454 282.859C397.121 283.638 396.954 284.556 396.954 285.613V285.637C396.954 286.694 397.121 287.616 397.454 288.403C397.795 289.182 398.275 289.786 398.893 290.216C399.52 290.645 400.253 290.86 401.094 290.86Z" fill="#183253"/>
<path d="M423.455 292.386C421.901 292.386 420.557 292.024 419.423 291.301C418.297 290.569 417.425 289.536 416.806 288.201C416.196 286.865 415.891 285.283 415.891 283.455V283.431C415.891 281.595 416.196 280.009 416.806 278.674C417.425 277.339 418.297 276.309 419.423 275.586C420.557 274.855 421.901 274.489 423.455 274.489C424.629 274.489 425.703 274.731 426.678 275.216C427.662 275.693 428.47 276.353 429.105 277.195C429.747 278.03 430.144 278.988 430.294 280.069L430.282 280.093L428.665 280.105L428.653 280.069C428.486 279.258 428.153 278.551 427.654 277.947C427.162 277.335 426.555 276.854 425.834 276.504C425.112 276.154 424.319 275.979 423.455 275.979C422.25 275.979 421.203 276.285 420.315 276.897C419.435 277.509 418.753 278.372 418.269 279.485C417.786 280.598 417.544 281.913 417.544 283.431V283.455C417.544 284.965 417.786 286.277 418.269 287.39C418.753 288.503 419.435 289.365 420.315 289.977C421.203 290.589 422.25 290.895 423.455 290.895C424.351 290.895 425.16 290.74 425.882 290.43C426.603 290.12 427.206 289.683 427.689 289.119C428.173 288.554 428.49 287.895 428.641 287.139L428.665 287.116H430.294V287.139C430.136 288.189 429.743 289.107 429.117 289.894C428.49 290.681 427.693 291.293 426.726 291.73C425.759 292.167 424.668 292.386 423.455 292.386Z" fill="#183253"/>
<path d="M436.705 292.255C435.881 292.255 435.147 292.104 434.505 291.802C433.863 291.492 433.355 291.054 432.983 290.49C432.618 289.926 432.436 289.266 432.436 288.511V288.487C432.436 287.74 432.614 287.1 432.971 286.567C433.328 286.035 433.847 285.617 434.529 285.315C435.219 285.005 436.055 284.818 437.038 284.755L441.82 284.445V285.721L437.253 286.031C436.166 286.102 435.357 286.345 434.826 286.758C434.295 287.163 434.029 287.728 434.029 288.451V288.475C434.029 289.214 434.307 289.802 434.862 290.24C435.425 290.669 436.139 290.883 437.003 290.883C437.772 290.883 438.458 290.724 439.06 290.406C439.671 290.081 440.151 289.647 440.5 289.107C440.856 288.558 441.035 287.942 441.035 287.259V283.288C441.035 282.35 440.757 281.635 440.202 281.142C439.655 280.649 438.862 280.403 437.823 280.403C436.951 280.403 436.226 280.578 435.647 280.927C435.068 281.269 434.691 281.758 434.517 282.394V282.43H432.947V282.37C433.058 281.687 433.336 281.094 433.78 280.594C434.224 280.085 434.794 279.691 435.492 279.413C436.19 279.135 436.983 278.996 437.871 278.996C438.87 278.996 439.723 279.167 440.428 279.509C441.134 279.842 441.673 280.331 442.046 280.975C442.419 281.611 442.605 282.378 442.605 283.276V292.04H441.035V289.822H440.892C440.638 290.331 440.305 290.768 439.893 291.134C439.481 291.492 439.005 291.77 438.466 291.968C437.927 292.159 437.34 292.255 436.705 292.255Z" fill="#183253"/>
<path d="M445.995 292.04V279.21H447.565V281.333H447.708C447.962 280.602 448.386 280.029 448.98 279.616C449.583 279.203 450.313 278.996 451.169 278.996C451.407 278.996 451.629 279.008 451.835 279.032C452.041 279.055 452.22 279.087 452.37 279.127V280.665C452.148 280.609 451.926 280.57 451.704 280.546C451.49 280.514 451.26 280.498 451.014 280.498C450.348 280.498 449.754 280.649 449.23 280.951C448.715 281.253 448.307 281.671 448.005 282.203C447.712 282.736 447.565 283.348 447.565 284.039V292.04H445.995Z" fill="#183253"/>
<path d="M464.075 292.255C463.25 292.255 462.517 292.104 461.874 291.802C461.232 291.492 460.725 291.054 460.352 290.49C459.987 289.926 459.805 289.266 459.805 288.511V288.487C459.805 287.74 459.983 287.1 460.34 286.567C460.697 286.035 461.216 285.617 461.898 285.315C462.588 285.005 463.425 284.818 464.408 284.755L469.189 284.445V285.721L464.622 286.031C463.536 286.102 462.727 286.345 462.196 286.758C461.664 287.163 461.399 287.728 461.399 288.451V288.475C461.399 289.214 461.676 289.802 462.231 290.24C462.794 290.669 463.508 290.883 464.372 290.883C465.141 290.883 465.827 290.724 466.43 290.406C467.04 290.081 467.52 289.647 467.869 289.107C468.226 288.558 468.404 287.942 468.404 287.259V283.288C468.404 282.35 468.127 281.635 467.572 281.142C467.025 280.649 466.232 280.403 465.193 280.403C464.321 280.403 463.595 280.578 463.016 280.927C462.437 281.269 462.061 281.758 461.886 282.394V282.43H460.316V282.37C460.427 281.687 460.705 281.094 461.149 280.594C461.593 280.085 462.164 279.691 462.862 279.413C463.559 279.135 464.352 278.996 465.24 278.996C466.24 278.996 467.092 279.167 467.798 279.509C468.503 279.842 469.043 280.331 469.415 280.975C469.788 281.611 469.974 282.378 469.974 283.276V292.04H468.404V289.822H468.262C468.008 290.331 467.675 290.768 467.262 291.134C466.85 291.492 466.374 291.77 465.835 291.968C465.296 292.159 464.709 292.255 464.075 292.255Z" fill="#183253"/>
<path d="M479.574 292.04V274.835H489.755V276.301H481.191V282.776H489.065V284.218H481.191V292.04H479.574Z" fill="#183253"/>
<path d="M492.562 292.04V279.21H494.132V281.333H494.275C494.529 280.602 494.953 280.029 495.548 279.616C496.15 279.203 496.88 278.996 497.736 278.996C497.974 278.996 498.196 279.008 498.402 279.032C498.608 279.055 498.787 279.087 498.937 279.127V280.665C498.715 280.609 498.493 280.57 498.271 280.546C498.057 280.514 497.827 280.498 497.582 280.498C496.915 280.498 496.321 280.649 495.797 280.951C495.282 281.253 494.874 281.671 494.572 282.203C494.279 282.736 494.132 283.348 494.132 284.039V292.04H492.562Z" fill="#183253"/>
<path d="M505.848 292.255C504.651 292.255 503.616 291.988 502.744 291.456C501.88 290.915 501.214 290.152 500.746 289.166C500.278 288.173 500.044 287.008 500.044 285.673V285.649C500.044 284.314 500.278 283.149 500.746 282.156C501.214 281.154 501.872 280.379 502.72 279.831C503.577 279.274 504.576 278.996 505.717 278.996C506.867 278.996 507.854 279.266 508.679 279.807C509.512 280.339 510.15 281.086 510.594 282.048C511.038 283.002 511.26 284.111 511.26 285.375V286.031H500.853V284.755H510.475L509.702 285.911V285.315C509.702 284.242 509.531 283.344 509.191 282.621C508.857 281.889 508.39 281.337 507.787 280.963C507.192 280.59 506.499 280.403 505.706 280.403C504.921 280.403 504.223 280.598 503.612 280.987C503.002 281.369 502.522 281.925 502.173 282.656C501.824 283.388 501.65 284.274 501.65 285.315V285.911C501.65 286.937 501.82 287.819 502.161 288.558C502.51 289.29 503.002 289.854 503.636 290.251C504.27 290.649 505.02 290.848 505.884 290.848C506.502 290.848 507.054 290.76 507.537 290.585C508.029 290.41 508.437 290.176 508.762 289.882C509.087 289.588 509.317 289.274 509.452 288.94L509.5 288.845H511.07L511.046 288.952C510.919 289.389 510.709 289.806 510.416 290.204C510.122 290.601 509.754 290.955 509.309 291.265C508.873 291.567 508.362 291.809 507.775 291.992C507.196 292.167 506.554 292.255 505.848 292.255Z" fill="#183253"/>
<path d="M518.397 292.255C517.469 292.255 516.645 292.115 515.923 291.837C515.209 291.551 514.634 291.15 514.198 290.633C513.762 290.116 513.501 289.508 513.413 288.809V288.797H515.019V288.809C515.186 289.453 515.566 289.969 516.161 290.359C516.756 290.74 517.517 290.931 518.444 290.931C519.079 290.931 519.642 290.832 520.133 290.633C520.625 290.434 521.014 290.164 521.299 289.822C521.584 289.472 521.727 289.075 521.727 288.63V288.606C521.727 288.05 521.517 287.597 521.097 287.247C520.685 286.897 520.011 286.615 519.075 286.4L517.303 285.971C516.51 285.788 515.856 285.55 515.34 285.256C514.825 284.962 514.44 284.6 514.186 284.171C513.933 283.733 513.806 283.217 513.806 282.621V282.609C513.806 281.917 514.012 281.301 514.424 280.761C514.837 280.212 515.392 279.783 516.089 279.473C516.787 279.155 517.564 278.996 518.421 278.996C519.277 278.996 520.038 279.135 520.704 279.413C521.378 279.691 521.921 280.081 522.334 280.582C522.754 281.082 523.016 281.671 523.119 282.346V282.358H521.573V282.346C521.438 281.742 521.089 281.257 520.526 280.892C519.971 280.518 519.265 280.331 518.409 280.331C517.854 280.331 517.346 280.427 516.886 280.617C516.434 280.808 516.074 281.071 515.804 281.404C515.542 281.73 515.411 282.112 515.411 282.549V282.573C515.411 282.915 515.499 283.217 515.673 283.479C515.856 283.733 516.129 283.956 516.494 284.147C516.859 284.33 517.326 284.489 517.897 284.624L519.658 285.053C520.903 285.347 521.826 285.764 522.429 286.305C523.032 286.837 523.333 287.565 523.333 288.487V288.511C523.333 289.242 523.115 289.89 522.679 290.454C522.243 291.019 521.652 291.46 520.907 291.778C520.169 292.096 519.333 292.255 518.397 292.255Z" fill="#183253"/>
<path d="M526.236 292.04V274.119H527.806V281.476H527.948C528.289 280.697 528.801 280.089 529.483 279.652C530.172 279.214 531.013 278.996 532.004 278.996C532.956 278.996 533.764 279.183 534.43 279.556C535.104 279.93 535.616 280.47 535.965 281.178C536.322 281.877 536.5 282.724 536.5 283.718V292.04H534.93V284.111C534.93 282.879 534.652 281.953 534.097 281.333C533.542 280.713 532.71 280.403 531.6 280.403C530.846 280.403 530.184 280.57 529.613 280.904C529.05 281.237 528.606 281.706 528.281 282.311C527.964 282.907 527.806 283.61 527.806 284.421V292.04H526.236Z" fill="#183253"/>
<path d="M7.16061 320.875C5.95536 320.875 4.89283 320.676 3.97303 320.278C3.05323 319.873 2.31977 319.317 1.77265 318.609C1.23346 317.894 0.920253 317.079 0.833031 316.165L0.821137 316.034H2.43871L2.45061 316.165C2.51404 316.801 2.75589 317.361 3.17614 317.846C3.60432 318.323 4.1673 318.701 4.86508 318.979C5.57079 319.249 6.36768 319.384 7.25576 319.384C8.12006 319.384 8.88524 319.241 9.5513 318.955C10.2174 318.661 10.7407 318.263 11.1213 317.763C11.5019 317.254 11.6922 316.678 11.6922 316.034V316.022C11.6922 315.219 11.3949 314.547 10.8002 314.007C10.2055 313.458 9.24602 313.033 7.92183 312.731L6.14963 312.337C4.42897 311.948 3.1801 311.38 2.40303 310.632C1.63389 309.877 1.24932 308.907 1.24932 307.723V307.711C1.25725 306.797 1.51099 305.986 2.01053 305.279C2.51008 304.563 3.19993 304.003 4.08008 303.598C4.96023 303.184 5.97122 302.978 7.11304 302.978C8.23107 302.978 9.21827 303.176 10.0746 303.574C10.9389 303.963 11.6248 304.492 12.1323 305.16C12.6477 305.827 12.9371 306.578 13.0005 307.413L13.0124 307.556H11.4068L11.383 307.413C11.3037 306.857 11.0777 306.356 10.705 305.911C10.3323 305.466 9.83675 305.116 9.21827 304.862C8.60771 304.599 7.89407 304.468 7.07736 304.468C6.28443 304.468 5.57079 304.603 4.93644 304.873C4.31003 305.144 3.81445 305.517 3.4497 305.994C3.08495 306.471 2.90258 307.032 2.90258 307.675V307.687C2.90258 308.442 3.18803 309.074 3.75894 309.583C4.32985 310.084 5.26551 310.477 6.56592 310.764L8.32622 311.169C9.52355 311.439 10.487 311.785 11.2165 312.206C11.9539 312.628 12.4931 313.136 12.834 313.732C13.175 314.329 13.3455 315.028 13.3455 315.831V315.843C13.3455 316.852 13.0878 317.735 12.5724 318.49C12.057 319.245 11.3354 319.833 10.4077 320.255C9.47993 320.668 8.39758 320.875 7.16061 320.875Z" fill="#183253"/>
<path d="M20.3991 320.624C19.1859 320.624 18.3097 320.37 17.7705 319.861C17.2313 319.344 16.9617 318.506 16.9617 317.345V309.023H14.9159V307.699H16.9617V304.373H18.5793V307.699H21.4933V309.023H18.5793V316.999C18.5793 317.786 18.7339 318.355 19.0431 318.704C19.3524 319.054 19.8638 319.229 20.5775 319.229C20.7519 319.229 20.9065 319.225 21.0413 319.217C21.1841 319.201 21.3347 319.189 21.4933 319.181V320.529C21.3189 320.553 21.1404 320.572 20.9581 320.588C20.7757 320.612 20.5894 320.624 20.3991 320.624Z" fill="#183253"/>
<path d="M27.5954 320.743C26.7707 320.743 26.0373 320.592 25.395 320.29C24.7527 319.98 24.2452 319.543 23.8726 318.979C23.5078 318.414 23.3254 317.755 23.3254 316.999V316.976C23.3254 316.228 23.5039 315.589 23.8607 315.056C24.2175 314.523 24.7369 314.106 25.4188 313.804C26.1086 313.494 26.9452 313.307 27.9284 313.244L32.7098 312.934V314.209L28.1425 314.519C27.0562 314.591 26.2474 314.833 25.7161 315.247C25.1849 315.652 24.9192 316.216 24.9192 316.94V316.964C24.9192 317.703 25.1968 318.291 25.7518 318.728C26.3148 319.158 27.0284 319.372 27.8927 319.372C28.6619 319.372 29.3478 319.213 29.9504 318.895C30.5609 318.569 31.0407 318.136 31.3895 317.596C31.7464 317.047 31.9248 316.431 31.9248 315.748V311.777C31.9248 310.839 31.6472 310.124 31.0922 309.631C30.5451 309.138 29.7521 308.892 28.7134 308.892C27.8412 308.892 27.1157 309.066 26.5368 309.416C25.958 309.758 25.5813 310.247 25.4069 310.883V310.919H23.8369V310.859C23.9479 310.175 24.2254 309.583 24.6695 309.082C25.1135 308.574 25.6844 308.18 26.3822 307.902C27.08 307.624 27.8729 307.485 28.761 307.485C29.7601 307.485 30.6125 307.656 31.3182 307.997C32.0239 308.331 32.5631 308.82 32.9358 309.464C33.3084 310.1 33.4948 310.867 33.4948 311.765V320.529H31.9248V318.311H31.782C31.5283 318.82 31.1953 319.257 30.783 319.623C30.3706 319.98 29.8949 320.258 29.3557 320.457C28.8165 320.648 28.2297 320.743 27.5954 320.743Z" fill="#183253"/>
<path d="M36.885 320.529V307.699H38.455V309.822H38.5978C38.8515 309.09 39.2757 308.518 39.8704 308.105C40.473 307.691 41.2025 307.485 42.0589 307.485C42.2968 307.485 42.5188 307.497 42.725 307.52C42.9311 307.544 43.1095 307.576 43.2602 307.616V309.154C43.0382 309.098 42.8161 309.059 42.5941 309.035C42.38 309.003 42.1501 308.987 41.9043 308.987C41.2382 308.987 40.6435 309.138 40.1202 309.44C39.6048 309.742 39.1964 310.159 38.8951 310.692C38.6017 311.225 38.455 311.837 38.455 312.528V320.529H36.885Z" fill="#183253"/>
<path d="M49.8856 320.624C48.6724 320.624 47.7962 320.37 47.257 319.861C46.7178 319.344 46.4482 318.506 46.4482 317.345V309.023H44.4025V307.699H46.4482V304.373H48.0658V307.699H50.9798V309.023H48.0658V316.999C48.0658 317.786 48.2204 318.355 48.5297 318.704C48.8389 319.054 49.3504 319.229 50.064 319.229C50.2384 319.229 50.3931 319.225 50.5279 319.217C50.6706 319.201 50.8212 319.189 50.9798 319.181V320.529C50.8054 320.553 50.627 320.572 50.4446 320.588C50.2622 320.612 50.0759 320.624 49.8856 320.624Z" fill="#183253"/>
<path d="M62.1492 320.529L58.5334 307.699H60.1034L62.9461 318.609H63.0888L66.2526 307.699H67.8107L70.9745 318.609H71.1172L73.9718 307.699H75.5418L71.9023 320.529H70.249L67.0852 309.869H66.9425L63.7906 320.529H62.1492Z" fill="#183253"/>
<path d="M77.8854 320.529V307.699H79.4435V320.529H77.8854ZM78.6704 305.052C78.3611 305.052 78.0915 304.941 77.8616 304.718C77.6316 304.488 77.5167 304.218 77.5167 303.908C77.5167 303.59 77.6316 303.319 77.8616 303.097C78.0915 302.866 78.3611 302.751 78.6704 302.751C78.9876 302.751 79.2572 302.866 79.4792 303.097C79.7091 303.319 79.8241 303.59 79.8241 303.908C79.8241 304.218 79.7091 304.488 79.4792 304.718C79.2572 304.941 78.9876 305.052 78.6704 305.052Z" fill="#183253"/>
<path d="M87.2107 320.624C85.9975 320.624 85.1213 320.37 84.5822 319.861C84.043 319.344 83.7734 318.506 83.7734 317.345V309.023H81.7276V307.699H83.7734V304.373H85.3909V307.699H88.305V309.023H85.3909V316.999C85.3909 317.786 85.5456 318.355 85.8548 318.704C86.164 319.054 86.6755 319.229 87.3891 319.229C87.5636 319.229 87.7182 319.225 87.853 319.217C87.9957 319.201 88.1464 319.189 88.305 319.181V320.529C88.1305 320.553 87.9521 320.572 87.7697 320.588C87.5873 320.612 87.401 320.624 87.2107 320.624Z" fill="#183253"/>
<path d="M91.1719 320.529V302.608H92.7419V309.965H92.8846C93.2256 309.186 93.737 308.578 94.4189 308.14C95.1088 307.703 95.9493 307.485 96.9404 307.485C97.892 307.485 98.7008 307.671 99.3668 308.045C100.041 308.419 100.552 308.959 100.901 309.667C101.258 310.366 101.436 311.213 101.436 312.206V320.529H99.8664V312.6C99.8664 311.368 99.5888 310.442 99.0338 309.822C98.4787 309.202 97.6462 308.892 96.5361 308.892C95.7828 308.892 95.1207 309.059 94.5498 309.392C93.9868 309.726 93.5427 310.195 93.2176 310.799C92.9005 311.395 92.7419 312.099 92.7419 312.91V320.529H91.1719Z" fill="#183253"/>
<path d="M114.366 320.743C113.541 320.743 112.808 320.592 112.166 320.29C111.523 319.98 111.016 319.543 110.643 318.979C110.278 318.414 110.096 317.755 110.096 316.999V316.976C110.096 316.228 110.275 315.589 110.631 315.056C110.988 314.523 111.508 314.106 112.189 313.804C112.879 313.494 113.716 313.307 114.699 313.244L119.48 312.934V314.209L114.913 314.519C113.827 314.591 113.018 314.833 112.487 315.247C111.956 315.652 111.69 316.216 111.69 316.94V316.964C111.69 317.703 111.967 318.291 112.522 318.728C113.085 319.158 113.799 319.372 114.663 319.372C115.433 319.372 116.118 319.213 116.721 318.895C117.332 318.569 117.811 318.136 118.16 317.596C118.517 317.047 118.695 316.431 118.695 315.748V311.777C118.695 310.839 118.418 310.124 117.863 309.631C117.316 309.138 116.523 308.892 115.484 308.892C114.612 308.892 113.886 309.066 113.307 309.416C112.729 309.758 112.352 310.247 112.178 310.883V310.919H110.608V310.859C110.719 310.175 110.996 309.583 111.44 309.082C111.884 308.574 112.455 308.18 113.153 307.902C113.851 307.624 114.644 307.485 115.532 307.485C116.531 307.485 117.383 307.656 118.089 307.997C118.795 308.331 119.334 308.82 119.706 309.464C120.079 310.1 120.265 310.867 120.265 311.765V320.529H118.695V318.311H118.553C118.299 318.82 117.966 319.257 117.554 319.623C117.141 319.98 116.666 320.258 116.126 320.457C115.587 320.648 115 320.743 114.366 320.743Z" fill="#183253"/>
<path d="M134.456 320.529V304.79H128.711V303.323H141.83V304.79H136.073V320.529H134.456Z" fill="#183253"/>
<path d="M144.471 320.529V302.608H146.041V309.965H146.184C146.525 309.186 147.036 308.578 147.718 308.14C148.408 307.703 149.248 307.485 150.24 307.485C151.191 307.485 152 307.671 152.666 308.045C153.34 308.419 153.851 308.959 154.2 309.667C154.557 310.366 154.736 311.213 154.736 312.206V320.529H153.166V312.6C153.166 311.368 152.888 310.442 152.333 309.822C151.778 309.202 150.945 308.892 149.835 308.892C149.082 308.892 148.42 309.059 147.849 309.392C147.286 309.726 146.842 310.195 146.517 310.799C146.2 311.395 146.041 312.099 146.041 312.91V320.529H144.471Z" fill="#183253"/>
<path d="M163.288 320.743C162.098 320.743 161.068 320.477 160.195 319.945C159.331 319.404 158.661 318.641 158.185 317.655C157.709 316.662 157.472 315.485 157.472 314.126V314.102C157.472 312.743 157.709 311.57 158.185 310.585C158.661 309.591 159.331 308.828 160.195 308.295C161.068 307.755 162.098 307.485 163.288 307.485C164.477 307.485 165.504 307.755 166.368 308.295C167.241 308.828 167.915 309.591 168.39 310.585C168.866 311.57 169.104 312.743 169.104 314.102V314.126C169.104 315.485 168.866 316.662 168.39 317.655C167.915 318.641 167.241 319.404 166.368 319.945C165.504 320.477 164.477 320.743 163.288 320.743ZM163.288 319.348C164.168 319.348 164.921 319.138 165.548 318.716C166.174 318.295 166.654 317.695 166.987 316.916C167.328 316.137 167.498 315.207 167.498 314.126V314.102C167.498 313.021 167.328 312.091 166.987 311.312C166.654 310.533 166.174 309.937 165.548 309.524C164.921 309.102 164.168 308.892 163.288 308.892C162.408 308.892 161.654 309.102 161.028 309.524C160.401 309.937 159.918 310.533 159.577 311.312C159.244 312.091 159.077 313.021 159.077 314.102V314.126C159.077 315.207 159.244 316.137 159.577 316.916C159.918 317.695 160.401 318.295 161.028 318.716C161.654 319.138 162.408 319.348 163.288 319.348Z" fill="#183253"/>
<path d="M171.923 320.529V307.699H173.493V309.822H173.636C173.89 309.09 174.314 308.518 174.909 308.105C175.511 307.691 176.241 307.485 177.097 307.485C177.335 307.485 177.557 307.497 177.763 307.52C177.969 307.544 178.148 307.576 178.298 307.616V309.154C178.076 309.098 177.854 309.059 177.632 309.035C177.418 309.003 177.188 308.987 176.942 308.987C176.276 308.987 175.682 309.138 175.158 309.44C174.643 309.742 174.235 310.159 173.933 310.692C173.64 311.225 173.493 311.837 173.493 312.528V320.529H171.923Z" fill="#183253"/>
<path d="M185.221 320.743C184.032 320.743 183.001 320.477 182.129 319.945C181.264 319.404 180.594 318.641 180.119 317.655C179.643 316.662 179.405 315.485 179.405 314.126V314.102C179.405 312.743 179.643 311.57 180.119 310.585C180.594 309.591 181.264 308.828 182.129 308.295C183.001 307.755 184.032 307.485 185.221 307.485C186.411 307.485 187.437 307.755 188.302 308.295C189.174 308.828 189.848 309.591 190.324 310.585C190.799 311.57 191.037 312.743 191.037 314.102V314.126C191.037 315.485 190.799 316.662 190.324 317.655C189.848 318.641 189.174 319.404 188.302 319.945C187.437 320.477 186.411 320.743 185.221 320.743ZM185.221 319.348C186.101 319.348 186.855 319.138 187.481 318.716C188.107 318.295 188.587 317.695 188.92 316.916C189.261 316.137 189.432 315.207 189.432 314.126V314.102C189.432 313.021 189.261 312.091 188.92 311.312C188.587 310.533 188.107 309.937 187.481 309.524C186.855 309.102 186.101 308.892 185.221 308.892C184.341 308.892 183.588 309.102 182.961 309.524C182.335 309.937 181.851 310.533 181.51 311.312C181.177 312.091 181.011 313.021 181.011 314.102V314.126C181.011 315.207 181.177 316.137 181.51 316.916C181.851 317.695 182.335 318.295 182.961 318.716C183.588 319.138 184.341 319.348 185.221 319.348Z" fill="#183253"/>
<path d="M198.257 320.743C197.298 320.743 196.481 320.557 195.807 320.183C195.141 319.809 194.634 319.269 194.285 318.561C193.936 317.854 193.762 317.011 193.762 316.034V307.699H195.32V315.652C195.32 316.844 195.597 317.759 196.152 318.394C196.707 319.03 197.532 319.348 198.626 319.348C199.221 319.348 199.752 319.253 200.22 319.062C200.696 318.871 201.1 318.601 201.433 318.251C201.766 317.894 202.016 317.468 202.182 316.976C202.357 316.483 202.444 315.93 202.444 315.318V307.699H204.014V320.529H202.444V318.287H202.301C202.095 318.804 201.802 319.245 201.421 319.611C201.041 319.976 200.581 320.258 200.042 320.457C199.51 320.648 198.916 320.743 198.257 320.743Z" fill="#183253"/>
<path d="M212.673 325C211.698 325 210.838 324.865 210.092 324.595C209.355 324.324 208.76 323.939 208.308 323.438C207.856 322.945 207.571 322.369 207.452 321.709L207.476 321.697H209.093L209.105 321.709C209.248 322.266 209.632 322.719 210.259 323.068C210.893 323.426 211.702 323.605 212.685 323.605C213.914 323.605 214.886 323.307 215.599 322.711C216.313 322.115 216.67 321.296 216.67 320.255V317.405H216.527C216.281 317.969 215.944 318.454 215.516 318.859C215.096 319.265 214.608 319.575 214.053 319.79C213.498 319.996 212.891 320.1 212.233 320.1C211.139 320.1 210.188 319.833 209.379 319.301C208.57 318.768 207.944 318.029 207.499 317.083C207.055 316.137 206.833 315.048 206.833 313.816V313.792C206.833 312.568 207.055 311.483 207.499 310.537C207.951 309.583 208.582 308.836 209.391 308.295C210.207 307.755 211.167 307.485 212.269 307.485C212.927 307.485 213.534 307.604 214.089 307.842C214.644 308.073 215.131 308.399 215.552 308.82C215.972 309.241 216.305 309.742 216.551 310.322H216.658V307.699H218.228V320.374C218.228 321.304 217.998 322.115 217.538 322.806C217.086 323.506 216.44 324.046 215.599 324.428C214.767 324.809 213.791 325 212.673 325ZM212.543 318.693C213.399 318.693 214.136 318.49 214.755 318.084C215.373 317.671 215.853 317.103 216.194 316.379C216.535 315.648 216.705 314.802 216.705 313.84V313.816C216.705 312.854 216.535 312.004 216.194 311.264C215.853 310.517 215.369 309.937 214.743 309.524C214.124 309.102 213.391 308.892 212.543 308.892C211.694 308.892 210.961 309.102 210.342 309.524C209.732 309.937 209.26 310.513 208.927 311.252C208.602 311.984 208.439 312.83 208.439 313.792V313.816C208.439 314.778 208.602 315.624 208.927 316.356C209.26 317.087 209.732 317.659 210.342 318.073C210.961 318.486 211.694 318.693 212.543 318.693Z" fill="#183253"/>
<path d="M221.808 320.529V302.608H223.378V309.965H223.521C223.862 309.186 224.374 308.578 225.055 308.14C225.745 307.703 226.586 307.485 227.577 307.485C228.528 307.485 229.337 307.671 230.003 308.045C230.677 308.419 231.189 308.959 231.538 309.667C231.894 310.366 232.073 311.213 232.073 312.206V320.529H230.503V312.6C230.503 311.368 230.225 310.442 229.67 309.822C229.115 309.202 228.283 308.892 227.173 308.892C226.419 308.892 225.757 309.059 225.186 309.392C224.623 309.726 224.179 310.195 223.854 310.799C223.537 311.395 223.378 312.099 223.378 312.91V320.529H221.808Z" fill="#183253"/>
<path d="M245.003 320.743C244.178 320.743 243.444 320.592 242.802 320.29C242.16 319.98 241.652 319.543 241.28 318.979C240.915 318.414 240.733 317.755 240.733 316.999V316.976C240.733 316.228 240.911 315.589 241.268 315.056C241.625 314.523 242.144 314.106 242.826 313.804C243.516 313.494 244.352 313.307 245.336 313.244L250.117 312.934V314.209L245.55 314.519C244.463 314.591 243.655 314.833 243.123 315.247C242.592 315.652 242.326 316.216 242.326 316.94V316.964C242.326 317.703 242.604 318.291 243.159 318.728C243.722 319.158 244.436 319.372 245.3 319.372C246.069 319.372 246.755 319.213 247.358 318.895C247.968 318.569 248.448 318.136 248.797 317.596C249.154 317.047 249.332 316.431 249.332 315.748V311.777C249.332 310.839 249.054 310.124 248.499 309.631C247.952 309.138 247.159 308.892 246.121 308.892C245.248 308.892 244.523 309.066 243.944 309.416C243.365 309.758 242.989 310.247 242.814 310.883V310.919H241.244V310.859C241.355 310.175 241.633 309.583 242.077 309.082C242.521 308.574 243.092 308.18 243.789 307.902C244.487 307.624 245.28 307.485 246.168 307.485C247.167 307.485 248.02 307.656 248.725 307.997C249.431 308.331 249.97 308.82 250.343 309.464C250.716 310.1 250.902 310.867 250.902 311.765V320.529H249.332V318.311H249.189C248.935 318.82 248.602 319.257 248.19 319.623C247.778 319.98 247.302 320.258 246.763 320.457C246.224 320.648 245.637 320.743 245.003 320.743Z" fill="#183253"/>
<path d="M254.292 320.529V307.699H255.862V309.953H256.005C256.346 309.182 256.857 308.578 257.539 308.14C258.229 307.703 259.07 307.485 260.061 307.485C261.488 307.485 262.594 307.898 263.379 308.725C264.164 309.543 264.557 310.7 264.557 312.194V320.529H262.987V312.576C262.987 311.36 262.709 310.442 262.154 309.822C261.599 309.202 260.766 308.892 259.656 308.892C258.903 308.892 258.241 309.059 257.67 309.392C257.107 309.726 256.663 310.195 256.338 310.799C256.021 311.395 255.862 312.099 255.862 312.91V320.529H254.292Z" fill="#183253"/>
<path d="M272.681 320.743C271.61 320.743 270.667 320.469 269.85 319.921C269.033 319.364 268.399 318.589 267.947 317.596C267.495 316.602 267.269 315.445 267.269 314.126V314.102C267.269 312.783 267.495 311.626 267.947 310.632C268.399 309.639 269.029 308.868 269.838 308.319C270.655 307.763 271.602 307.485 272.681 307.485C273.331 307.485 273.938 307.6 274.5 307.83C275.063 308.053 275.559 308.367 275.987 308.772C276.423 309.178 276.756 309.663 276.986 310.227H277.129V302.608H278.699V320.529H277.129V317.953H276.986C276.741 318.534 276.404 319.03 275.975 319.444C275.555 319.857 275.063 320.179 274.5 320.41C273.945 320.632 273.339 320.743 272.681 320.743ZM273.014 319.348C273.846 319.348 274.576 319.134 275.202 318.704C275.829 318.267 276.312 317.659 276.653 316.88C276.994 316.093 277.165 315.175 277.165 314.126V314.102C277.165 313.045 276.99 312.127 276.641 311.348C276.3 310.569 275.817 309.965 275.19 309.535C274.572 309.106 273.846 308.892 273.014 308.892C272.173 308.892 271.44 309.106 270.813 309.535C270.195 309.965 269.715 310.569 269.374 311.348C269.041 312.127 268.875 313.045 268.875 314.102V314.126C268.875 315.183 269.041 316.105 269.374 316.892C269.715 317.671 270.195 318.275 270.813 318.704C271.44 319.134 272.173 319.348 273.014 319.348Z" fill="#183253"/>
<path d="M288.501 320.529V303.323H294.638C295.756 303.323 296.723 303.53 297.54 303.943C298.365 304.357 298.999 304.937 299.443 305.684C299.895 306.431 300.121 307.318 300.121 308.343V308.367C300.121 309.575 299.796 310.613 299.146 311.479C298.496 312.337 297.596 312.918 296.446 313.22L300.609 320.529H298.718L294.757 313.47C294.709 313.478 294.654 313.482 294.59 313.482C294.535 313.482 294.479 313.482 294.424 313.482H290.118V320.529H288.501ZM290.118 312.039H294.507C295.752 312.039 296.719 311.721 297.409 311.085C298.107 310.45 298.456 309.559 298.456 308.415V308.391C298.456 307.262 298.099 306.38 297.385 305.744C296.672 305.1 295.689 304.778 294.436 304.778H290.118V312.039Z" fill="#183253"/>
<path d="M308.055 320.743C306.857 320.743 305.823 320.477 304.95 319.945C304.086 319.404 303.42 318.641 302.952 317.655C302.484 316.662 302.251 315.497 302.251 314.162V314.138C302.251 312.802 302.484 311.638 302.952 310.644C303.42 309.643 304.078 308.868 304.927 308.319C305.783 307.763 306.782 307.485 307.924 307.485C309.074 307.485 310.061 307.755 310.886 308.295C311.718 308.828 312.356 309.575 312.8 310.537C313.244 311.491 313.467 312.6 313.467 313.864V314.519H303.059V313.244H312.682L311.908 314.4V313.804C311.908 312.731 311.738 311.833 311.397 311.109C311.064 310.378 310.596 309.826 309.993 309.452C309.399 309.078 308.705 308.892 307.912 308.892C307.127 308.892 306.429 309.086 305.819 309.476C305.208 309.857 304.728 310.414 304.38 311.145C304.031 311.876 303.856 312.763 303.856 313.804V314.4C303.856 315.426 304.027 316.308 304.368 317.047C304.717 317.778 305.208 318.343 305.842 318.74C306.477 319.138 307.226 319.336 308.09 319.336C308.709 319.336 309.26 319.249 309.744 319.074C310.235 318.899 310.644 318.665 310.969 318.371C311.294 318.077 311.524 317.763 311.659 317.429L311.706 317.333H313.276L313.252 317.441C313.126 317.878 312.915 318.295 312.622 318.693C312.329 319.09 311.96 319.444 311.516 319.754C311.08 320.056 310.568 320.298 309.982 320.481C309.403 320.656 308.76 320.743 308.055 320.743Z" fill="#183253"/>
<path d="M314.335 324.893C314.288 324.893 314.24 324.893 314.193 324.893C314.145 324.893 314.093 324.893 314.038 324.893V323.498C314.085 323.498 314.129 323.498 314.169 323.498C314.208 323.498 314.252 323.498 314.3 323.498C315.029 323.498 315.556 323.335 315.881 323.009C316.207 322.691 316.369 322.146 316.369 321.375V307.699H317.939V321.34C317.939 322.588 317.638 323.49 317.035 324.046C316.44 324.611 315.54 324.893 314.335 324.893ZM317.154 305.052C316.837 305.052 316.563 304.941 316.333 304.718C316.111 304.488 316 304.218 316 303.908C316 303.59 316.111 303.319 316.333 303.097C316.563 302.866 316.837 302.751 317.154 302.751C317.471 302.751 317.741 302.866 317.963 303.097C318.185 303.319 318.296 303.59 318.296 303.908C318.296 304.218 318.185 304.488 317.963 304.718C317.741 304.941 317.471 305.052 317.154 305.052Z" fill="#183253"/>
<path d="M325.873 320.743C324.913 320.743 324.097 320.557 323.423 320.183C322.757 319.809 322.249 319.269 321.9 318.561C321.551 317.854 321.377 317.011 321.377 316.034V307.699H322.935V315.652C322.935 316.844 323.213 317.759 323.768 318.394C324.323 319.03 325.147 319.348 326.242 319.348C326.836 319.348 327.368 319.253 327.835 319.062C328.311 318.871 328.715 318.601 329.049 318.251C329.382 317.894 329.631 317.468 329.798 316.976C329.972 316.483 330.06 315.93 330.06 315.318V307.699H331.63V320.529H330.06V318.287H329.917C329.711 318.804 329.417 319.245 329.037 319.611C328.656 319.976 328.196 320.258 327.657 320.457C327.126 320.648 326.531 320.743 325.873 320.743Z" fill="#183253"/>
<path d="M338.659 320.529L333.878 307.699H335.543L339.421 318.836H339.563L343.429 307.699H345.094L340.313 320.529H338.659Z" fill="#183253"/>
<path d="M352.088 320.743C350.891 320.743 349.856 320.477 348.984 319.945C348.119 319.404 347.453 318.641 346.986 317.655C346.518 316.662 346.284 315.497 346.284 314.162V314.138C346.284 312.802 346.518 311.638 346.986 310.644C347.453 309.643 348.112 308.868 348.96 308.319C349.816 307.763 350.815 307.485 351.957 307.485C353.107 307.485 354.094 307.755 354.919 308.295C355.751 308.828 356.39 309.575 356.834 310.537C357.278 311.491 357.5 312.6 357.5 313.864V314.519H347.093V313.244H356.715L355.942 314.4V313.804C355.942 312.731 355.771 311.833 355.43 311.109C355.097 310.378 354.629 309.826 354.027 309.452C353.432 309.078 352.738 308.892 351.945 308.892C351.16 308.892 350.463 309.086 349.852 309.476C349.241 309.857 348.762 310.414 348.413 311.145C348.064 311.876 347.889 312.763 347.889 313.804V314.4C347.889 315.426 348.06 316.308 348.401 317.047C348.75 317.778 349.241 318.343 349.876 318.74C350.51 319.138 351.259 319.336 352.124 319.336C352.742 319.336 353.293 319.249 353.777 319.074C354.269 318.899 354.677 318.665 355.002 318.371C355.327 318.077 355.557 317.763 355.692 317.429L355.74 317.333H357.31L357.286 317.441C357.159 317.878 356.949 318.295 356.655 318.693C356.362 319.09 355.993 319.444 355.549 319.754C355.113 320.056 354.602 320.298 354.015 320.481C353.436 320.656 352.794 320.743 352.088 320.743Z" fill="#183253"/>
<path d="M360.331 320.529V307.699H361.901V309.953H362.044C362.385 309.182 362.896 308.578 363.578 308.14C364.268 307.703 365.108 307.485 366.1 307.485C367.527 307.485 368.633 307.898 369.418 308.725C370.203 309.543 370.596 310.7 370.596 312.194V320.529H369.026V312.576C369.026 311.36 368.748 310.442 368.193 309.822C367.638 309.202 366.805 308.892 365.695 308.892C364.942 308.892 364.28 309.059 363.709 309.392C363.146 309.726 362.702 310.195 362.377 310.799C362.06 311.395 361.901 312.099 361.901 312.91V320.529H360.331Z" fill="#183253"/>
<path d="M377.495 320.743C376.67 320.743 375.936 320.592 375.294 320.29C374.652 319.98 374.144 319.543 373.772 318.979C373.407 318.414 373.225 317.755 373.225 316.999V316.976C373.225 316.228 373.403 315.589 373.76 315.056C374.117 314.523 374.636 314.106 375.318 313.804C376.008 313.494 376.844 313.307 377.828 313.244L382.609 312.934V314.209L378.042 314.519C376.955 314.591 376.147 314.833 375.615 315.247C375.084 315.652 374.818 316.216 374.818 316.94V316.964C374.818 317.703 375.096 318.291 375.651 318.728C376.214 319.158 376.928 319.372 377.792 319.372C378.561 319.372 379.247 319.213 379.85 318.895C380.46 318.569 380.94 318.136 381.289 317.596C381.645 317.047 381.824 316.431 381.824 315.748V311.777C381.824 310.839 381.546 310.124 380.991 309.631C380.444 309.138 379.651 308.892 378.613 308.892C377.74 308.892 377.015 309.066 376.436 309.416C375.857 309.758 375.48 310.247 375.306 310.883V310.919H373.736V310.859C373.847 310.175 374.125 309.583 374.569 309.082C375.013 308.574 375.584 308.18 376.281 307.902C376.979 307.624 377.772 307.485 378.66 307.485C379.659 307.485 380.512 307.656 381.217 307.997C381.923 308.331 382.462 308.82 382.835 309.464C383.208 310.1 383.394 310.867 383.394 311.765V320.529H381.824V318.311H381.681C381.427 318.82 381.094 319.257 380.682 319.623C380.27 319.98 379.794 320.258 379.255 320.457C378.716 320.648 378.129 320.743 377.495 320.743Z" fill="#183253"/>
<path d="M390.995 320.624C389.781 320.624 388.905 320.37 388.366 319.861C387.827 319.344 387.557 318.506 387.557 317.345V309.023H385.512V307.699H387.557V304.373H389.175V307.699H392.089V309.023H389.175V316.999C389.175 317.786 389.329 318.355 389.639 318.704C389.948 319.054 390.459 319.229 391.173 319.229C391.347 319.229 391.502 319.225 391.637 319.217C391.78 319.201 391.93 319.189 392.089 319.181V320.529C391.914 320.553 391.736 320.572 391.554 320.588C391.371 320.612 391.185 320.624 390.995 320.624Z" fill="#183253"/>
<path d="M394.92 320.529V307.699H396.478V320.529H394.92ZM395.705 305.052C395.396 305.052 395.126 304.941 394.896 304.718C394.666 304.488 394.551 304.218 394.551 303.908C394.551 303.59 394.666 303.319 394.896 303.097C395.126 302.866 395.396 302.751 395.705 302.751C396.022 302.751 396.292 302.866 396.514 303.097C396.744 303.319 396.859 303.59 396.859 303.908C396.859 304.218 396.744 304.488 396.514 304.718C396.292 304.941 396.022 305.052 395.705 305.052Z" fill="#183253"/>
<path d="M400.035 320.529V307.699H401.605V309.953H401.748C402.089 309.182 402.6 308.578 403.282 308.14C403.972 307.703 404.812 307.485 405.804 307.485C407.231 307.485 408.337 307.898 409.122 308.725C409.907 309.543 410.299 310.7 410.299 312.194V320.529H408.729V312.576C408.729 311.36 408.452 310.442 407.897 309.822C407.342 309.202 406.509 308.892 405.399 308.892C404.646 308.892 403.984 309.059 403.413 309.392C402.85 309.726 402.406 310.195 402.081 310.799C401.764 311.395 401.605 312.099 401.605 312.91V320.529H400.035Z" fill="#183253"/>
<path d="M418.852 325C417.876 325 417.016 324.865 416.271 324.595C415.533 324.324 414.939 323.939 414.487 323.438C414.035 322.945 413.749 322.369 413.63 321.709L413.654 321.697H415.272L415.283 321.709C415.426 322.266 415.811 322.719 416.437 323.068C417.072 323.426 417.88 323.605 418.864 323.605C420.093 323.605 421.064 323.307 421.778 322.711C422.491 322.115 422.848 321.296 422.848 320.255V317.405H422.705C422.46 317.969 422.123 318.454 421.694 318.859C421.274 319.265 420.786 319.575 420.231 319.79C419.676 319.996 419.07 320.1 418.412 320.1C417.317 320.1 416.366 319.833 415.557 319.301C414.748 318.768 414.122 318.029 413.678 317.083C413.234 316.137 413.012 315.048 413.012 313.816V313.792C413.012 312.568 413.234 311.483 413.678 310.537C414.13 309.583 414.76 308.836 415.569 308.295C416.386 307.755 417.345 307.485 418.447 307.485C419.105 307.485 419.712 307.604 420.267 307.842C420.822 308.073 421.31 308.399 421.73 308.82C422.15 309.241 422.483 309.742 422.729 310.322H422.836V307.699H424.406V320.374C424.406 321.304 424.176 322.115 423.716 322.806C423.264 323.506 422.618 324.046 421.778 324.428C420.945 324.809 419.97 325 418.852 325ZM418.721 318.693C419.577 318.693 420.315 318.49 420.933 318.084C421.552 317.671 422.031 317.103 422.372 316.379C422.713 315.648 422.884 314.802 422.884 313.84V313.816C422.884 312.854 422.713 312.004 422.372 311.264C422.031 310.517 421.548 309.937 420.921 309.524C420.303 309.102 419.569 308.892 418.721 308.892C417.872 308.892 417.139 309.102 416.52 309.524C415.91 309.937 415.438 310.513 415.105 311.252C414.78 311.984 414.617 312.83 414.617 313.792V313.816C414.617 314.778 414.78 315.624 415.105 316.356C415.438 317.087 415.91 317.659 416.52 318.073C417.139 318.486 417.872 318.693 418.721 318.693Z" fill="#183253"/>
<path d="M437.728 320.529L433.006 303.323H434.683L438.454 318.001H438.561L442.7 303.323H444.306L448.445 318.001H448.552L452.31 303.323H453.999L449.277 320.529H447.779L443.556 306.137H443.449L439.227 320.529H437.728Z" fill="#183253"/>
<path d="M458.936 320.743C458.111 320.743 457.378 320.592 456.735 320.29C456.093 319.98 455.586 319.543 455.213 318.979C454.848 318.414 454.666 317.755 454.666 316.999V316.976C454.666 316.228 454.844 315.589 455.201 315.056C455.558 314.523 456.077 314.106 456.759 313.804C457.449 313.494 458.286 313.307 459.269 313.244L464.05 312.934V314.209L459.483 314.519C458.397 314.591 457.588 314.833 457.056 315.247C456.525 315.652 456.26 316.216 456.26 316.94V316.964C456.26 317.703 456.537 318.291 457.092 318.728C457.655 319.158 458.369 319.372 459.233 319.372C460.002 319.372 460.688 319.213 461.291 318.895C461.901 318.569 462.381 318.136 462.73 317.596C463.087 317.047 463.265 316.431 463.265 315.748V311.777C463.265 310.839 462.988 310.124 462.433 309.631C461.885 309.138 461.093 308.892 460.054 308.892C459.182 308.892 458.456 309.066 457.877 309.416C457.298 309.758 456.922 310.247 456.747 310.883V310.919H455.177V310.859C455.288 310.175 455.566 309.583 456.01 309.082C456.454 308.574 457.025 308.18 457.723 307.902C458.42 307.624 459.213 307.485 460.101 307.485C461.1 307.485 461.953 307.656 462.659 307.997C463.364 308.331 463.903 308.82 464.276 309.464C464.649 310.1 464.835 310.867 464.835 311.765V320.529H463.265V318.311H463.122C462.869 318.82 462.536 319.257 462.123 319.623C461.711 319.98 461.235 320.258 460.696 320.457C460.157 320.648 459.57 320.743 458.936 320.743Z" fill="#183253"/>
<path d="M472.531 320.743C471.603 320.743 470.779 320.604 470.057 320.326C469.343 320.04 468.769 319.638 468.332 319.122C467.896 318.605 467.635 317.997 467.547 317.298V317.286H469.153V317.298C469.32 317.941 469.7 318.458 470.295 318.848C470.89 319.229 471.651 319.42 472.579 319.42C473.213 319.42 473.776 319.321 474.267 319.122C474.759 318.923 475.148 318.653 475.433 318.311C475.719 317.961 475.861 317.564 475.861 317.119V317.095C475.861 316.538 475.651 316.085 475.231 315.736C474.819 315.386 474.145 315.104 473.209 314.889L471.437 314.46C470.644 314.277 469.99 314.038 469.474 313.744C468.959 313.45 468.574 313.089 468.321 312.659C468.067 312.222 467.94 311.706 467.94 311.109V311.097C467.94 310.406 468.146 309.79 468.558 309.249C468.971 308.701 469.526 308.272 470.224 307.962C470.921 307.644 471.698 307.485 472.555 307.485C473.411 307.485 474.172 307.624 474.838 307.902C475.512 308.18 476.056 308.57 476.468 309.07C476.888 309.571 477.15 310.159 477.253 310.835V310.847H475.707V310.835C475.572 310.231 475.223 309.746 474.66 309.38C474.105 309.007 473.399 308.82 472.543 308.82C471.988 308.82 471.48 308.915 471.02 309.106C470.568 309.297 470.208 309.559 469.938 309.893C469.676 310.219 469.546 310.601 469.546 311.038V311.062C469.546 311.403 469.633 311.706 469.807 311.968C469.99 312.222 470.263 312.445 470.628 312.636C470.993 312.818 471.461 312.977 472.031 313.112L473.792 313.542C475.037 313.836 475.96 314.253 476.563 314.794C477.166 315.326 477.467 316.054 477.467 316.976V316.999C477.467 317.731 477.249 318.379 476.813 318.943C476.377 319.507 475.786 319.948 475.041 320.266C474.303 320.584 473.467 320.743 472.531 320.743Z" fill="#183253"/>
<path d="M480.37 320.529V302.608H481.94V309.965H482.082C482.423 309.186 482.935 308.578 483.617 308.14C484.306 307.703 485.147 307.485 486.138 307.485C487.09 307.485 487.898 307.671 488.565 308.045C489.239 308.419 489.75 308.959 490.099 309.667C490.456 310.366 490.634 311.213 490.634 312.206V320.529H489.064V312.6C489.064 311.368 488.787 310.442 488.232 309.822C487.676 309.202 486.844 308.892 485.734 308.892C484.98 308.892 484.318 309.059 483.747 309.392C483.184 309.726 482.74 310.195 482.415 310.799C482.098 311.395 481.94 312.099 481.94 312.91V320.529H480.37Z" fill="#183253"/>
<path d="M494.928 315.08L494.786 303.311H496.558L496.427 315.08H494.928ZM495.678 320.696C495.297 320.696 494.984 320.572 494.738 320.326C494.492 320.072 494.369 319.754 494.369 319.372C494.369 318.983 494.492 318.665 494.738 318.418C494.984 318.172 495.297 318.049 495.678 318.049C496.066 318.049 496.379 318.172 496.617 318.418C496.863 318.665 496.986 318.983 496.986 319.372C496.986 319.754 496.863 320.072 496.617 320.326C496.379 320.572 496.066 320.696 495.678 320.696Z" fill="#183253"/>
</svg>
