<svg width="666" height="328" viewBox="0 0 666 328" fill="none" xmlns="http://www.w3.org/2000/svg">
<path d="M4.33594 70V17.8604H16.9463L31.7607 55.3301H31.9775L46.792 17.8604H59.4023V70H49.6826V34.7344H44.624L55.5361 19.3057L35.3018 70H28.4365L8.20215 19.3057L19.1143 34.7344H14.0557V70H4.33594ZM63.27 70L81.4809 17.8604H91.0923V27.9775H87.768L74.7241 70H63.27ZM73.062 57.3535L75.7358 49.1875H100.053L102.727 57.3535H73.062ZM101.029 70L87.9848 27.9775V17.8604H94.3081L112.483 70H101.029ZM126.829 54.5713V41.708H127.516L146.63 17.8604H158.77L139.62 41.4189H137.488L126.829 54.5713ZM116.351 70V17.8604H127.263V70H116.351ZM147.063 70L130.334 45.2852L138.211 38.1309L160.107 70H147.063ZM163.216 70V17.8604H174.128V70H163.216ZM181.32 70V17.8604H190.859L219.224 58.6543L210.082 51.7529H214.635V17.8604H225.511V70H216.044L187.643 28.9531L196.785 35.8545H192.196V70H181.32ZM256.225 70.9033C252.323 70.9033 248.818 70.2891 245.71 69.0605C242.627 67.832 240.001 66.0495 237.833 63.7129C235.665 61.3522 234.003 58.4977 232.847 55.1494C231.691 51.8011 231.113 48.0072 231.113 43.7676V43.7314C231.113 38.1429 232.124 33.3613 234.148 29.3867C236.171 25.388 239.038 22.3167 242.747 20.1729C246.481 18.029 250.889 16.957 255.972 16.957C260.163 16.957 263.861 17.7038 267.065 19.1973C270.269 20.6667 272.87 22.6901 274.87 25.2676C276.893 27.8451 278.194 30.7718 278.772 34.0479L278.88 34.5537H267.932L267.788 34.1924C266.92 31.6631 265.475 29.6999 263.452 28.3027C261.428 26.9056 258.947 26.207 256.008 26.207C253.142 26.207 250.673 26.8936 248.601 28.2666C246.553 29.6156 244.976 31.5908 243.868 34.1924C242.784 36.7939 242.242 39.9375 242.242 43.623V43.6592C242.242 46.4775 242.567 49.0068 243.217 51.2471C243.868 53.4632 244.807 55.3421 246.036 56.8838C247.288 58.4255 248.782 59.6058 250.516 60.4248C252.274 61.2438 254.238 61.6533 256.406 61.6533C258.766 61.6533 260.85 61.2197 262.657 60.3525C264.487 59.4613 265.921 58.2207 266.956 56.6309C268.016 55.0169 268.594 53.138 268.691 50.9941L268.727 50.2354H256.803V42.1055H279.35V48.1035C279.35 51.6445 278.82 54.8242 277.76 57.6426C276.724 60.4609 275.207 62.8577 273.207 64.833C271.232 66.8083 268.811 68.3138 265.945 69.3496C263.078 70.3854 259.838 70.9033 256.225 70.9033ZM313.101 70V50.5244L294.962 17.8604H306.742L318.449 40.1182H318.702L330.372 17.8604H342.188L324.013 50.5244V70H313.101ZM364.845 70.9033C359.69 70.9033 355.221 69.8073 351.439 67.6152C347.681 65.4232 344.779 62.3158 342.731 58.293C340.708 54.2461 339.696 49.4645 339.696 43.9482V43.876C339.696 38.3356 340.72 33.554 342.767 29.5312C344.815 25.5085 347.718 22.4131 351.475 20.2451C355.257 18.0531 359.714 16.957 364.845 16.957C370 16.957 374.456 18.0531 378.214 20.2451C381.972 22.4372 384.874 25.5446 386.922 29.5674C388.969 33.5661 389.993 38.3356 389.993 43.876V43.9482C389.993 49.4645 388.969 54.2461 386.922 58.293C384.874 62.3158 381.972 65.4232 378.214 67.6152C374.48 69.8073 370.024 70.9033 364.845 70.9033ZM364.845 61.6533C367.735 61.6533 370.228 60.9307 372.324 59.4854C374.42 58.016 376.034 55.9564 377.166 53.3066C378.298 50.6569 378.864 47.5374 378.864 43.9482V43.876C378.864 40.2386 378.286 37.1071 377.13 34.4814C375.998 31.8317 374.372 29.7962 372.252 28.375C370.156 26.9297 367.687 26.207 364.845 26.207C362.002 26.207 359.521 26.9176 357.401 28.3389C355.306 29.7601 353.68 31.7956 352.523 34.4453C351.391 37.071 350.825 40.2145 350.825 43.876V43.9482C350.825 47.5615 351.391 50.693 352.523 53.3428C353.68 55.9925 355.306 58.04 357.401 59.4854C359.497 60.9307 361.978 61.6533 364.845 61.6533ZM417.419 70.9033C412.963 70.9033 409.097 70.0964 405.821 68.4824C402.569 66.8685 400.039 64.6162 398.233 61.7256C396.45 58.8109 395.559 55.4264 395.559 51.5723V17.8604H406.471V50.5967C406.471 52.8369 406.893 54.7881 407.736 56.4502C408.603 58.0882 409.843 59.3649 411.457 60.2803C413.095 61.1956 415.083 61.6533 417.419 61.6533C419.756 61.6533 421.731 61.1956 423.345 60.2803C424.983 59.3649 426.224 58.0882 427.067 56.4502C427.91 54.7881 428.331 52.8369 428.331 50.5967V17.8604H439.243V51.5723C439.243 55.4264 438.352 58.8109 436.57 61.7256C434.811 64.6162 432.294 66.8685 429.018 68.4824C425.766 70.0964 421.9 70.9033 417.419 70.9033ZM446.471 70V17.8604H468.007C471.909 17.8604 475.245 18.5228 478.015 19.8477C480.81 21.1725 482.942 23.0876 484.411 25.5928C485.904 28.0739 486.651 31.0609 486.651 34.5537V34.626C486.651 38.0465 485.796 41.0938 484.086 43.7676C482.4 46.4414 480.111 48.3444 477.221 49.4766L488.205 70H475.847L466.128 51.1025C466.055 51.1025 465.971 51.1025 465.875 51.1025C465.778 51.1025 465.682 51.1025 465.586 51.1025H457.384V70H446.471ZM457.384 42.8281H466.814C469.536 42.8281 471.656 42.1055 473.174 40.6602C474.715 39.1908 475.486 37.1794 475.486 34.626V34.5537C475.486 32.0485 474.691 30.0612 473.101 28.5918C471.512 27.1224 469.368 26.3877 466.67 26.3877H457.384V42.8281ZM505.588 70V17.8604H527.123C531.025 17.8604 534.361 18.5228 537.132 19.8477C539.926 21.1725 542.058 23.0876 543.527 25.5928C545.021 28.0739 545.767 31.0609 545.767 34.5537V34.626C545.767 38.0465 544.912 41.0938 543.202 43.7676C541.516 46.4414 539.227 48.3444 536.337 49.4766L547.321 70H534.964L525.244 51.1025C525.172 51.1025 525.087 51.1025 524.991 51.1025C524.895 51.1025 524.798 51.1025 524.702 51.1025H516.5V70H505.588ZM516.5 42.8281H525.93C528.652 42.8281 530.772 42.1055 532.29 40.6602C533.831 39.1908 534.602 37.1794 534.602 34.626V34.5537C534.602 32.0485 533.807 30.0612 532.218 28.5918C530.628 27.1224 528.484 26.3877 525.786 26.3877H516.5V42.8281ZM551.514 70V17.8604H562.426V70H551.514ZM569.618 70V17.8604H589.527C594.754 17.8604 599.211 18.86 602.896 20.8594C606.606 22.8587 609.448 25.7855 611.424 29.6396C613.399 33.4697 614.386 38.1429 614.386 43.6592V43.7314C614.386 49.2477 613.399 53.9691 611.424 57.8955C609.472 61.8219 606.642 64.821 602.932 66.8926C599.223 68.9642 594.754 70 589.527 70H569.618ZM580.53 60.9668H588.226C591.478 60.9668 594.224 60.3164 596.465 59.0156C598.705 57.7148 600.391 55.7878 601.523 53.2344C602.679 50.681 603.258 47.5254 603.258 43.7676V43.6953C603.258 40.0579 602.667 36.9867 601.487 34.4814C600.331 31.9762 598.633 30.0853 596.392 28.8086C594.152 27.5078 591.43 26.8574 588.226 26.8574H580.53V60.9668ZM619.952 70V17.8604H654.495V26.8574H630.864V39.3594H653.158V47.8867H630.864V61.0029H654.495V70H619.952Z" fill="#1A2431"/>
<path d="M32.8555 178.27C27.0664 178.27 22.0052 177.423 17.6719 175.73C13.3724 174.004 9.98698 171.549 7.51562 168.367C5.04427 165.151 3.65625 161.292 3.35156 156.789L3.30078 155.977H17.7734L17.875 156.535C18.2135 158.431 19.0599 160.073 20.4141 161.461C21.8021 162.815 23.5964 163.882 25.7969 164.66C27.9974 165.405 30.4857 165.777 33.2617 165.777C36.1055 165.777 38.543 165.405 40.5742 164.66C42.6393 163.882 44.2305 162.798 45.3477 161.41C46.4987 159.988 47.0742 158.346 47.0742 156.484V156.434C47.0742 153.962 46.0924 152.033 44.1289 150.645C42.1992 149.223 38.9492 148.038 34.3789 147.09L26.6602 145.566C19.4492 144.111 14.0156 141.656 10.3594 138.203C6.70312 134.75 4.875 130.264 4.875 124.746V124.695C4.875 120.227 6.07682 116.333 8.48047 113.016C10.8841 109.664 14.1849 107.074 18.3828 105.246C22.5807 103.384 27.388 102.453 32.8047 102.453C38.4583 102.453 43.3333 103.333 47.4297 105.094C51.5599 106.854 54.776 109.342 57.0781 112.559C59.3802 115.775 60.6497 119.516 60.8867 123.781L60.9375 124.746H46.4648L46.4141 124.137C46.1432 122.207 45.4154 120.565 44.2305 119.211C43.0456 117.823 41.4714 116.757 39.5078 116.012C37.5781 115.267 35.3438 114.895 32.8047 114.895C30.1979 114.895 27.9466 115.284 26.0508 116.062C24.1549 116.807 22.6992 117.84 21.6836 119.16C20.7018 120.48 20.2109 122.021 20.2109 123.781V123.832C20.2109 126.134 21.1927 127.996 23.1562 129.418C25.1198 130.84 28.2005 131.974 32.3984 132.82L40.168 134.395C45.2799 135.41 49.4779 136.815 52.7617 138.609C56.0456 140.404 58.4661 142.672 60.0234 145.414C61.6146 148.122 62.4102 151.389 62.4102 155.215V155.266C62.4102 159.971 61.2253 164.051 58.8555 167.504C56.5195 170.923 53.1341 173.581 48.6992 175.477C44.2982 177.339 39.0169 178.27 32.8555 178.27ZM77.4434 153.895V141.91H95.42C99.821 141.91 103.24 140.793 105.678 138.559C108.149 136.29 109.385 133.074 109.385 128.91V128.809C109.385 124.645 108.149 121.445 105.678 119.211C103.24 116.977 99.821 115.859 95.42 115.859H77.4434V103.723H99.1778C104.324 103.723 108.826 104.772 112.686 106.871C116.545 108.936 119.541 111.848 121.674 115.605C123.841 119.363 124.924 123.747 124.924 128.758V128.859C124.924 133.904 123.841 138.305 121.674 142.062C119.541 145.82 116.545 148.732 112.686 150.797C108.826 152.862 104.324 153.895 99.1778 153.895H77.4434ZM69.7247 177V103.723H85.0606V177H69.7247ZM120.356 177L145.949 103.723H159.457V117.941H154.785L136.453 177H120.356ZM134.117 159.227L137.875 147.75H172.051L175.809 159.227H134.117ZM173.422 177L155.09 117.941V103.723H163.977L189.52 177H173.422ZM194.955 177V103.723H225.221C230.705 103.723 235.394 104.654 239.287 106.516C243.214 108.378 246.211 111.069 248.276 114.59C250.375 118.077 251.424 122.275 251.424 127.184V127.285C251.424 132.092 250.222 136.375 247.819 140.133C245.449 143.891 242.233 146.565 238.17 148.156L253.608 177H236.24L222.58 150.441C222.479 150.441 222.36 150.441 222.225 150.441C222.089 150.441 221.954 150.441 221.819 150.441H210.291V177H194.955ZM210.291 138.812H223.545C227.371 138.812 230.35 137.797 232.483 135.766C234.649 133.701 235.733 130.874 235.733 127.285V127.184C235.733 123.663 234.615 120.87 232.381 118.805C230.147 116.74 227.134 115.707 223.342 115.707H210.291V138.812ZM274.227 155.316V137.238H275.192L302.055 103.723H319.117L292.203 136.832H289.207L274.227 155.316ZM259.5 177V103.723H274.836V177H259.5ZM302.664 177L279.153 142.266L290.223 132.211L320.996 177H302.664ZM325.366 177V103.723H340.702V164.355H372.745V177H325.366ZM379.754 177V103.723H428.301V116.367H395.09V133.938H426.422V145.922H395.09V164.355H428.301V177H379.754ZM451.157 177L476.751 103.723H490.258V117.941H485.587L467.255 177H451.157ZM464.919 159.227L468.676 147.75H502.852L506.61 159.227H464.919ZM504.223 177L485.891 117.941V103.723H494.778L520.321 177H504.223ZM525.757 177V103.723H539.163L579.026 161.055L566.178 151.355H572.577V103.723H587.862V177H574.557L534.643 119.312L547.491 129.012H541.042V177H525.757ZM598.02 177V103.723H626.001C633.347 103.723 639.61 105.128 644.79 107.938C650.003 110.747 653.998 114.861 656.774 120.277C659.55 125.66 660.938 132.228 660.938 139.98V140.082C660.938 147.835 659.55 154.47 656.774 159.988C654.032 165.507 650.054 169.721 644.841 172.633C639.627 175.544 633.347 177 626.001 177H598.02ZM613.356 164.305H624.173C628.743 164.305 632.602 163.391 635.751 161.562C638.899 159.734 641.269 157.026 642.86 153.438C644.485 149.849 645.298 145.414 645.298 140.133V140.031C645.298 134.919 644.468 130.603 642.809 127.082C641.184 123.561 638.798 120.904 635.649 119.109C632.501 117.281 628.675 116.367 624.173 116.367H613.356V164.305ZM32.8555 302.27C27.0664 302.27 22.0052 301.423 17.6719 299.73C13.3724 298.004 9.98698 295.549 7.51562 292.367C5.04427 289.151 3.65625 285.292 3.35156 280.789L3.30078 279.977H17.7734L17.875 280.535C18.2135 282.431 19.0599 284.073 20.4141 285.461C21.8021 286.815 23.5964 287.882 25.7969 288.66C27.9974 289.405 30.4857 289.777 33.2617 289.777C36.1055 289.777 38.543 289.405 40.5742 288.66C42.6393 287.882 44.2305 286.798 45.3477 285.41C46.4987 283.988 47.0742 282.346 47.0742 280.484V280.434C47.0742 277.962 46.0924 276.033 44.1289 274.645C42.1992 273.223 38.9492 272.038 34.3789 271.09L26.6602 269.566C19.4492 268.111 14.0156 265.656 10.3594 262.203C6.70312 258.75 4.875 254.264 4.875 248.746V248.695C4.875 244.227 6.07682 240.333 8.48047 237.016C10.8841 233.664 14.1849 231.074 18.3828 229.246C22.5807 227.384 27.388 226.453 32.8047 226.453C38.4583 226.453 43.3333 227.333 47.4297 229.094C51.5599 230.854 54.776 233.342 57.0781 236.559C59.3802 239.775 60.6497 243.516 60.8867 247.781L60.9375 248.746H46.4648L46.4141 248.137C46.1432 246.207 45.4154 244.565 44.2305 243.211C43.0456 241.823 41.4714 240.757 39.5078 240.012C37.5781 239.267 35.3438 238.895 32.8047 238.895C30.1979 238.895 27.9466 239.284 26.0508 240.062C24.1549 240.807 22.6992 241.84 21.6836 243.16C20.7018 244.48 20.2109 246.021 20.2109 247.781V247.832C20.2109 250.134 21.1927 251.996 23.1562 253.418C25.1198 254.84 28.2005 255.974 32.3984 256.82L40.168 258.395C45.2799 259.41 49.4779 260.815 52.7617 262.609C56.0456 264.404 58.4661 266.672 60.0234 269.414C61.6146 272.122 62.4102 275.389 62.4102 279.215V279.266C62.4102 283.971 61.2253 288.051 58.8555 291.504C56.5195 294.923 53.1341 297.581 48.6992 299.477C44.2982 301.339 39.0169 302.27 32.8555 302.27ZM69.7247 301V227.723H85.0606V257.48H118.068V227.723H133.404V301H118.068V270.125H85.0606V301H69.7247ZM143.512 301V227.723H158.848V301H143.512ZM168.955 301V227.723H182.362L222.225 285.055L209.377 275.355H215.776V227.723H231.061V301H217.756L177.842 243.312L190.69 253.012H184.24V301H168.955ZM241.219 301V227.723H289.766V240.367H256.555V257.938H287.887V269.922H256.555V288.355H289.766V301H241.219ZM302.413 276.371L301.194 227.723H316.428L315.209 276.371H302.413ZM308.811 301.609C306.509 301.609 304.545 300.848 302.92 299.324C301.329 297.767 300.534 295.871 300.534 293.637C300.534 291.402 301.329 289.523 302.92 288C304.545 286.443 306.509 285.664 308.811 285.664C311.113 285.664 313.06 286.443 314.651 288C316.276 289.523 317.088 291.402 317.088 293.637C317.088 295.871 316.276 297.767 314.651 299.324C313.06 300.848 311.113 301.609 308.811 301.609Z" fill="#2066B9"/>
</svg>
