<svg width="35" height="35" viewBox="0 0 35 35" fill="none" xmlns="http://www.w3.org/2000/svg">
<g clip-path="url(#clip0_105_240)">
<path d="M28.9593 12.6786L28.9641 12.6253L28.9339 12.6114C28.9375 12.4934 28.9496 12.3796 28.9496 12.261C28.9496 5.93815 23.824 0.810791 17.5 0.810791C11.1772 0.810791 6.04926 5.93815 6.04926 12.261C6.04926 12.3814 6.06136 12.4934 6.06498 12.6114L6.03593 12.6253L6.04201 12.6786C2.45506 14.6136 0 18.3786 0 22.7384C0 29.0618 5.12805 34.1892 11.4508 34.1892C13.6577 34.1892 15.7047 33.5336 17.454 32.4513L17.5 32.4847L17.546 32.4513C19.2953 33.5336 21.3423 34.1892 23.5493 34.1892C29.8745 34.1892 35 29.0618 35 22.7384C35 18.3786 32.545 14.6136 28.9593 12.6786ZM24.1969 5.56525C25.8094 7.17895 26.8081 9.37554 26.9255 11.8093C26.5357 11.6889 26.1375 11.5878 25.7331 11.5073L21.1609 3.52363C22.3035 4.00365 23.3313 4.7003 24.1969 5.56525ZM26.8142 13.8577C26.359 16.527 24.8034 18.8155 22.6147 20.224C22.0942 17.9167 20.8812 15.8775 19.2045 14.3316C20.5083 13.6555 21.9779 13.2687 23.5493 13.2687C24.6993 13.2687 25.7948 13.483 26.8142 13.8577ZM17.5 2.78945C18.2154 2.78945 18.9103 2.87176 19.5798 3.02126L24.33 11.3184C24.0721 11.3003 23.8119 11.2895 23.5492 11.2895C23.0347 11.2895 22.5287 11.3282 22.0323 11.3966L17.1101 2.79971C17.2385 2.79431 17.3693 2.78945 17.5 2.78945ZM15.8888 2.92863L20.8679 11.6248C20.2565 11.7767 19.6634 11.9776 19.0931 12.2228L14.0619 3.43531C14.6454 3.20829 15.2556 3.0376 15.8888 2.92863ZM13.0378 3.90624L18.0823 12.7167C17.902 12.8165 17.7215 12.917 17.5459 13.0248L17.5 12.9921L17.454 13.0248C16.7882 12.6139 16.0787 12.2652 15.3343 11.9898L11.3624 5.05201C11.877 4.61376 12.4374 4.22821 13.0378 3.90624ZM10.5271 5.85462L13.7824 11.5395C13.0342 11.3784 12.2595 11.2906 11.4641 11.2901L9.30938 7.52648C9.65316 6.92349 10.0598 6.36301 10.5271 5.85462ZM8.71978 8.75818L10.2113 11.3603C9.47523 11.4432 8.76217 11.597 8.07461 11.8094C8.12533 10.7362 8.34928 9.70961 8.71978 8.75818ZM8.18713 13.8577C9.20281 13.483 10.2996 13.2687 11.4509 13.2687C13.0222 13.2687 14.493 13.6555 15.7956 14.3316C14.1189 15.8775 12.9048 17.9179 12.3867 20.224C10.1942 18.8156 8.63864 16.527 8.18713 13.8577ZM17.5 30.0049C15.5207 28.3525 14.2339 25.9271 14.1044 23.1845C15.1794 23.521 16.3149 23.7123 17.5 23.7123C18.6815 23.7123 19.8194 23.521 20.8945 23.1845C20.7649 25.9294 19.4793 28.3542 17.5 30.0049ZM30.2473 29.4347C28.5295 31.1507 26.1677 32.2099 23.5493 32.2099C21.9803 32.2099 20.5095 31.8231 19.2082 31.1495C21.4743 29.0606 22.9004 26.0645 22.9004 22.7384C22.9004 22.6204 22.8883 22.5042 22.8847 22.3867L22.9149 22.3716L22.9125 22.3225C25.7876 20.7749 27.9303 18.0499 28.6675 14.7705C31.286 16.4574 33.0207 19.393 33.0207 22.7384C33.0207 25.3569 31.9614 27.7187 30.2473 29.4347Z" fill="#1A2431"/>
</g>
<defs>
<clipPath id="clip0_105_240">
<rect width="35" height="35" fill="white"/>
</clipPath>
</defs>
</svg>
