<svg width="35" height="36" viewBox="0 0 35 36" fill="none" xmlns="http://www.w3.org/2000/svg">
<path fill-rule="evenodd" clip-rule="evenodd" d="M23.3333 12.1667H11.6666C10.8645 12.1667 10.2155 12.8229 10.2155 13.625L10.2083 22.375C10.2083 23.1771 10.8645 23.8334 11.6666 23.8334H23.3333C24.1353 23.8334 24.7916 23.1771 24.7916 22.375V13.625C24.7916 12.8229 24.1353 12.1667 23.3333 12.1667ZM11.6666 15.0833L17.4999 18.7292L23.3333 15.0833V22.375H11.6666V15.0833ZM11.6666 13.625L17.4999 17.2709L23.3333 13.625H11.6666Z" fill="#1A2431"/>
<path fill-rule="evenodd" clip-rule="evenodd" d="M17.5 32.5834C25.554 32.5834 32.0833 26.0541 32.0833 18C32.0833 9.94586 25.554 3.41669 17.5 3.41669C9.4458 3.41669 2.91663 9.94586 2.91663 18C2.91663 26.0541 9.4458 32.5834 17.5 32.5834ZM17.5 29.6667C23.9433 29.6667 29.1666 24.4434 29.1666 18C29.1666 11.5567 23.9433 6.33335 17.5 6.33335C11.0566 6.33335 5.83329 11.5567 5.83329 18C5.83329 24.4434 11.0566 29.6667 17.5 29.6667Z" fill="#1A2431"/>
</svg>
