<svg width="50" height="35" viewBox="0 0 50 35" fill="none" xmlns="http://www.w3.org/2000/svg">
<path d="M47.2129 34.5H2.78711C2.22539 34.5 1.66574 34.1754 1.22593 33.5472C0.787222 32.9206 0.5 32.0283 0.5 31.019V3.98098C0.5 2.9717 0.787222 2.0794 1.22593 1.45277C1.66574 0.824569 2.22539 0.5 2.78711 0.5H47.2129C47.7746 0.5 48.3343 0.824569 48.7741 1.45277C49.2128 2.0794 49.5 2.9717 49.5 3.98098V31.019C49.5 32.0283 49.2128 32.9206 48.7741 33.5472C48.3343 34.1754 47.7746 34.5 47.2129 34.5Z" stroke="black"/>
<path d="M25.5 34.4999V0.5H47.2129C47.7746 0.5 48.3343 0.824569 48.7741 1.45277C49.2128 2.0794 49.5 2.9717 49.5 3.98098V31.0189C49.5 32.0282 49.2128 32.9205 48.7741 33.5471C48.3343 34.1753 47.7746 34.4999 47.2129 34.4999H25.5Z" stroke="black"/>
<path d="M47.2129 0.5C47.7746 0.5 48.3343 0.824569 48.7741 1.45277C49.2128 2.0794 49.5 2.9717 49.5 3.98098V7.29653H0.5V3.98098C0.5 2.9717 0.787222 2.0794 1.22593 1.45277C1.66574 0.824568 2.22539 0.5 2.78711 0.5H47.2129Z" fill="#1A2431" stroke="#1A2431"/>
<path d="M0.5 31.019V27.7035H49.5V31.019C49.5 32.0283 49.2128 32.9206 48.7741 33.5472C48.3343 34.1755 47.7746 34.5 47.2129 34.5H2.78711C2.22539 34.5 1.66574 34.1755 1.22593 33.5472C0.787222 32.9206 0.5 32.0283 0.5 31.019Z" fill="#CCE4FF" stroke="#1A2431"/>
<path d="M47.2129 0.5C47.7746 0.5 48.3343 0.824569 48.7741 1.45277C49.2128 2.0794 49.5 2.9717 49.5 3.98098V7.29653H25.5V7.2905V7.27972V7.26884V7.25787V7.24679V7.23562V7.22435V7.21298V7.20152V7.18996V7.17831V7.16657V7.15473V7.1428V7.13077V7.11866V7.10645V7.09415V7.08176V7.06927V7.0567V7.04404V7.03129V7.01846V7.00553V6.99252V6.97942V6.96623V6.95296V6.9396V6.92616V6.91263V6.89902V6.88533V6.87155V6.85769V6.84374V6.82972V6.81562V6.80143V6.78716V6.77282V6.75839V6.74389V6.72931V6.71465V6.69991V6.6851V6.67021V6.65524V6.6402V6.62509V6.6099V6.59463V6.5793V6.56388V6.5484V6.53285V6.51722V6.50153V6.48576V6.46992V6.45401V6.43804V6.42199V6.40588V6.3897V6.37346V6.35714V6.34076V6.32432V6.30781V6.29123V6.27459V6.25789V6.24112V6.2243V6.2074V6.19045V6.17344V6.15636V6.13923V6.12203V6.10478V6.08747V6.07009V6.05267V6.03518V6.01764V6.00004V5.98238V5.96467V5.9469V5.92908V5.91121V5.89328V5.8753V5.85726V5.83918V5.82104V5.80285V5.78461V5.76632V5.74798V5.7296V5.71116V5.69267V5.67414V5.65556V5.63694V5.61826V5.59954V5.58078V5.56197V5.54312V5.52422V5.50528V5.4863V5.46727V5.44821V5.4291V5.40995V5.39076V5.37153V5.35226V5.33295V5.3136V5.29422V5.2748V5.25534V5.23584V5.21631V5.19674V5.17714V5.1575V5.13783V5.11813V5.09839V5.07862V5.05881V5.03898V5.01911V4.99922V4.97929V4.95933V4.93934V4.91933V4.89929V4.87922V4.85912V4.83899V4.81884V4.79866V4.77846V4.75823V4.73798V4.7177V4.6974V4.67708V4.65673V4.63636V4.61598V4.59557V4.57513V4.55468V4.53421V4.51372V4.49322V4.47269V4.45215V4.43158V4.41101V4.39041V4.3698V4.34918V4.32854V4.30788V4.28721V4.26653V4.24584V4.22513V4.20441V4.18368V4.16294V4.14219V4.12143V4.10066V4.07988V4.05909V4.0383V4.0175V3.99669V3.97587V3.95505V3.93422V3.91338V3.89255V3.8717V3.85086V3.83001V3.80916V3.7883V3.76745V3.74659V3.72573V3.70488V3.68402V3.66316V3.64231V3.62145V3.6006V3.57975V3.55891V3.53806V3.51723V3.49639V3.47556V3.45474V3.43392V3.41311V3.39231V3.37152V3.35073V3.32995V3.30918V3.28842V3.26767V3.24693V3.2262V3.20548V3.18477V3.16408V3.1434V3.12273V3.10208V3.08144V3.06081V3.0402V3.01961V2.99903V2.97847V2.95793V2.9374V2.91689V2.8964V2.87593V2.85548V2.83505V2.81464V2.79425V2.77389V2.75354V2.73322V2.71292V2.69264V2.67239V2.65216V2.63196V2.61178V2.59163V2.57151V2.55141V2.53134V2.51129V2.49128V2.47129V2.45134V2.43141V2.41152V2.39165V2.37182V2.35201V2.33224V2.3125V2.2928V2.27313V2.25349V2.23389V2.21432V2.19479V2.1753V2.15584V2.13642V2.11703V2.09769V2.07838V2.05911V2.03988V2.02069V2.00154V1.98244V1.96337V1.94434V1.92536V1.90642V1.88753V1.86867V1.84987V1.8311V1.81239V1.79371V1.77509V1.75651V1.73798V1.71949V1.70106V1.68267V1.66433V1.64605V1.62781V1.60962V1.59148V1.5734V1.55537V1.53739V1.51946V1.50158V1.48376V1.466V1.44829V1.43063V1.41304V1.39549V1.37801V1.36058V1.34321V1.3259V1.30864V1.29145V1.27432V1.25724V1.24023V1.22328V1.20639V1.18956V1.1728V1.1561V1.13946V1.12288V1.10637V1.08993V1.07355V1.05724V1.04099V1.02482V1.0087V0.992662V0.976687V0.960782V0.944946V0.92918V0.913485V0.89786V0.882307V0.866826V0.851417V0.836081V0.820819V0.80563V0.790516V0.775477V0.760513V0.745624V0.730812V0.716077V0.701419V0.686839V0.672337V0.657913V0.643569V0.629304V0.61512V0.601016V0.586994V0.573053V0.559194V0.545418V0.531724V0.518115V0.504589V0.5H47.2129Z" fill="#1A2431" stroke="#1A2431"/>
<path d="M49.5 31.019C49.5 32.0283 49.2128 32.9206 48.7741 33.5472C48.3343 34.1755 47.7746 34.5 47.2129 34.5H25.5V34.4954V34.4819V34.4683V34.4546V34.4408V34.427V34.413V34.399V34.3849V34.3707V34.3565V34.3421V34.3277V34.3132V34.2986V34.2839V34.2692V34.2544V34.2395V34.2245V34.2095V34.1944V34.1792V34.1639V34.1486V34.1332V34.1177V34.1022V34.0865V34.0708V34.0551V34.0392V34.0233V34.0074V33.9913V33.9752V33.959V33.9428V33.9265V33.9101V33.8936V33.8771V33.8606V33.8439V33.8272V33.8105V33.7936V33.7767V33.7598V33.7428V33.7257V33.7086V33.6914V33.6741V33.6568V33.6394V33.622V33.6045V33.587V33.5694V33.5517V33.534V33.5163V33.4984V33.4806V33.4626V33.4447V33.4266V33.4085V33.3904V33.3722V33.354V33.3357V33.3174V33.299V33.2805V33.262V33.2435V33.2249V33.2063V33.1876V33.1689V33.1502V33.1313V33.1125V33.0936V33.0747V33.0557V33.0367V33.0176V32.9985V32.9793V32.9601V32.9409V32.9216V32.9023V32.883V32.8636V32.8442V32.8247V32.8052V32.7857V32.7661V32.7465V32.7269V32.7072V32.6875V32.6678V32.648V32.6282V32.6084V32.5885V32.5686V32.5487V32.5287V32.5087V32.4887V32.4687V32.4486V32.4285V32.4084V32.3882V32.3681V32.3479V32.3276V32.3074V32.2871V32.2668V32.2465V32.2261V32.2058V32.1854V32.165V32.1445V32.1241V32.1036V32.0831V32.0626V32.0421V32.0216V32.001V31.9804V31.9598V31.9392V31.9186V31.8979V31.8773V31.8566V31.8359V31.8153V31.7945V31.7738V31.7531V31.7324V31.7116V31.6908V31.6701V31.6493V31.6285V31.6077V31.5869V31.5661V31.5453V31.5245V31.5036V31.4828V31.462V31.4411V31.4203V31.3994V31.3786V31.3577V31.3369V31.316V31.2951V31.2743V31.2534V31.2326V31.2117V31.1909V31.17V31.1492V31.1283V31.1075V31.0866V31.0658V31.045V31.0242V31.0033V30.9825V30.9617V30.9409V30.9201V30.8994V30.8786V30.8578V30.8371V30.8163V30.7956V30.7749V30.7542V30.7335V30.7128V30.6921V30.6715V30.6508V30.6302V30.6096V30.589V30.5684V30.5479V30.5273V30.5068V30.4863V30.4658V30.4453V30.4249V30.4045V30.384V30.3637V30.3433V30.3229V30.3026V30.2823V30.262V30.2418V30.2216V30.2014V30.1812V30.161V30.1409V30.1208V30.1007V30.0807V30.0607V30.0407V30.0207V30.0008V29.9809V29.961V29.9412V29.9214V29.9016V29.8819V29.8622V29.8425V29.8229V29.8033V29.7837V29.7642V29.7447V29.7252V29.7058V29.6864V29.6671V29.6478V29.6285V29.6093V29.5901V29.5709V29.5518V29.5327V29.5137V29.4947V29.4758V29.4569V29.4381V29.4192V29.4005V29.3818V29.3631V29.3445V29.3259V29.3073V29.2889V29.2704V29.252V29.2337V29.2154V29.1972V29.179V29.1608V29.1428V29.1247V29.1067V29.0888V29.0709V29.0531V29.0354V29.0176V29V28.9824V28.9648V28.9474V28.9299V28.9126V28.8952V28.878V28.8608V28.8437V28.8266V28.8096V28.7926V28.7757V28.7589V28.7421V28.7254V28.7088V28.6922V28.6757V28.6593V28.6429V28.6266V28.6103V28.5941V28.578V28.562V28.546V28.5301V28.5143V28.4985V28.4828V28.4672V28.4516V28.4361V28.4207V28.4054V28.3901V28.3749V28.3598V28.3448V28.3298V28.3149V28.3001V28.2854V28.2707V28.2561V28.2416V28.2272V28.2129V28.1986V28.1844V28.1703V28.1563V28.1423V28.1285V28.1147V28.101V28.0874V28.0739V28.0604V28.0471V28.0338V28.0206V28.0075V27.9945V27.9816V27.9687V27.956V27.9433V27.9307V27.9183V27.9059V27.8936V27.8814V27.8692V27.8572V27.8453V27.8335V27.8217V27.8101V27.7985V27.787V27.7757V27.7644V27.7532V27.7422V27.7312V27.7203V27.7095V27.7035H49.5V31.019Z" fill="#CCE4FF" stroke="black"/>
<path d="M3.34668 22L5.84668 14.9541H6.8916V16.2627H6.51562L4.66504 22H3.34668ZM4.60645 20.1787L4.93359 19.207H8.16602L8.49316 20.1787H4.60645ZM8.44922 22L6.59863 16.2627V14.9541H7.2627L9.76758 22H8.44922ZM11.4084 22V21.0234H13.5031C13.9686 21.0234 14.3218 20.929 14.5627 20.7402C14.8036 20.5482 14.924 20.2731 14.924 19.915V19.9053C14.924 19.6676 14.8687 19.4674 14.758 19.3047C14.6473 19.1419 14.4813 19.0199 14.26 18.9385C14.0419 18.8571 13.7717 18.8164 13.4494 18.8164H11.4084V17.9229H13.2541C13.7001 17.9229 14.0386 17.8382 14.2697 17.6689C14.5041 17.4997 14.6213 17.2555 14.6213 16.9365V16.9268C14.6213 16.6143 14.5155 16.3701 14.3039 16.1943C14.0923 16.0186 13.7961 15.9307 13.4152 15.9307H11.4084V14.9541H13.718C14.1672 14.9541 14.5513 15.0257 14.8703 15.1689C15.1893 15.3089 15.4351 15.5107 15.6076 15.7744C15.7801 16.0348 15.8664 16.3457 15.8664 16.707V16.7168C15.8664 16.9642 15.8094 17.1953 15.6955 17.4102C15.5848 17.625 15.4351 17.804 15.2463 17.9473C15.0607 18.0905 14.8492 18.1816 14.6115 18.2207V18.3086C14.9273 18.3379 15.204 18.429 15.4416 18.582C15.6825 18.7318 15.8697 18.9287 16.0031 19.1729C16.1398 19.417 16.2082 19.6904 16.2082 19.9932V20.0029C16.2082 20.4131 16.1105 20.7679 15.9152 21.0674C15.7232 21.3669 15.4465 21.598 15.0852 21.7607C14.7238 21.9202 14.2925 22 13.7912 22H11.4084ZM10.7785 22V14.9541H12.0383V22H10.7785ZM17.3852 22V14.9541H20.0268C20.7266 14.9541 21.3223 15.0908 21.8139 15.3643C22.3087 15.6377 22.6863 16.0348 22.9467 16.5557C23.2104 17.0765 23.3422 17.7048 23.3422 18.4404V18.4502C23.3422 19.2021 23.212 19.8434 22.9516 20.374C22.6911 20.9014 22.3135 21.305 21.8188 21.585C21.3272 21.8617 20.7299 22 20.0268 22H17.3852ZM18.6449 20.9404H19.8607C20.3262 20.9404 20.7234 20.8444 21.0521 20.6523C21.3809 20.4603 21.6299 20.1803 21.7992 19.8125C21.9717 19.4447 22.058 18.9971 22.058 18.4697V18.46C22.058 17.9456 21.9701 17.5062 21.7943 17.1416C21.6218 16.7738 21.3712 16.4938 21.0424 16.3018C20.7136 16.1097 20.3197 16.0137 19.8607 16.0137H18.6449V20.9404ZM24.485 19.71V18.6064H27.7467V19.71H24.485ZM30.7791 22V16.1943H30.6912L28.9383 17.4297V16.248L30.7791 14.9541H32.034V22H30.7791ZM33.7969 22V21.1504L36.1064 18.7871C36.4255 18.4648 36.6729 18.1995 36.8486 17.9912C37.0277 17.7796 37.153 17.5941 37.2246 17.4346C37.2962 17.2718 37.332 17.1009 37.332 16.9219V16.9072C37.332 16.6924 37.2848 16.5003 37.1904 16.3311C37.096 16.1618 36.9609 16.0299 36.7852 15.9355C36.6094 15.8379 36.3994 15.7891 36.1553 15.7891C35.9079 15.7891 35.6898 15.8411 35.501 15.9453C35.3122 16.0462 35.1657 16.1878 35.0615 16.3701C34.9574 16.5524 34.9053 16.7656 34.9053 17.0098L34.9004 17.0293L33.7285 17.0244L33.7236 17.0098C33.7236 16.5703 33.8294 16.1829 34.041 15.8477C34.2526 15.5124 34.5456 15.2503 34.9199 15.0615C35.2943 14.8727 35.7272 14.7783 36.2188 14.7783C36.6745 14.7783 37.0798 14.8646 37.4346 15.0371C37.7926 15.2096 38.0726 15.4473 38.2744 15.75C38.4762 16.0527 38.5771 16.4027 38.5771 16.7998V16.8145C38.5771 17.0781 38.5267 17.3369 38.4258 17.5908C38.3249 17.8415 38.1523 18.1165 37.9082 18.416C37.6673 18.7155 37.3337 19.0719 36.9072 19.4854L35.1641 21.1797L35.4961 20.623V21.1797L35.1641 20.96H38.6846V22H33.7969ZM42.4299 22.1416C41.9156 22.1416 41.4647 22.0553 41.0773 21.8828C40.6932 21.7103 40.3889 21.471 40.1643 21.165C39.9429 20.8558 39.8159 20.4993 39.7834 20.0957L39.7785 20.0371H40.9797L40.9846 20.0908C41.0074 20.2894 41.0806 20.4668 41.2043 20.623C41.328 20.776 41.494 20.8965 41.7023 20.9844C41.9107 21.069 42.1532 21.1113 42.4299 21.1113C42.7001 21.1113 42.9361 21.0641 43.1379 20.9697C43.343 20.8753 43.5025 20.7451 43.6164 20.5791C43.7303 20.4131 43.7873 20.221 43.7873 20.0029V19.9932C43.7873 19.6221 43.6587 19.3372 43.4016 19.1387C43.1444 18.9401 42.7896 18.8408 42.3371 18.8408H41.5021V17.9033H42.3127C42.5699 17.9033 42.7961 17.8577 42.9914 17.7666C43.1867 17.6755 43.3381 17.5518 43.4455 17.3955C43.5529 17.236 43.6066 17.0537 43.6066 16.8486V16.8389C43.6066 16.6208 43.5594 16.4352 43.465 16.2822C43.3739 16.1292 43.2388 16.012 43.0598 15.9307C42.884 15.8493 42.6708 15.8086 42.4201 15.8086C42.1727 15.8086 41.953 15.8509 41.7609 15.9355C41.5721 16.0202 41.4208 16.1406 41.3068 16.2969C41.1929 16.4499 41.1245 16.6305 41.1018 16.8389L41.0969 16.8877H39.9299L39.9348 16.8291C39.9706 16.4222 40.0943 16.069 40.3059 15.7695C40.5207 15.4668 40.8072 15.2324 41.1652 15.0664C41.5266 14.8971 41.9449 14.8125 42.4201 14.8125C42.9051 14.8125 43.3267 14.8923 43.6848 15.0518C44.0428 15.208 44.3195 15.4245 44.5148 15.7012C44.7134 15.9779 44.8127 16.3018 44.8127 16.6729V16.6826C44.8127 16.9723 44.7476 17.2295 44.6174 17.4541C44.4904 17.6755 44.3146 17.8594 44.09 18.0059C43.8687 18.1523 43.6164 18.2549 43.3332 18.3135V18.3379C43.854 18.3867 44.2723 18.5592 44.5881 18.8555C44.9038 19.1484 45.0617 19.5391 45.0617 20.0273V20.0371C45.0617 20.4473 44.951 20.8118 44.7297 21.1309C44.5083 21.4466 44.1991 21.694 43.802 21.873C43.4081 22.0521 42.9507 22.1416 42.4299 22.1416Z" fill="#1A2431"/>
</svg>
