<svg width="292" height="292" viewBox="0 0 292 292" fill="none" xmlns="http://www.w3.org/2000/svg">
<path d="M185.52 37.6824C152.846 48.1476 131.41 73.8737 121.213 114.861C105.917 176.342 86.9619 184.182 25.2498 162.314C47.4131 203.251 92.3345 219.664 121.213 219.664C150.091 219.664 224.884 179.457 216.314 103.03C208.875 80.7702 198.611 58.9878 185.52 37.6824Z" fill="#D8D8D8"/>
<mask id="mask0_120_447" style="mask-type:luminance" maskUnits="userSpaceOnUse" x="25" y="37" width="192" height="183">
<path d="M185.52 37.6824C152.846 48.1476 131.41 73.8737 121.213 114.861C105.917 176.342 86.9619 184.182 25.2498 162.314C47.4131 203.251 92.3345 219.664 121.213 219.664C150.091 219.664 224.884 179.457 216.314 103.03C208.875 80.7702 198.611 58.9878 185.52 37.6824Z" fill="#FFA0A0"/>
</mask>
<g mask="url(#mask0_120_447)">
<path d="M321 -29H-28.9998V321H321V-29Z" fill="#CCE4FF"/>
</g>
<path d="M206.946 186.398L287.605 267.19C293.243 272.827 293.243 281.968 287.605 287.605C281.968 293.243 272.827 293.243 267.19 287.605L186.547 206.83C166.979 222.067 142.376 231.143 115.655 231.143C51.8724 231.143 0.166748 179.437 0.166748 115.655C0.166748 51.8724 51.8724 0.166687 115.655 0.166687C179.437 0.166687 231.143 51.8724 231.143 115.655C231.143 142.309 222.113 166.854 206.946 186.398ZM115.655 202.271C163.491 202.271 202.271 163.491 202.271 115.655C202.271 67.8179 163.491 29.0387 115.655 29.0387C67.818 29.0387 29.0387 67.8179 29.0387 115.655C29.0387 163.491 67.818 202.271 115.655 202.271Z" fill="#1A2431"/>
<mask id="mask1_120_447" style="mask-type:luminance" maskUnits="userSpaceOnUse" x="0" y="0" width="292" height="292">
<path d="M206.946 186.398L287.605 267.19C293.243 272.827 293.243 281.968 287.605 287.605C281.968 293.243 272.827 293.243 267.19 287.605L186.547 206.83C166.979 222.067 142.376 231.143 115.655 231.143C51.8724 231.143 0.166748 179.437 0.166748 115.655C0.166748 51.8724 51.8724 0.166687 115.655 0.166687C179.437 0.166687 231.143 51.8724 231.143 115.655C231.143 142.309 222.113 166.854 206.946 186.398ZM115.655 202.271C163.491 202.271 202.271 163.491 202.271 115.655C202.271 67.8179 163.491 29.0387 115.655 29.0387C67.818 29.0387 29.0387 67.8179 29.0387 115.655C29.0387 163.491 67.818 202.271 115.655 202.271Z" fill="#7600FF"/>
</mask>
<g mask="url(#mask1_120_447)">
<path d="M321 -29H-29V321H321V-29Z" fill="#1A2431"/>
</g>
</svg>
