<svg width="41" height="41" viewBox="0 0 41 41" fill="none" xmlns="http://www.w3.org/2000/svg">
<g filter="url(#filter0_d_52_15)">
<mask id="path-1-inside-1_52_15" fill="white">
<path fill-rule="evenodd" clip-rule="evenodd" d="M19.1779 0C16.9687 0 15.1779 1.79086 15.1779 4V15.1779L4 15.1779C1.79086 15.1779 0 16.9687 0 19.1779V19.3221C0 21.5313 1.79086 23.3221 4 23.3221H15.1779V34.5C15.1779 36.7091 16.9687 38.5 19.1779 38.5H19.3221C21.5313 38.5 23.3221 36.7091 23.3221 34.5V23.3221H34.5C36.7091 23.3221 38.5 21.5313 38.5 19.3221V19.1779C38.5 16.9687 36.7091 15.1779 34.5 15.1779L23.3221 15.1779V4C23.3221 1.79086 21.5313 0 19.3221 0H19.1779Z"/>
</mask>
<path fill-rule="evenodd" clip-rule="evenodd" d="M19.1779 0C16.9687 0 15.1779 1.79086 15.1779 4V15.1779L4 15.1779C1.79086 15.1779 0 16.9687 0 19.1779V19.3221C0 21.5313 1.79086 23.3221 4 23.3221H15.1779V34.5C15.1779 36.7091 16.9687 38.5 19.1779 38.5H19.3221C21.5313 38.5 23.3221 36.7091 23.3221 34.5V23.3221H34.5C36.7091 23.3221 38.5 21.5313 38.5 19.3221V19.1779C38.5 16.9687 36.7091 15.1779 34.5 15.1779L23.3221 15.1779V4C23.3221 1.79086 21.5313 0 19.3221 0H19.1779Z" fill="white"/>
<path d="M15.1779 15.1779L15.1779 15.4779L15.4779 15.4779V15.1779H15.1779ZM4 15.1779L4 14.8779H4V15.1779ZM15.1779 23.3221H15.4779V23.0221H15.1779V23.3221ZM23.3221 23.3221V23.0221H23.0221V23.3221H23.3221ZM34.5 15.1779L34.5 15.4779H34.5V15.1779ZM23.3221 15.1779H23.0221V15.4779L23.3221 15.4779L23.3221 15.1779ZM15.4779 4C15.4779 1.95655 17.1344 0.3 19.1779 0.3V-0.3C16.8031 -0.3 14.8779 1.62517 14.8779 4H15.4779ZM15.4779 15.1779V4H14.8779V15.1779H15.4779ZM4 15.4779L15.1779 15.4779L15.1779 14.8779L4 14.8779L4 15.4779ZM0.3 19.1779C0.3 17.1344 1.95655 15.4779 4 15.4779V14.8779C1.62518 14.8779 -0.3 16.8031 -0.3 19.1779H0.3ZM0.3 19.3221V19.1779H-0.3V19.3221H0.3ZM4 23.0221C1.95655 23.0221 0.3 21.3656 0.3 19.3221H-0.3C-0.3 21.6969 1.62517 23.6221 4 23.6221V23.0221ZM15.1779 23.0221H4V23.6221H15.1779V23.0221ZM15.4779 34.5V23.3221H14.8779V34.5H15.4779ZM19.1779 38.2C17.1344 38.2 15.4779 36.5435 15.4779 34.5H14.8779C14.8779 36.8748 16.8031 38.8 19.1779 38.8V38.2ZM19.3221 38.2H19.1779V38.8H19.3221V38.2ZM23.0221 34.5C23.0221 36.5435 21.3656 38.2 19.3221 38.2V38.8C21.6969 38.8 23.6221 36.8748 23.6221 34.5H23.0221ZM23.0221 23.3221V34.5H23.6221V23.3221H23.0221ZM34.5 23.0221H23.3221V23.6221H34.5V23.0221ZM38.2 19.3221C38.2 21.3656 36.5435 23.0221 34.5 23.0221V23.6221C36.8748 23.6221 38.8 21.6969 38.8 19.3221H38.2ZM38.2 19.1779V19.3221H38.8V19.1779H38.2ZM34.5 15.4779C36.5435 15.4779 38.2 17.1344 38.2 19.1779H38.8C38.8 16.8031 36.8748 14.8779 34.5 14.8779V15.4779ZM23.3221 15.4779L34.5 15.4779L34.5 14.8779L23.3221 14.8779L23.3221 15.4779ZM23.0221 4V15.1779H23.6221V4H23.0221ZM19.3221 0.3C21.3656 0.3 23.0221 1.95655 23.0221 4H23.6221C23.6221 1.62518 21.6969 -0.3 19.3221 -0.3V0.3ZM19.1779 0.3H19.3221V-0.3H19.1779V0.3Z" fill="#A3A3A3" mask="url(#path-1-inside-1_52_15)"/>
</g>
<defs>
<filter id="filter0_d_52_15" x="0" y="0" width="40.5" height="40.5" filterUnits="userSpaceOnUse" color-interpolation-filters="sRGB">
<feFlood flood-opacity="0" result="BackgroundImageFix"/>
<feColorMatrix in="SourceAlpha" type="matrix" values="0 0 0 0 0 0 0 0 0 0 0 0 0 0 0 0 0 0 127 0" result="hardAlpha"/>
<feOffset dx="2" dy="2"/>
<feComposite in2="hardAlpha" operator="out"/>
<feColorMatrix type="matrix" values="0 0 0 0 0.639216 0 0 0 0 0.639216 0 0 0 0 0.639216 0 0 0 1 0"/>
<feBlend mode="normal" in2="BackgroundImageFix" result="effect1_dropShadow_52_15"/>
<feBlend mode="normal" in="SourceGraphic" in2="effect1_dropShadow_52_15" result="shape"/>
</filter>
</defs>
</svg>
