<svg width="35" height="31" viewBox="0 0 35 31" fill="none" xmlns="http://www.w3.org/2000/svg">
<path d="M14.7656 2.375H20.2344C29.802 2.375 30.0781 14.1569 30.0781 15.5H31.1719C31.1719 14.0448 30.8804 1.28125 20.7812 1.28125H14.2188C10.3381 1.28125 3.82812 3.12859 3.82812 15.5H4.92188C4.92188 7.03602 8.41805 2.375 14.7656 2.375Z" fill="#CCE4FF"/>
<path d="M31.7188 16.5938H3.28125C2.07484 16.5938 1.09375 17.5748 1.09375 18.7812V24.25C1.09375 25.4564 2.07484 26.4375 3.28125 26.4375H31.7188C32.9252 26.4375 33.9062 25.4564 33.9062 24.25V18.7812C33.9062 17.5748 32.9252 16.5938 31.7188 16.5938Z" fill="#CCE4FF"/>
<path d="M32.2558 15.5481C32.2574 15.5312 32.2656 15.517 32.2656 15.5C32.2656 13.9327 31.9435 0.1875 20.7812 0.1875H14.2188C6.92016 0.1875 2.73438 5.76891 2.73438 15.5C2.73438 15.517 2.74258 15.5312 2.74422 15.5481C1.19 15.8057 0 17.1554 0 18.7812V24.25C0 26.0596 1.47164 27.5312 3.28125 27.5312V30.2656C3.28125 30.568 3.5257 30.8125 3.82812 30.8125H8.20312C8.50555 30.8125 8.75 30.568 8.75 30.2656V27.5312H26.25V30.2656C26.25 30.568 26.4945 30.8125 26.7969 30.8125H31.1719C31.4743 30.8125 31.7188 30.568 31.7188 30.2656V27.5312C33.5284 27.5312 35 26.0596 35 24.25V18.7812C35 17.1554 33.81 15.8057 32.2558 15.5481ZM14.2188 1.28125H20.7812C30.8804 1.28125 31.1719 14.0448 31.1719 15.5H30.0781C30.0781 14.1569 29.802 2.375 20.2344 2.375H14.7656C8.41805 2.375 4.92188 7.03602 4.92188 15.5H3.82812C3.82812 3.12859 10.3381 1.28125 14.2188 1.28125ZM13.125 11.125C10.7089 11.125 8.75 13.0839 8.75 15.5H6.01562C6.01562 5.55562 10.774 3.46875 14.7656 3.46875H20.2344C23.7016 3.46875 26.2002 5.19687 27.6615 8.60609C28.8887 11.4706 28.9844 14.607 28.9844 15.5H17.5C17.5 13.0839 15.5411 11.125 13.125 11.125ZM16.4062 15.5H9.84375C9.84375 13.6882 11.3132 12.2188 13.125 12.2188C14.9368 12.2188 16.4062 13.6882 16.4062 15.5ZM7.65625 29.7188H4.375V27.5312H7.65625V29.7188ZM30.625 29.7188H27.3438V27.5312H30.625V29.7188ZM33.9062 24.25C33.9062 25.4564 32.9252 26.4375 31.7188 26.4375H3.28125C2.07484 26.4375 1.09375 25.4564 1.09375 24.25V18.7812C1.09375 17.5748 2.07484 16.5938 3.28125 16.5938H31.7188C32.9252 16.5938 33.9062 17.5748 33.9062 18.7812V24.25Z" fill="#2A2941"/>
<path d="M6.01562 19.3281C4.80922 19.3281 3.82812 20.3092 3.82812 21.5156C3.82812 22.722 4.80922 23.7031 6.01562 23.7031C7.22203 23.7031 8.20312 22.722 8.20312 21.5156C8.20312 20.3092 7.22203 19.3281 6.01562 19.3281ZM6.01562 22.6094C5.41242 22.6094 4.92188 22.1188 4.92188 21.5156C4.92188 20.9124 5.41242 20.4219 6.01562 20.4219C6.61883 20.4219 7.10938 20.9124 7.10938 21.5156C7.10938 22.1188 6.61883 22.6094 6.01562 22.6094Z" fill="#2A2941"/>
<path d="M28.9844 19.3281C27.778 19.3281 26.7969 20.3092 26.7969 21.5156C26.7969 22.722 27.778 23.7031 28.9844 23.7031C30.1908 23.7031 31.1719 22.722 31.1719 21.5156C31.1719 20.3092 30.1908 19.3281 28.9844 19.3281ZM28.9844 22.6094C28.3812 22.6094 27.8906 22.1188 27.8906 21.5156C27.8906 20.9124 28.3812 20.4219 28.9844 20.4219C29.5876 20.4219 30.0781 20.9124 30.0781 21.5156C30.0781 22.1188 29.5876 22.6094 28.9844 22.6094Z" fill="#2A2941"/>
<path d="M23.5156 19.875H11.4844C11.182 19.875 10.9375 20.1195 10.9375 20.4219C10.9375 20.7243 11.182 20.9688 11.4844 20.9688H23.5156C23.818 20.9688 24.0625 20.7243 24.0625 20.4219C24.0625 20.1195 23.818 19.875 23.5156 19.875Z" fill="#2A2941"/>
<path d="M23.5156 22.0625H11.4844C11.182 22.0625 10.9375 22.307 10.9375 22.6094C10.9375 22.9118 11.182 23.1562 11.4844 23.1562H23.5156C23.818 23.1562 24.0625 22.9118 24.0625 22.6094C24.0625 22.307 23.818 22.0625 23.5156 22.0625Z" fill="#2A2941"/>
<path d="M23.6759 8.23096C23.7825 8.3376 23.9225 8.39119 24.0625 8.39119C24.2025 8.39119 24.3425 8.3376 24.4492 8.23096C24.663 8.01713 24.663 7.6715 24.4492 7.45767L23.3554 6.36392C23.1416 6.1501 22.796 6.1501 22.5821 6.36392C22.3683 6.57775 22.3683 6.92338 22.5821 7.1372L23.6759 8.23096Z" fill="#2A2941"/>
<path d="M23.6759 10.9648C23.7825 11.0714 23.9225 11.125 24.0625 11.125C24.2025 11.125 24.3425 11.0714 24.4492 10.9648C24.663 10.751 24.663 10.4053 24.4492 10.1915L20.621 6.36337C20.4072 6.14955 20.0616 6.14955 19.8477 6.36337C19.6339 6.5772 19.6339 6.92283 19.8477 7.13666L23.6759 10.9648Z" fill="#2A2941"/>
<path d="M7.65625 27.5312H4.375V29.7188H7.65625V27.5312Z" fill="#1A2431"/>
<path d="M30.625 27.5312H27.3438V29.7188H30.625V27.5312Z" fill="#1A2431"/>
</svg>
