<svg width="1512" height="594" viewBox="0 0 1512 594" fill="none" xmlns="http://www.w3.org/2000/svg">
<g style="mix-blend-mode:overlay">
<path fill-rule="evenodd" clip-rule="evenodd" d="M0 114L63 177.6C126 241.2 152.111 381.75 278.111 421.5C404.111 461.25 443.366 387.3 569.366 355.5C695.366 323.7 849.054 310 1009.93 378C1170.8 446 1174.48 457.5 1325.37 482C1476.25 506.5 1512 447.9 1512 447.9V591H1449C1386 591 1260 591 1134 591C1008 591 882 591 756 591C630 591 504 591 378 591C252 591 126 591 63 591H0V114Z" fill="url(#paint0_linear_1_373)"/>
</g>
<g style="mix-blend-mode:overlay">
<path fill-rule="evenodd" clip-rule="evenodd" d="M1512 518.109L1449.04 467.516C1386.08 416.922 1204.56 220.85 1078.65 233.499C952.731 246.147 758.029 323.781 632.112 273.187C506.195 222.593 504.667 138.656 378.75 50.1173C252.833 -38.4218 126.917 12.172 63.9583 37.4688L1.00005 62.7657V594H63.9583C126.917 594 252.833 594 378.75 594C504.667 594 630.583 594 756.5 594C882.417 594 1008.33 594 1134.25 594C1260.17 594 1386.08 594 1449.04 594H1512V518.109Z" fill="url(#paint1_linear_1_373)"/>
</g>
<g style="mix-blend-mode:overlay" filter="url(#filter0_d_1_373)">
<path fill-rule="evenodd" clip-rule="evenodd" d="M0 526.129L63 514.817C126 503.506 252 480.882 378 446.947C504 413.011 630 367.764 756 288.582C882 209.399 1008 96.2813 1134 84.9695C1260 73.6577 1386 164.152 1449 209.399L1512 254.646V594H1449C1386 594 1260 594 1134 594C1008 594 882 594 756 594C630 594 504 594 378 594C252 594 126 594 63 594H0V526.129Z" fill="url(#paint2_linear_1_373)" shape-rendering="crispEdges"/>
</g>
<defs>
<filter id="filter0_d_1_373" x="-4" y="84" width="1520" height="518" filterUnits="userSpaceOnUse" color-interpolation-filters="sRGB">
<feFlood flood-opacity="0" result="BackgroundImageFix"/>
<feColorMatrix in="SourceAlpha" type="matrix" values="0 0 0 0 0 0 0 0 0 0 0 0 0 0 0 0 0 0 127 0" result="hardAlpha"/>
<feOffset dy="4"/>
<feGaussianBlur stdDeviation="2"/>
<feComposite in2="hardAlpha" operator="out"/>
<feColorMatrix type="matrix" values="0 0 0 0 0 0 0 0 0 0 0 0 0 0 0 0 0 0 0.25 0"/>
<feBlend mode="normal" in2="BackgroundImageFix" result="effect1_dropShadow_1_373"/>
<feBlend mode="normal" in="SourceGraphic" in2="effect1_dropShadow_1_373" result="shape"/>
</filter>
<linearGradient id="paint0_linear_1_373" x1="765.989" y1="153.5" x2="756.953" y2="591.02" gradientUnits="userSpaceOnUse">
<stop offset="0.447917" stop-color="#00387B"/>
<stop offset="1" stop-color="#CCE4FF" stop-opacity="0.39"/>
</linearGradient>
<linearGradient id="paint1_linear_1_373" x1="926.455" y1="322.494" x2="2269.32" y2="1147.68" gradientUnits="userSpaceOnUse">
<stop stop-color="#003574"/>
<stop offset="1" stop-color="white" stop-opacity="0"/>
</linearGradient>
<linearGradient id="paint2_linear_1_373" x1="756" y1="84" x2="756" y2="594" gradientUnits="userSpaceOnUse">
<stop stop-color="#00418D"/>
<stop offset="1" stop-opacity="0"/>
</linearGradient>
</defs>
</svg>
