<svg width="35" height="36" viewBox="0 0 35 36" fill="none" xmlns="http://www.w3.org/2000/svg">
<path d="M12.8494 6.81422C12.8494 6.81422 12.4884 5.96875 11.9372 5.96875C11.3947 5.96875 11.1125 6.21922 10.9244 6.39203C10.7362 6.56484 7.58842 9.15156 7.58842 9.15156C7.58842 9.15156 6.67295 9.95109 6.74295 11.455C6.80202 12.9589 7.09624 15.0994 8.62311 18.0809C10.139 21.0559 13.9333 25.6016 16.3308 27.1995C16.3308 27.1995 18.5522 28.9036 20.6194 29.5959C21.2198 29.7852 22.4208 30.0312 22.7008 30.0312C22.9851 30.0312 23.4872 30.0312 24.0636 29.6102C24.6498 29.1847 27.9387 26.54 27.9387 26.54C27.9387 26.54 28.7437 25.8127 27.8086 24.9672C26.869 24.1217 24.0165 22.2416 23.4062 21.7472C22.7948 21.2452 21.9242 21.4661 21.548 21.8062C21.1728 22.1486 20.5023 22.7119 20.4203 22.783C20.2978 22.877 19.962 23.1822 19.5858 23.0302C19.1067 22.8409 17.1423 21.7745 15.3212 19.283C13.5111 16.7936 13.312 15.9798 13.0419 15.1005C12.996 14.9705 12.9954 14.8288 13.0401 14.6984C13.0847 14.568 13.1721 14.4565 13.288 14.3819C13.5592 14.1938 14.5578 13.3614 14.5578 13.3614C14.5578 13.3614 15.2042 12.7238 14.934 11.9723C14.6639 11.2209 12.8494 6.81422 12.8494 6.81422Z" fill="#1A2431"/>
</svg>
