<svg width="14" height="20" viewBox="0 0 14 20" fill="none" xmlns="http://www.w3.org/2000/svg">
<path d="M11.0931 10.07C11.7563 10.7083 11.7765 11.7634 11.1382 12.4265C10.4998 13.0897 9.44476 13.1099 8.78156 12.4716L1.32876 5.29833C0.665571 4.66001 0.645406 3.60493 1.28372 2.94174C1.92204 2.27855 2.97712 2.25838 3.64032 2.8967L11.0931 10.07Z" fill="#D8D8D8"/>
<mask id="mask0_115_429" style="mask-type:luminance" maskUnits="userSpaceOnUse" x="0" y="2" width="12" height="11">
<path d="M11.0931 10.07C11.7563 10.7083 11.7765 11.7634 11.1382 12.4265C10.4998 13.0897 9.44476 13.1099 8.78156 12.4716L1.32876 5.29833C0.665571 4.66001 0.645406 3.60493 1.28372 2.94174C1.92204 2.27855 2.97712 2.25838 3.64032 2.8967L11.0931 10.07Z" fill="#FFA0A0"/>
</mask>
<g mask="url(#mask0_115_429)">
<path d="M27 -10H-13V30H27V-10Z" fill="white"/>
</g>
<path d="M9.64298 10L2.48816 2.84518C1.83728 2.1943 1.83728 1.13903 2.48816 0.488155C3.13903 -0.162718 4.1943 -0.162718 4.84518 0.488155L13.1785 8.82149C13.8294 9.47236 13.8294 10.5276 13.1785 11.1785L4.84518 19.5118C4.1943 20.1627 3.13903 20.1627 2.48816 19.5118C1.83728 18.861 1.83728 17.8057 2.48816 17.1548L9.64298 10Z" fill="#1A2431"/>
<mask id="mask1_115_429" style="mask-type:luminance" maskUnits="userSpaceOnUse" x="2" y="0" width="12" height="20">
<path d="M9.64298 10L2.48816 2.84518C1.83728 2.1943 1.83728 1.13903 2.48816 0.488155C3.13903 -0.162718 4.1943 -0.162718 4.84518 0.488155L13.1785 8.82149C13.8294 9.47236 13.8294 10.5276 13.1785 11.1785L4.84518 19.5118C4.1943 20.1627 3.13903 20.1627 2.48816 19.5118C1.83728 18.861 1.83728 17.8057 2.48816 17.1548L9.64298 10Z" fill="#7600FF"/>
</mask>
<g mask="url(#mask1_115_429)">
<path d="M27 -10H-13V30H27V-10Z" fill="#1A2431"/>
</g>
</svg>
