<svg width="100" height="101" viewBox="0 0 100 101" fill="none" xmlns="http://www.w3.org/2000/svg">
<path fill-rule="evenodd" clip-rule="evenodd" d="M8.33331 50.5C8.33331 27.4881 26.9881 8.83331 50 8.83331C73.0117 8.83331 91.6667 27.4881 91.6667 50.5C91.6667 73.5117 73.0117 92.1667 50 92.1667C26.9881 92.1667 8.33331 73.5117 8.33331 50.5ZM49.9996 25.5C40.7949 25.5 33.3329 32.9619 33.3329 42.1666C33.3329 51.3712 40.7949 58.8333 49.9996 58.8333C59.2042 58.8333 66.6662 51.3712 66.6662 42.1666C66.6662 32.9619 59.2042 25.5 49.9996 25.5ZM71.2979 67.1558C74.4554 69.1892 74.3012 73.6212 71.4258 76.0367C65.6321 80.9025 58.1587 83.8333 50.0004 83.8333C41.8962 83.8333 34.4673 80.9412 28.6898 76.1325C25.7888 73.7179 25.6351 69.2633 28.8063 67.2166C29.7935 66.5796 30.8686 66.0212 32.0354 65.5404C36.7298 63.605 42.7258 63 50 63C57.3108 63 63.3408 63.5662 68.0475 65.4808C69.2233 65.9591 70.3058 66.5171 71.2979 67.1558Z" fill="#1A2431"/>
</svg>
